<svg xmlns="http://www.w3.org/2000/svg" aria-hidden="true" role="presentation" viewBox="0 0 20.81 22"><path d="M18.81 8.78l-2.21-.6 2.13-.09V5.28L13 5.63l-7.58-.52-2.9.26v.94l1.1.43-1.12.33-.06 3.78-.28 1.88.84 2.13-.44.77 1.53.43-1.71.26-.22 1.5 5.48 3.85.6-.43-.19.76h2l5.83-1.06-1.07-2.56 1 1.45 1.28.17 1.81-1.36-.23-1.79.45-1.45zm-3.88 7.33h-.13c-.02 0-.18.08-.27.07-.35 0 0 .25-.39.24-.1 0-.87-.25-1-.25-.38 0-.77 0-1.15-.06a2 2 0 0 1-.62-.13.64.64 0 0 0-.32-.05c-.58 0-2.6.1-3.18.15s-.95.09-1.55.12v-1.23a8.82 8.82 0 0 0 1.49-.12c.44 0 2.33-.08 2.77-.1a2.4 2.4 0 0 1 1 .07c.49.17 1.52 0 2 .12s.59.5 1.16.53h.13v.55zm-.49-2.63a12.14 12.14 0 0 1-1.32-.12c-.58-.06-.94 0-1.11-.06a3.77 3.77 0 0 0-1.46 0c-.59.1-1.6-.06-2.2 0-.44.06-.89.08-1.33.12a.13.13 0 0 1-.09 0 5.62 5.62 0 0 1-.6-1.42c.51-.09 1 .14 1.51.06s1.62 0 2.22-.06l1.2-.1 1.33.22.47-.15c.31.1.43 0 .8.15a9.7 9.7 0 0 0 1.11.35v1.12a1.75 1.75 0 0 1-.53-.11zm.55-3h-.44c-.57 0-1.14-.05-1.72-.07a1.13 1.13 0 0 1-.28-.08c-.24-.08-.48.32-.73.26a1.1 1.1 0 0 0-.38 0c-.42 0-.88-.17-1.29-.11-.25 0-.45-.16-.7-.12l-.53.12a.64.64 0 0 1-.26 0c-.74-.18-1.48-.19-2.22-.38l-.13-1.31a.14.14 0 0 1 .17-.08l2.74.41h.1a2.61 2.61 0 0 0 .76 0c.39 0 .78-.08 1.16-.06s.86 0 1.3 0c.86 0 1.63-.05 2.48 0zM18.85 0l-1.62.43L3.49.6 2 0 0 1.53.17 4l1.36 1.2 2-1.11 13.82.6 1.36.26 1.88-.68.26-3.07z"/></svg>