<svg xmlns="http://www.w3.org/2000/svg" viewBox="0 0 30 30" aria-hidden="true" role="presentation">
    <title>1</title>
    <path d="M25.17 11.72c0 .45-.05.91-.09 1.36 0 .27-.05.53-.1.79a4.78 4.78 0 0 0-.05 1.2v.4a16.51 16.51 0 0 1 .12 2.32v1.12a1.38 1.38 0 0 1-.19.69c-.05.09-.12.18-.17.27a.22.22 0 0 0 0 .23.62.62 0 0 0 0 .07.68.68 0 0 1 0 .88l-.66 1a.53.53 0 0 1-.18.15l-.43.21-1.08.59a16.72 16.72 0 0 1-2 .83l-2.62.94-1.49.57c-.45.17-.89.34-1.35.47a1.72 1.72 0 0 1-.63.06.7.7 0 0 1-.43-.19 4.5 4.5 0 0 1-.33-.35l-.89-1a10.35 10.35 0 0 0-1.5-1.43q-.47-.37-1-.72c-.69-.5-1.37-1-2-1.55l-1.07-.84A4.65 4.65 0 0 0 5.6 19l-.14-.07a.37.37 0 0 1-.19-.24 3.77 3.77 0 0 1-.07-.72c0-2 0-3.9.18-5.85V9.36a.63.63 0 0 1 .18-.43 8.83 8.83 0 0 1 2.23-1.82L9.81 6c1.07-.59 2.13-1.21 3.14-1.89l.2-.13a.68.68 0 0 1 .54-.08l.38.13q1.42.53 2.82 1.11a14.12 14.12 0 0 0 1.58.54c.84.24 1.68.48 2.5.79.4.15.79.31 1.18.48a6.7 6.7 0 0 1 1.55 1 11 11 0 0 0 1.27 1A.17.17 0 0 1 25 9a14.75 14.75 0 0 1 .17 2.72zM20 17a10.25 10.25 0 0 0 1.74-.11l.23-.05c.13 0 .18-.13.13-.23a1.78 1.78 0 0 1-.19-.85v-.72a.28.28 0 0 0-.22-.2 1.45 1.45 0 0 0-.24 0c-.34 0-.69 0-1 .09s-.84.09-1.27.1h-.56a2.09 2.09 0 0 0-.62.14.81.81 0 0 0-.44.44 1.06 1.06 0 0 0-.08.23c-.07.31-.13.63-.2.94s-.19.78-.23 1.18 0 .8 0 1.2v1.2c0 .4-.06.53-.09.79 0 .06.09.15.15.16a.74.74 0 0 0 .31 0A9.39 9.39 0 0 1 18.9 21h.15a.35.35 0 0 0 .2-.23.92.92 0 0 0 0-.4c-.06-.26-.13-.52-.19-.78a7.86 7.86 0 0 1-.21-2 1 1 0 0 1 0-.24A.32.32 0 0 1 19 17a1.1 1.1 0 0 1 .31-.06zm-11.54.11v.53a.3.3 0 0 0 .34.26 1.46 1.46 0 0 0 .31-.06c.27-.1.55-.2.82-.31a6.53 6.53 0 0 1 1.22-.36 2.24 2.24 0 0 1 .47 0 .47.47 0 0 1 .35.17 1.33 1.33 0 0 1 .18.26 3.87 3.87 0 0 1 .33.9 12.53 12.53 0 0 1 .3 1.81c0 .13 0 .26.05.39a.22.22 0 0 0 .18.13.63.63 0 0 0 .15 0 5.33 5.33 0 0 1 1.33-.51h.07a.29.29 0 0 0 .15-.26 2 2 0 0 0-.08-.31 6.48 6.48 0 0 1-.37-1.14c-.18-.83-.41-1.66-.53-2.5a.41.41 0 0 0-.24-.29h-.07a3.3 3.3 0 0 0-.77-.18c-.18 0-.37 0-.55-.06a14.6 14.6 0 0 0-2.54-.13h-.24a.39.39 0 0 0-.27.15c-.08.11-.15.22-.22.33a1.54 1.54 0 0 0-.36 1.14zm10.45-4.31a18.47 18.47 0 0 0 2.13-.2 1.35 1.35 0 0 0 .23-.06.29.29 0 0 0 .15-.26 1.64 1.64 0 0 0 0-.23 1.78 1.78 0 0 1-.07-.79c0-.16 0-.32.07-.47a.41.41 0 0 0 0-.15.12.12 0 0 0-.12-.08.94.94 0 0 0-.44.16 1.89 1.89 0 0 1-.77.15 1 1 0 0 1-.53-.15.86.86 0 0 1-.56-.84v-1.6a.24.24 0 0 0-.15-.17h-.16L17.08 8a.41.41 0 0 0-.15 0 .14.14 0 0 0-.09.11.88.88 0 0 0 0 .24A5.78 5.78 0 0 1 17 9.7v1.68a3 3 0 0 0 .21.93.63.63 0 0 0 .47.4 2 2 0 0 0 .39 0zm-6-2.37V8.99a1.24 1.24 0 0 0-.16-.61l-.06-.05a1 1 0 0 0-.24 0 8.73 8.73 0 0 1-1.56.26c-.08 0-.18.12-.2.22a5.26 5.26 0 0 0 0 1.51c0 .21.06.42.08.63a.34.34 0 0 1-.27.34 4.14 4.14 0 0 1-.79 0 3.31 3.31 0 0 1-1.1-.15.19.19 0 0 0-.28.18v1a.31.31 0 0 0 .23.29 3.09 3.09 0 0 1 .3.1 2.89 2.89 0 0 0 1.4.21 9.52 9.52 0 0 0 2.18-.4.46.46 0 0 0 .3-.34 1.82 1.82 0 0 0 .06-.39c.04-.45.07-.93.1-1.41z"></path>
    <text transform="translate(-15.11 -30.35)" font-size="18" font-family="ManuskriptAntD-Reg,Manuskript Antiqua D">
        <tspan letter-spacing="-.006em">P</tspan>
        <tspan x="11.77" y="0">i</tspan>
        <tspan x="16.67" y="0" letter-spacing="-.003em">r</tspan>
        <tspan x="24.73" y="0" letter-spacing="-.02em">a</tspan>
        <tspan x="32.99" y="0" letter-spacing="-.01em">t</tspan>
        <tspan x="39.31" y="0">e</tspan>
        <tspan x="52.18" y="0" letter-spacing="-.005em">c</tspan>
        <tspan x="60.48" y="0">ode</tspan>
    </text>
</svg>