<svg xmlns="http://www.w3.org/2000/svg" aria-hidden="true" role="presentation" viewBox="0 0 41 40"><path d="M25.3 34.55v-.2l.62-2a1.13 1.13 0 0 0 0-.12.17.17 0 0 0-.1-.16.13.13 0 0 0-.15 0 2.45 2.45 0 0 0-.25.31 1.46 1.46 0 0 1-.23.28 1 1 0 0 0-.17.27 5 5 0 0 1-.61.89c-.09 0-.15-.06-.21-.1l-1.48-1.12-3-2.27c-.34-.26-.67-.54-1-.81a1.19 1.19 0 0 0-.33-.22.75.75 0 0 1-.17-.11l-.19-.15a3.94 3.94 0 0 1-.88-.82 3.65 3.65 0 0 0-.27-.3 3 3 0 0 1-.5-.68 3.5 3.5 0 0 0-.27-.4l-5.6-7.64-1.25-1.73-.15-.22a.19.19 0 0 1 .06-.16c.56-.54 1.11-1.1 1.64-1.66.29-.3.6-.58.9-.86.09 0 .13 0 .16.1L13 16.18l1.5 2a3.48 3.48 0 0 0 .4.45l7.1 6.71a3.38 3.38 0 0 0 .44.35l8.16 5.47L34.87 34a2.63 2.63 0 0 1 .35.27 1.46 1.46 0 0 0 .3.2L38.27 36a1.08 1.08 0 0 1 .31.19.28.28 0 0 1-.22.14.51.51 0 0 0-.16 0 6.11 6.11 0 0 1-.79.3c-.26.11-.53.19-.79.28s-.56.19-.83.31a1.83 1.83 0 0 1-.81.21 10.16 10.16 0 0 1-1 .11 1.41 1.41 0 0 1-.44 0l-.32-.06a1.68 1.68 0 0 0-.56 0 1.93 1.93 0 0 1-.64-.06 4.13 4.13 0 0 0-.64-.1l-1.16-.09a1.3 1.3 0 0 1-.5-.12l-2.9-1.4a1.7 1.7 0 0 1-.28-.16l-1.09-.83zM12.91 9.42v-.25a.45.45 0 0 1 .09-.34l.17-.27a1.85 1.85 0 0 0 .27-.87c0-.35.08-.69.12-1 0-.19.06-.37.09-.55s.09-.64.14-1 .05-.4.07-.6a.45.45 0 0 0 0-.16 1 1 0 0 1 .11-.73c0-.12-.08-.23 0-.35a.45.45 0 0 1 .23-.21l.19-.09 1.13-.27a.66.66 0 0 0 .23-.07 1.17 1.17 0 0 1 .49-.17l1.07-.21c.28 0 .55-.1.83-.13a10.13 10.13 0 0 0 2-.48 8.67 8.67 0 0 1 .86-.24 1.61 1.61 0 0 1 .6 0 1.93 1.93 0 0 0 .24 0 .88.88 0 0 1 .71.32 1 1 0 0 0 .27.23l.8.47 1.81 1.05a8.56 8.56 0 0 1 1.28 1 1.19 1.19 0 0 1 .42.68l.14.12a.57.57 0 0 1 .18.31.3.3 0 0 1 0 .16c-.11.36-.13.74-.26 1.09-.13.66-.32 1.3-.41 2a1.27 1.27 0 0 1-.19.59 1.49 1.49 0 0 0 0 .54 3.72 3.72 0 0 1 0 .64v.72a.87.87 0 0 1-.31.75 2.41 2.41 0 0 1-.4.27 6.73 6.73 0 0 1-1.35.52c-.17 0-.34.06-.51.09a.52.52 0 0 1-.51-.17l-.6-.81a2.08 2.08 0 0 0-.17-.17.24.24 0 0 0-.3 0 .26.26 0 0 0-.11.28 2.28 2.28 0 0 0 .17.36 1.92 1.92 0 0 1 .22.43.68.68 0 0 0 .1.17l.15.19a.53.53 0 0 1 .11.49 11.91 11.91 0 0 1-.37 1.44c-.07.19-.11.39-.17.58a.44.44 0 0 1-.43.3.43.43 0 0 1-.44-.39 1.6 1.6 0 0 1 0-.44.4.4 0 0 0 0-.12h-.07a.45.45 0 0 0-.1.12l-.35.68-.17.34a.22.22 0 0 1-.2 0h-.24l-1-.23a.15.15 0 0 1 0-.16c0-.09 0-.18.06-.28a1 1 0 0 0 0-.36.34.34 0 0 0-.11 0 2.35 2.35 0 0 0-.61 0c0 .06-.06.12-.08.18s-.08.28-.13.42a.13.13 0 0 1-.13.07c-.13 0-.26 0-.39-.09a3.24 3.24 0 0 0-.87-.14h-.5s0-.06-.05-.08c-.17-1-.38-2-.51-3.06v-.39a.26.26 0 0 1 .11-.17l.46-.33a.84.84 0 0 0 .15-.13A.35.35 0 0 0 17 11a.36.36 0 0 0-.33-.25.56.56 0 0 0-.34.1l-.47.31a1.47 1.47 0 0 1-.48.21.43.43 0 0 1-.44-.12 5.89 5.89 0 0 0-.5-.46 1.9 1.9 0 0 0-.19-.15 10.81 10.81 0 0 1-1-.81 1.77 1.77 0 0 1-.34-.41zm5.47-2c0-.12-.09-.16-.14-.22a16.07 16.07 0 0 1-1.16-1.28l-.14-.15a.18.18 0 0 0-.25 0 4.07 4.07 0 0 0-.39.23l-1.16 1-.14.15a.3.3 0 0 0 .11.47 1.33 1.33 0 0 1 .36.25l.31.26a.9.9 0 0 0 .75.2h.09l.16.16.13.08a13.64 13.64 0 0 0 1.47-1.19zm6.2 1.43a.41.41 0 0 0 0-.11l-1-1.39-.09-.1a.28.28 0 0 0-.22 0l-1.6.54a.27.27 0 0 0-.11.05.16.16 0 0 0 0 .1.17.17 0 0 0 0 .11 1.7 1.7 0 0 1 .32.51 3 3 0 0 0 .22.38l.55.79a.27.27 0 0 0 .28.11 1.2 1.2 0 0 0 .58-.26 6.15 6.15 0 0 1 .59-.42 3.56 3.56 0 0 0 .49-.35zm-5.36 3.45a.68.68 0 0 0 .62.19.18.18 0 0 0 .17-.15 1 1 0 0 0 0-.24c0-.28 0-.56-.07-.84s0-.35-.06-.52a1 1 0 0 0-.07-.23.15.15 0 0 0-.14-.08l-.14.12-.19.12a1.66 1.66 0 0 0-.07.17l-.34 1.27a.68.68 0 0 0 0 .16.1.1 0 0 0 .14.09zm-8.96-.12c.12 0 .13-.1.16-.16l.63-1.17c.12-.22.25-.44.39-.66a4.56 4.56 0 0 1 .36-.44.45.45 0 0 1 .13-.08.15.15 0 0 1 .15 0 .92.92 0 0 1 .18.48 4.84 4.84 0 0 1-.15 1.24c0 .18-.09.36-.14.55s-.12.47-.17.7-.08.45-.13.7c-.24.32-.49.67-.77 1s-.76.87-1.14 1.3a9.93 9.93 0 0 1-1 .89c-.22.12-.42.29-.66.39l-1.29.57a1.34 1.34 0 0 1-.27.09 12.13 12.13 0 0 1-1.39.21 3.9 3.9 0 0 1-1.85-.32c-.28-.12-.56-.26-.83-.41a2.16 2.16 0 0 1-.61-.46c-.23-.25-.45-.49-.67-.75a5.65 5.65 0 0 0-.41-.45l-.22-.23L0 10.65a1.36 1.36 0 0 1 0-.17l.18-.22 2-2.38a1.6 1.6 0 0 1 .46-.38 3.46 3.46 0 0 0 .54-.32.16.16 0 0 0-.01-.18l-.67-.83c-.08-.11-.15-.22-.22-.33a.19.19 0 0 1 0-.25l.13-.1.31-.19c.13-.08.26-.15.38-.23a5.13 5.13 0 0 1 1.1-.58l.74-.32.43-.17a.61.61 0 0 1 .54 0H6a4.93 4.93 0 0 1 .6 1.2 1.73 1.73 0 0 1-.51.56l-.17.11a.3.3 0 0 0-.11.13.16.16 0 0 0 .05.18l.32.17 1.09.53.14.29 1 2.17a3.75 3.75 0 0 0 .36.63l1.35 2zm-2.69.94c-.17 0-.3-.07-.43-.11a.61.61 0 0 1-.24-.13 3.14 3.14 0 0 1-.45-.51 18.14 18.14 0 0 0-1-1.53 4.25 4.25 0 0 1-.33-.5c-.26-.47-.51-.94-.72-1.43l-.08-.18L4 8.62l-.47-.22c-.09.1-.16.19-.25.28A9.45 9.45 0 0 0 2 10.27a4.27 4.27 0 0 0-.22.38.28.28 0 0 0 0 .23c.07.2.14.4.24.59.33.67.68 1.34 1.06 2a8.88 8.88 0 0 0 .55.89c.47.12 1 .07 1.44.15l.38-.13 1.66-.61.57-.21a.19.19 0 0 0 .12-.12zm25.19 1.19h-.18c-.52-.47-1.06-.93-1.57-1.43l-1-.93a.81.81 0 0 1-.2-.24.39.39 0 0 0-.14-.14c-.29-.2-.56-.42-.83-.64a1.1 1.1 0 0 0-.23-.16 3.65 3.65 0 0 1-.57-.37l-.69-.49-.12-.12a4 4 0 0 1 .45-.45 1.89 1.89 0 0 1 .41.11l2.26.73a.33.33 0 0 0 .25 0l.12-.18 1.53-2.51a2.58 2.58 0 0 0 .21-.44l.84-2.22.15-.37c.47-.31 1-.53 1.42-.85 0-.21-.17-.36-.22-.55s-.13-.38-.2-.57a4.36 4.36 0 0 1-.18-.58l.17-.17a5.43 5.43 0 0 0 .61-.7 10.9 10.9 0 0 1 .84-1 .28.28 0 0 1 .46.11 7.52 7.52 0 0 1 .34 1.16A2.35 2.35 0 0 0 37 2a9.2 9.2 0 0 1 .34 1l-.16.5-.19.06-.78.19a.14.14 0 0 0-.11.1 1.12 1.12 0 0 0 .34.2l1.77.87a1.34 1.34 0 0 1 .39.27l2.32 2.41.09.11v.06l-.33 4.64a.55.55 0 0 1-.05.09 8.33 8.33 0 0 0-.66.81c-.16.22-.33.42-.51.63a2.37 2.37 0 0 1-.62.51l-.63.36a4.53 4.53 0 0 1-1.41.47h-.24a6.45 6.45 0 0 1-1.17-.05h-.2a2.38 2.38 0 0 1-.93-.23c-.13-.06-.27-.11-.41-.15a4.76 4.76 0 0 1-1.09-.54zm.68-3.31a.14.14 0 0 0 .11.11l1.58.48.92.28a.53.53 0 0 0 .24 0l.6-.08 2.23-.31a2.37 2.37 0 0 0 .55-.11 2.55 2.55 0 0 0 0-.49l.12-3.22v-.24l-.27-.26-1.13-1a2.17 2.17 0 0 1-.33-.35.61.61 0 0 0-.35-.22 4.54 4.54 0 0 0-.48.17c-.3.14-.6.29-.89.46s-.42.28-.63.43a.54.54 0 0 0-.23.32 2.41 2.41 0 0 1-.26.59l-1.66 3.08a1.31 1.31 0 0 0-.12.36zM9.18 36.58a.91.91 0 0 1-.4.06h-1a2.6 2.6 0 0 1-1-.19c-.27-.11-.56-.18-.84-.27-.44-.13-.87-.26-1.31-.37h-.08a1.14 1.14 0 0 0-.42-.12c-.06 0-.13 0-.13-.13a1.42 1.42 0 0 1 .29-.2l2.55-1.62a1.71 1.71 0 0 0 .47-.37 1.12 1.12 0 0 1 .22-.18l7.76-5.9a1.48 1.48 0 0 1 .34-.23s.06.08.06.11a.39.39 0 0 0 .18.34.86.86 0 0 1 .24.26c.34.48.67 1 1 1.45.46.63 1 1.21 1.5 1.79.11.12.23.23.34.34l.09.11c0 .11-.09.15-.14.2l-1.8 1.56-1 .84a2.64 2.64 0 0 1-.46.32L13 35.87a1.55 1.55 0 0 1-.6.2c-.52.06-1 .13-1.55.24l-.35.09a1.55 1.55 0 0 1-.6.05c-.13-.17-.24-.36-.36-.54s-.19-.29-.3-.43a.55.55 0 0 0-.16-.11.1.1 0 0 0-.13.06.36.36 0 0 0 0 .15 1 1 0 0 0 .08.23 4 4 0 0 1 .2.65.36.36 0 0 1-.05.12z"/><path d="M29.46 12.39h.08c.38.34.79.65 1.16 1s1 .86 1.44 1.29a.55.55 0 0 1 .17.18 2.73 2.73 0 0 1-.25.41c-.76 1.15-1.48 2.34-2.27 3.47a.45.45 0 0 1-.2-.12l-1.37-1-.24-.14h-.13a4.63 4.63 0 0 1 .41.61c.32.51.59 1.06.88 1.58 0 .11-.08.19-.14.28L26.44 24c-.43.67-.86 1.33-1.29 2-.16.25-.35.48-.52.71a.6.6 0 0 1-.1.08 3.44 3.44 0 0 1-.64-.49c-.47-.48-.94-1-1.45-1.4a.3.3 0 0 1-.1-.12 1.25 1.25 0 0 0-.27-.4A8.55 8.55 0 0 1 21 22.64a.28.28 0 0 1 .12-.21l1.85-2 3.65-3.87a3 3 0 0 0 .32-.41l2.27-3.42zm-9.01 23.4a.38.38 0 0 1 .34.17c.07.11.14.23.2.35l.47.93a2.29 2.29 0 0 0 .33.5 1.52 1.52 0 0 1 .27.62.34.34 0 0 1 0 .23.79.79 0 0 1-.26.35 1.14 1.14 0 0 0-.37.46 2.61 2.61 0 0 1-.16.28 1.64 1.64 0 0 1-.17.22.25.25 0 0 1-.25.08 1.43 1.43 0 0 0-.31-.07.18.18 0 0 1-.11 0 2.55 2.55 0 0 0-.29-.21 1.23 1.23 0 0 1-.31-.31c-.09-.15-.2-.29-.28-.44a1.36 1.36 0 0 0-.39-.45.57.57 0 0 1-.12-.11.43.43 0 0 1-.08-.52 1.48 1.48 0 0 1 .12-.21c.15-.19.29-.38.45-.57a2.09 2.09 0 0 0 .29-.43l.33-.64a.38.38 0 0 1 .3-.23z"/></svg>