<svg xmlns="http://www.w3.org/2000/svg" viewBox="0 0 30 30" aria-hidden="true" role="presentation">
    <path d="M3.87 23.85H3a11.15 11.15 0 0 1-1.84-.13 2.09 2.09 0 0 1-.63-.19H.47s.06-.08.1-.1a.65.65 0 0 1 .21-.06h1.66l.73-.06h.37c1.1-.1 2.19-.28 3.28-.49a9.78 9.78 0 0 0 1-.25 21.91 21.91 0 0 0 2.18-.94 4.07 4.07 0 0 0 .91-.48.51.51 0 0 0 .21-.29.27.27 0 0 0 0-.14.42.42 0 0 0-.19-.22 1.53 1.53 0 0 0-.33-.16 4.45 4.45 0 0 0-.94-.19h-.59L7.11 20c-1.11 0-2.25-.1-3.38-.18-.39 0-.78-.09-1.17-.14-.07 0-.09 0-.06-.08a.12.12 0 0 1 .05 0l.5-.13c1.18-.25 2.33-.59 3.49-.91l.28-.08a1.45 1.45 0 0 0 .45-.24 27.1 27.1 0 0 0 2.13-1.89l.27-.25c.94-.83 1.85-1.71 2.74-2.6a30.93 30.93 0 0 0 2.17-2.43l1.25-1.56a.94.94 0 0 1 .35-.27l.87-.4c1.32-.59 2.68-1.11 4-1.61l2.28-.86 1.25-.45a1.8 1.8 0 0 1 .29-.06c.07 0 .16.06.14.13a1.2 1.2 0 0 1 0 .14 5.76 5.76 0 0 1-.42.87 14.83 14.83 0 0 0-1.17 2.56.45.45 0 0 1-.23.27l-.14.06c-.77.44-1.53.9-2.26 1.4a.13.13 0 0 0-.06.13v.06a.88.88 0 0 0 .21 0h1.84a.14.14 0 0 1 .11.16c-.28.9-.44 1.83-.64 2.75-.07.31-.11.64-.15 1a2.33 2.33 0 0 0 0 .37 12.11 12.11 0 0 0 .15 2.15 3.26 3.26 0 0 0 .27.77c.08.18.18.35.27.53a.53.53 0 0 0 .2.21 7.72 7.72 0 0 0 1.26.62 3.26 3.26 0 0 0 1.22.24h1.25a2.21 2.21 0 0 0 1-.28.24.24 0 0 0 .11-.18.25.25 0 0 1 .26-.2l1 .1a.73.73 0 0 1 .4.17.93.93 0 0 1-.41.15 14.13 14.13 0 0 1-2.18.35 3.41 3.41 0 0 0-.51.07 4.91 4.91 0 0 1-.73.09 18.48 18.48 0 0 1-2.14 0 2.58 2.58 0 0 1-.37 0c-.77-.16-1.54-.29-2.3-.5-.28-.08-.57-.15-.85-.24a9.1 9.1 0 0 0-2.31-.43h-.44a11 11 0 0 0-1.84-.12h-1.47a1 1 0 0 0-.49.15.2.2 0 0 0-.06.26.89.89 0 0 0 .14.17 4.38 4.38 0 0 0 .94.58 8.61 8.61 0 0 0 1.79.68s.07.06.1.1 0 .09-.11.14l-.34.13-.35.11c-.93.25-1.84.54-2.75.84s-1.75.49-2.64.69c-.62.14-1.25.28-1.88.37s-1.26.21-1.9.25h-.13a15.13 15.13 0 0 1-2.39.12z"></path>
</svg>