<svg xmlns="http://www.w3.org/2000/svg" xmlns:xlink="http://www.w3.org/1999/xlink" viewBox="0 0 1200.35 147.45"><defs><style>.cls-1{fill:url(#linear-gradient)}</style><linearGradient id="linear-gradient" x2="1200.35" y1="-.83" y2="-.83" gradientTransform="matrix(-1, 0, 0, 0.59, 1200.35, 74.21)" gradientUnits="userSpaceOnUse"><stop offset="0" stop-color="#0a1612"/><stop offset=".24" stop-color="#255345"/><stop offset=".5" stop-color="#44997e"/><stop offset=".7" stop-color="#43977c"/><stop offset=".78" stop-color="#409077"/><stop offset=".83" stop-color="#3b846d"/><stop offset=".87" stop-color="#33735f"/><stop offset=".91" stop-color="#295d4d"/><stop offset=".94" stop-color="#1d4236"/><stop offset=".97" stop-color="#0f221c"/><stop offset="1"/></linearGradient></defs><title>Timer BG</title><g id="Layer_2" data-name="Layer 2"><g id="Layer_1-2" data-name="Layer 1"><path d="M1200.35,0V144.84c-4.69,0-9.09.67-13.73.93a155.82,155.82,0,0,1-16.46-.18c-10.24-.5-20.72-.77-31-.87-2.89,0-5.75-.07-8.64-.16-1.77-.05-5,.27-6.32-.51-1.52-.91-.46-3-3.33-2.77-2.08.18-4.2,1.75-5.62,2.53-2,1.1-3.86.86-6.47.78-2.34-.07-6.07.3-8.26-.15-2-.43-1.82-2.38-2.21-3.58-.49-1.51-1-3-1.43-4.52-.28,0-1.29,4.3-1.46,4.8-.25.74-.41,2.11-1.19,2.72s-2.11.49-3.53.48c-6.53,0-13.06-1.12-19.54-1.63-1.7-.13-5.52-1.19-6.72-.81-.82.26-1.21,1.22-2.16,1.57a15.9,15.9,0,0,1-4.43.48c-2.91.09-5.61.07-8.52.33-3.3.28-3.39-.27-4.54-2-2.33,1.37-4.37,2.82-7.87,3.15-1.89.17-3.8-.19-5.71-.13s-3.54.17-5.34.17c-4.46,0-8.94-.1-13.38-.32a80,80,0,0,0-12.09-.11,7.31,7.31,0,0,1-1.28.09v.07h-1c-5,0-11.39-.6-17.18-.7-7.1-.13-14.13.28-21.22.44-13.05.31-26.25-.4-39.31-.58-3.26,0-5.72.17-8.31-.95s-4.64-.85-7.73-.88c-2.61,0-5.24,0-7.85-.1a29.24,29.24,0,0,0-3.95-.18c-2.16.29-.89.25-1.77,1.17-.47.48.33.56-.58.93-.74.31-3.25,0-4.11,0-2.72,0-5.47,0-8.19-.13s-4.9,0-6.57-1.22c-1.93-1.37-3.29-3.54-5-5.08-1.46-1.36-2-2.07-3.19-.34a12.77,12.77,0,0,0-1.69,4.65c-.36,1.52,0,1.62-2.27,2-3.14.57-7.87.08-11.19.14-12.33.23-24.66.1-37,.69-3.13.15-6.29.09-9.42.09-4,0-4.32,0-6-2.17-.6-.76-1.85-2.87-3.74-2.94-1.61-.06-3.46,2.49-5,3.07-3.61,1.34-9.67.87-13.86,1-7.15.3-14.35,0-21.51.26-5.83.21-11.2.56-17,.57-3,0-6.64-.51-8.64-.45v-.1c-6-.23-10.48-.82-15.65-1-6.86-.25-13.86-.44-20.72-.59-3.69-.09-7.44-.12-11.13-.12-2.41,0-5.55.47-7.86.31-2.79-.2-4.54-2.31-7.22-2.88-3.17-.69-4.37.5-6.44,1.77-2.48,1.52-3.11,2.07-6.54,2s-6.85.26-10.25.4c-7.1.28-14.25.1-21.36.1-14.76,0-29.44.67-44.2.62-7.05,0-14.1,0-21.15,0a29.2,29.2,0,0,1-4.86,0c-1.82-.49-1.62-1.08-2-2.24-.3-1-.56-4.66-2.21-5.12-2.15.84-1.83,3.6-3.52,4.71s-2.57.81-5.19.28c-3-.61-3-1.45-6-.43a35,35,0,0,1-4.2,1.34c-1.62.35-4.06.11-5.45.57-2.69.89-1.47,1.52-4.9,1.52-3.26,0-6.45.6-9.72.72-6.8.25-13.45-.3-20.21-.52-5.83-.19-11.67-.33-17.47-.7-6.47-.42-12.83-.12-19.29-.32a15.58,15.58,0,0,1-7.06-1.66,22.3,22.3,0,0,0-7.41-1.45,55.52,55.52,0,0,0-9.82.06c-1.58.15-3.16.37-4.77.39-1.23,0-3.38-.45-4.44,0-2,.8-1,2.29-3.64,2.78s-6.32-.18-9.12-.17c-6.9,0-13.37,1.76-20.38,1.51-6-.23-11.58-.49-17.61-.16-.61,0-.68.09-1.68.15v.19c-2,0-4.15,0-6.27.09s-5.29.64-7.35.35c-3.66-.51-4.51-4.92-6.68-6.59-1.16,1.2-1.7,2.72-3,3.84-1.76,1.47-4,1.32-6.68,1.31-7.08,0-14-.77-21-.88-13.46-.22-26.84-.66-40.33-.47-13.15.2-26.61-.16-39.69.72-3.2.22-6.58.33-9.71.81-2.7.41-4.12,1.43-5.2-.44-.79-1.39-.8-3.24-2.75-4.21-1.26-.64-5.23-1.81-6.48-.84s-.4,4.29-2.86,4.87c-1,.25-3.25-.41-4.38-.49-2-.14-4-.09-5.91-.05-3.72.08-5.92.76-7.17-1.63-.92-1.74-1.5-3.71-3.55-5.06-1,1.62-1.87,3.25-2.75,4.89s-1,1.93-4.11,2a167.88,167.88,0,0,1-18.1-.33c-13.18-1.24-25.84-.22-39,.29-5.77.22-11.53.51-17.31.66-6.17.17-12.94.87-18.77-.39a47.53,47.53,0,0,0-7.33-.73,33.63,33.63,0,0,0-4.26-.12,24.24,24.24,0,0,1-3.27.5c-2.23-.28-3.92-3.11-6-3.11-1.88,0-4.33,2.63-5.73,3.4-3.94,2.17-12.11,1.53-17.11,1.7-6.55.22-13.1.36-19.65.59-5.57.2-10.8,0-16.37.11-.87,0-2.59.15-3.59.25V0Z" class="cls-1"/></g></g></svg>