<svg xmlns="http://www.w3.org/2000/svg" viewBox="0 0 40.85 41.02" preserveAspectRatio="none" width="100%" height="100%"><defs><style>.f{fill:#cdf9d9}</style></defs><title>CarouselButton</title><path class="f" d="M25.7 1.88l-1.52-.66a18.88 18.88 0 0 0-2.39-.8 15.7 15.7 0 0 0-2.52-.4 14.26 14.26 0 0 0-2.56.08 11 11 0 0 0-1.27.23l-.46.12h-.08V.12l-.68.38a19.38 19.38 0 0 0-2.33 1.09 22 22 0 0 0-2.17 1.34l-2 1.53c-.5.41-1.12 1-1.87 1.66l-.06.12-.07.05-.38.38-1.22 1.29a18 18 0 0 0-1.46 2l-.09.13-.95 1.79-.76 2-.17.6a17.14 17.14 0 0 0-.51 2.44 4.49 4.49 0 0 0-.1.49V21.88l.52 2.44a22.84 22.84 0 0 0 .71 2.38l1 2.3a19.11 19.11 0 0 0 1.26 2.17l.14.19 1.55 1.89 2.59 2.45 1 .77a25 25 0 0 0 2.1 1.39l1.11.61q.38.2 1.15.56a20.28 20.28 0 0 0 2.36 1h-.09v-.12H15.69a19 19 0 0 0 2.93.77 11.39 11.39 0 0 0 1.48.29h1.12l.09-.23.37.12v.11h1l.37-.33c.35 0 .83-.26 1.45-.38s1.09-.31 1.44-.4l.54-.18 2.77-1h.09l.92-.4.13-.05 3-1.64 1.01-.79.29-.23L36 34.36q.46-.48.95-1.1a15.1 15.1 0 0 0 1.6-2.46l.16-.32q.23-.45.45-1t.49-1.35l.63-2.42.43-3.17v-.33l.12-2.29q0-.66-.05-1.28v-.34q0-.7-.08-1.42t-.16-1.41q-.16-1-.28-1.39l-.41-1.36v-.16l-.24-.5c-.16-.31-.35-.51-.35-.61 0 .25.23.46.31.64l.19.49V13.04l.41 2.33v.09c0 .3.14.63.16 1l-.16-1v-.05l-.92-2.51a18.11 18.11 0 0 0-1.14-2.1l-.26-.4q-.54-.76-1.19-1.52l-.9-1v-.05l-.66-.65h-.05L35 7.12l-1-.86 1 .58.11.15c.48.31.16.6 1.17.87v-.13l-2-1.59c-.32-.21-.62-.43-1-.65l-.7-.42c-.5-.37-1-.68-1.37-.95l-2.3-1.15a17.88 17.88 0 0 0-2.3-.89l-.91-.2m-1.18.33q.84.21 1.5.4l-3.6-.49q.73.13 1.44.28-.76-.05-1.61-.08t-1.22 0l-1 .05 2.07.15q1.62.1 2.57.23c-.88-.05-1.88-.11-2.88-.16a27 27 0 0 1 9.34 2.86 29.43 29.43 0 0 1 3.14 2.18c2.52 1.74 4.52 5.07 5.82 9.97a21.75 21.75 0 0 1 .22 2.32l-.12 2.33q-2.17 9.61-7 12.15a43.56 43.56 0 0 1-6.92 3.12l-4.25 1.22h-.08l-.08-.56-3.47-.1h-.25c-.57 0-1.08.15-1.53.16a16.44 16.44 0 0 0-1.65-.16 3.42 3.42 0 0 1-1.51-.1c-.4-.18-.77-.1-1.1-.28l-1.08-.48a22.23 22.23 0 0 1-2-1.3c-.22-.16-.55-.38-1-.73l-1.4-1.21c-.33-.37-.64-.74-.94-1.13l-.21-.25.07.1.32.4-.17-.24.92 1-1-1.12q.63.46 1.3 1.06t1 .75q.41.32.85.62-.88-.83-1.57-1.44-1.21-1.11-1.87-1.8.9.86 2 1.84a27.24 27.24 0 0 1-4.54-5.97 23.25 23.25 0 0 1-1.3-4.87c0-.2.32-.4.32-.59a8.93 8.93 0 0 1-.54-6.12c3-6.24 6.72-10.69 11.68-13.32a11.73 11.73 0 0 1 1.42-.44c.42-.1.75-.18 1.13-.24l1.15-.19a20.68 20.68 0 0 1 2.39-.19h1.2l4 .35M37.93 29.8c-.1.23-.27.46-.39.68s-.34.37-.34.55c0 .4-.35.78-.57 1.14a1.69 1.69 0 0 1-.15.23c.13-.24.3-.5.46-.79.4-.75.74-1.34 1-1.79m-3.72 4.72a.11.11 0 0 1-.08 0q.69-.52 1.5-1.23a10.92 10.92 0 0 1-1.42 1.19m-1.84 1.6a15.42 15.42 0 0 0 2.15-1.19 10.64 10.64 0 0 1-1.2 1q-8.44 4-15.94 3.39l2-.05c.38 0 .78-.47 1.21-.53l1.37-.6h.21v.77l.94-.2c1-.24 2.59-.62 4.68-1.15l2.36-.6a19.75 19.75 0 0 0 2.29-.84m-2.46 1.59l-2.54 1-3.12.82a12 12 0 0 1-1.41.35l-.36.18h-1.29c2.63-1 5.78-1.18 9.46-2.59l-.74.24M15.11 1.1l.51-.19.34-.11-.9.35c-2.63 1.09-3.59 1.44-2.89 1.06a16.47 16.47 0 0 1 2.24-.95l.58-.15h.11m.47.57l-.78.12A11.47 11.47 0 0 1 19 1.25q-1.07.05-2.24.2l-1.23.19M19.22.53h.09-2a11.7 11.7 0 0 1 1.92 0M5.71 8.19q.31-.37.92-1l.28-.28.08-.11.74-.69a34.69 34.69 0 0 0-5.51 7.51l.34-.69 1.29-2.25 1.86-2.49m-.69-.22q-.44.56-.7.92L4 9.31l-1.05 1.72.33-.69a19.9 19.9 0 0 1 1.4-2z"/></svg>