<svg xmlns="http://www.w3.org/2000/svg" width="100%" height="100%" opacity=".8" preserveAspectRatio="none" viewBox="0 0 588 299.09"><defs><style>.a{isolation:isolate}</style></defs><title>dt_carousel_text-wrapper</title><path d="M556 147.6c-.08-.36 14.36-1.69 16-1.92 2.47-.33 7-.54 9.07-1.56 2.31-1.17 1.65-2.79 1.62-4.66-.11-8.62-3.75-17.24-5.46-25.79-.45-2.23-4-7.27-2.69-8.85.87-1.09 4.07-1.6 5.22-2.86 1.5-1.65 1.43-3.94 1.6-5.84.33-3.84.25-7.4 1.1-11.24 1-4.35-.9-4.46-6.78-6 4.58-3.08 9.41-5.77 10.49-10.39.58-2.49-.61-5-.42-7.52.17-2.35.58-4.67.58-7.05a140.15 140.15 0 0 0-1.09-17.65c-.66-5.25-1.75-10.41-.36-15.63a24 24 0 0 0 .59-8c-.11-2.51 1.18-4.5 2-6.9 1.76-5.29-1-4.48-7.31-4a129.39 129.39 0 0 1-14.2.06c-3.34-.1-8.35-1.08-11.56-.6-5.71.86-7.09 8.28-10.48 11.09-1.8-2-2.68-4.58-4.76-6.45-2.75-2.48-6.21-2.23-10.43-2.21-11 .07-21.78 1.29-32.74 1.48-21 .37-41.84 1.11-62.88.78-20.5-.32-41.49.27-61.88-1.21-5-.36-10.26-.54-15.14-1.35-4.2-.69-6.42-2.41-8.1.74-1.24 2.33-1.25 5.44-4.28 7.08-2 1.07-8.16 3-10.11 1.4s-.62-7.2-4.46-8.19c-1.6-.41-5.05.71-6.81.84-3 .23-6.18.14-9.23.07-5.82-.13-9.25-1.27-11.2 2.73-1.43 2.93-2.33 6.23-5.53 8.5q-2.24-4.08-4.29-8.22c-1.48-3-1.62-3.24-6.41-3.32-9.28-.15-19.05-.38-28.22.55-20.55 2.09-40.29.36-60.82-.48-9-.37-18-.87-27-1.12-9.63-.28-20.17-1.45-29.26.66A70.52 70.52 0 0 1 129 5.81a49.23 49.23 0 0 1-6.65.2c-1.41-.11-3.76-1-5.09-.84-3.47.47-6.11 5.22-9.36 5.22-2.92 0-6.74-4.41-8.93-5.71C92.78 1 80 2.11 72.25 1.82c-10.2-.37-20.43-.6-30.63-1C32.93.49 24.6.8 15.93.63 12.71.57 5-.58 2.16.37-1 1.46.26 5.58.23 8.13c-.08 6.33 1.58 12.65 1.86 19 .33 7.34-.74 14.72-1.18 22.06C.12 62.65 2 76.37 2.44 89.88c.12 3.36-.44 5.93 2.49 8.61 2.77 2.54 2.23 4.82 2.3 8 .06 2.7.05 5.42.27 8.12.09 1.16.86 3 .49 4.09-.76 2.23-.67.92-3.07 1.83-1.26.48-1.47-.34-2.44.6-.8.77-.13 3.36-.12 4.25a68.56 68.56 0 0 0 .35 8.46c.36 2.73.06 5.07 3.18 6.8 3.6 2 9.26 3.4 13.32 5.12 3.57 1.51 5.42 2 .89 3.3a70.33 70.33 0 0 1-12.2 1.77c-4 .38-4.25 0-5.32 2.35-1.49 3.25-.21 8.14-.37 11.57-.6 12.76-.28 25.51-1.82 38.25a83.5 83.5 0 0 0-.24 9.74c0 4.15.05 4.47 5.68 6.23 2 .63 7.51 1.91 7.69 3.87.15 1.66-6.52 3.57-8 5.18C2 231.77 3.24 238 2.78 242.38c-.78 7.39 0 14.83-.68 22.25-.55 6-1.46 12-1.49 18 0 3.31-.32 6.61-.48 9.91-.17 3.82 1.46 3.26 6.71 3.21 9.85-.09 19.47-1.59 29.3-2q16.08-.65 32.19-1.05 8.65-.22 17.29-.21c3.77 0 8.63.85 12.24.55 4.36-.36 7.06-4.15 11.25-5.18 5-1.23 6.82.9 10.06 3.19 3.86 2.73 4.84 3.72 10.2 3.5s10.7.47 16 .72c11.09.51 22.26.19 33.38.19 23.07 0 46 1.19 69.05 1.1q16.53-.06 33.05 0c1.78 0 6 .5 7.59 0 2.84-.88 2.53-1.94 3.09-4 .47-1.75.88-8.37 3.45-9.21 3.37 1.52 2.87 6.48 5.5 8.48s4 1.45 8.12.5c4.71-1.09 4.73-2.61 9.31-.78a48.28 48.28 0 0 0 6.57 2.42c2.52.63 6.34.19 8.51 1 4.2 1.61 2.3 2.74 7.65 2.74 5.1 0 10.08 1.07 15.19 1.29 10.63.45 21-.55 31.59-.94 9.1-.34 18.22-.59 27.29-1.26 10.11-.75 20.05-.22 30.14-.57 5.11-.18 7.12-1 11-3 3.51-1.75 7.33-2.25 11.58-2.61a76.32 76.32 0 0 1 15.34.12c2.47.27 4.93.66 7.45.69 1.93 0 5.29-.81 6.94 0 3.1 1.45 1.62 4.12 5.7 5 4.29.93 9.87-.32 14.25-.31 10.78 0 20.88 3.18 31.84 2.71 9.39-.4 18.27-.87 27.69-.28 4 .25 7.76 1.4 9-1.48 1.39-3.11-1.15-8.13-1.33-11.4-.38-6.63 2.15-13 3.09-19.54 1-7.23.28-14.54-.61-21.77-1.63-13.54-2.61-27.2-2.91-40.9-.1-3.82-.24-7.61-.52-11.42-.17-2.33.91-6.6-1.72-8.34-3-2-10.08-.61-9.24-4.39.61-2.75 5.86-5.54 8.47-7.41 3.66-2.63 2.87-5.1 2.6-8.54-.24-3.08 1-8-.52-10.89-1.41-2.68-7.93-2.41-11.95-2.92q-7.53-1-15.1-1.89c.1-.13 2.8.27.1-.06z" class="a"/></svg>