<svg xmlns="http://www.w3.org/2000/svg" xmlns:xlink="http://www.w3.org/1999/xlink" width="100%" height="100%" preserveAspectRatio="none" viewBox="0 0 1200 217.63"><defs><style>.cls-4,.cls-5{fill-rule:evenodd}</style><linearGradient id="linear-gradient" x2="1200" y1="101.15" y2="101.15" gradientUnits="userSpaceOnUse"><stop offset="0" stop-color="#010d0b"/><stop offset=".25" stop-color="#0b1e24"/><stop offset=".75" stop-color="#0b1e24"/><stop offset="1" stop-color="#010d0b"/></linearGradient></defs><title>top-carousel-mask</title><g id="Layer_2" data-name="Layer 2"><g id="Layer_1-2" data-name="Layer 1"><path fill="url(#linear-gradient)" d="M1200,144.44S1002,202.3,600,202.3,0,144.44,0,144.44V0H1200Z" class="cls-1"/><g class="cls-2" opacity=".1"><path fill="#578c85" d="M752.67,179.95c-5.9,5.14-11.66,9.44-16.55,14.58-.46.49-.91,1-1.38,1.48h38.17c-1.9-4.51-3.93-9-6.09-13.43Z" class="cls-3"/><path fill="#578c85" d="M382,182.55c2.58,1.13,5.06,2.51,7.26,3.61-.16,1.32-.11,1.92-.26,2-2.73,1-5.49,2-8.24,3-3,1.08-5.25,2.73-6.34,4.91h93.2a227.5,227.5,0,0,0-16.9-15.65c-1.36-1.13-2.54-2.47-3.92-3.83,5.4-6.46,10.94-12.17,15.34-18.65a37.1,37.1,0,0,1,13-12,54.2,54.2,0,0,0,15.64-12.72c10.05-12.13,20.66-23.82,30.29-36.28,7.32-9.46,16.7-14.86,27.89-17.72,9.45-2.42,19-4.64,28.46-6.87,5.12-1.2,10.12-1.68,15.51-.37,4.62,1.13,10,1.55,14.47.37,7.7-2,14.76-.85,22.08,1.13,7.6,2.06,15.36,3.53,23,5.52,8.4,2.19,16.8,4.93,23.4,10.65,13,11.28,27.4,21.15,37.64,35.41a14.89,14.89,0,0,0,4,3.93c7.54,4.72,11.05,11.89,13.13,20.19.88,3.51,1,7.57,5.37,10.43,11.14.8,23.1,1.67,35.05,2.51,2.24.16,4.7.38,5.65-2.35,1.13-3.26-1.26-4.56-3.52-6.1-6.19-4.23-12.27-8.62-18.33-13a15,15,0,0,1-4-3.82c-6.34-10.2-12.61-20.45-18.71-30.8-2.93-5-2.79-9.78,1.27-14.5q15.43-17.92,30.4-36.23A79,79,0,0,0,770.68,45c.74-1.26.71-3,1.43-6.32-10.51,6.66-19,12.83-28.24,17.7-9.48,5-18.78,10.88-29.77,12.62A39.87,39.87,0,0,1,711,65.25c-7.72-12.33-20.17-19.84-30.34-29.66a24.26,24.26,0,0,0-8.78-4.9c-9.19-3.21-18.43-6.31-27.81-8.91C633.95,19,623.88,16.13,614.36,11.5c-3.31-1.61-7.08-2.28-10.68-3.25-.61-.16-1.4.34-2.39.62l-4.67,8C591,14.15,594,8,590.73,5.15c-4.3-2.53-8.28-1.66-12.21-.08a659.94,659.94,0,0,1-69.07,24,5.53,5.53,0,0,0-1.07.33c-4.56,2.37-9.38,4.33-13.44,8.26,3.13,9.06,12.59,13.14,16.09,21.75-4.93,2.35-7.77-2.89-12-2.53l-7.1,5.91c-13.16-9.32-25.68-18.26-38.28-27.08a96.6,96.6,0,0,0-10.56-6.42c-1-.54-2.69.14-5.38.37,2.86,4.29,5.27,7.49,7.26,10.94q11.23,19.52,22.23,39.17c1.84,3.27,3.45,6.67,5.13,10,2.39,4.79,1.79,9.44-.69,14-2,3.62-4.27,7.1-5.78,10.89-7.7,19.38-20.68,34.67-36.56,47.74-1.94,1.6-4.33,2.65-6.57,4-9.58-5.75-16.42-13.84-23.93-21.1s-14.79-15.3-23.11-24c-.81,3.63-1.64,5.75-1.69,7.89-.32,13.14-.11,26.3-.8,39.41C372.83,175.84,375.93,179.88,382,182.55Z" class="cls-3"/><path fill="#578c85" d="M825.92,196a9.19,9.19,0,0,0-2.24-5.77l-21.75-8.65c2.87-2.82,4.15-4.75,6-5.7,3.29-1.73,7.07-2.55,10.3-4.38,2.11-1.2,4.57-3.2,5.2-5.34a89.42,89.42,0,0,0,3.41-17.52c.44-5.29-3.67-8.19-9-6.61a31.47,31.47,0,0,0-10.09,4.72C795.34,156.22,783.21,166,770.67,176c1.87,7.08,5.08,13.55,8.32,20Z" class="cls-3"/><path fill="#578c85" d="M424.28,152.69c-5.78-2.23-8.11-7-10-11.83a63.68,63.68,0,0,0-14.88-22.1c-4.16-4.16-7.64-9-11.16-13.22,2.17-7.44,7.07-11.64,11.77-15.81,1.31-1.16,4.06-.7,6.45-1,.6-3.16.71-6.91,2.08-10.12,1.28-3,4-5.35,5.88-8.15,2.66-4,5.17-8.13,7.61-12.29,1.66-2.84,3.08-5.83,4.77-9.07,4.61.9,5.78,5,8.35,7.41a48.46,48.46,0,0,1,6.44,7.76c6.45,9.17,12.78,18.43,19.11,27.68,4.84,7.07,5,13.53-1.27,19-12.51,11-21.46,24.81-31,38.14C427.4,150.53,425.71,151.48,424.28,152.69ZM413.18,105c3.32,4.11,6.31,7.92,9.43,11.62a28.86,28.86,0,0,0,3.62,3c6.24-6.84,12-13.52,16.71-21.17-2.55-3.48-4.59-6.65-7-9.47-2.28-2.65-5-4.93-7.78-7.65Z" class="cls-3"/><path fill="#578c85" d="M778.86,54.82c4.24,3.91,6.68,5.71,8.56,8C796,73.18,804.52,83.67,813,94.15c4,5,4.23,7.88.43,13.14-3.29,4.56-7.24,8.65-10.47,13.24-5.18,7.35-10,15-15,22.42-1,1.52-2.26,2.89-3.79,4.83-2.55-.85-5.26-1.15-7.21-2.53a93.78,93.78,0,0,1-11.12-9.39c-5.61-5.48-10.77-11.42-16.42-16.86-12-11.55-11.9-15.73-.38-27.59,9.39-9.67,19.06-19.18,26.32-30.71C776.37,59.08,777.31,57.44,778.86,54.82Zm5.62,33.42c-7.4,6.8-14,12.57-19.24,20.26,2.45,2.81,4.53,5.38,6.8,7.75s3.79,5.3,7.09,7c5.76-6.32,12-11.6,15.93-19.24Z" class="cls-3"/><path fill="#578c85" d="M551.31,88.3c2-1.66,4-4,6.52-5.21,10-4.76,21.09-4.52,31.79-5.95,1.93-.26,4.07,1.11,6,1.69,1,17.34-5.24,32.7-8.78,49.6-2.83-1.34-5.66-1.82-7.11-3.49-9.3-10.7-18.31-21.65-27.34-32.59C551.74,91.59,551.8,90.26,551.31,88.3Z" class="cls-3"/><path fill="#578c85" d="M629.45,132.58c-4.82-5.54-3.83-12.1-3.45-18.36.41-6.72,1.37-13.41,2.39-20.08,1.72-11.28,6.71-15.17,17.85-13a68,68,0,0,1,16.84,6,7.16,7.16,0,0,1,2.32,11.46c-8.61,9.87-17.44,19.56-26.38,29.14C636.53,130.38,633.68,133.06,629.45,132.58Z" class="cls-3"/><path fill="#578c85" d="M537.62,145.15c-2.15.46-3.29,1.07-4.25.86-9.68-2.15-18.09-6.89-25.56-13.25-4.43-3.78-4.82-7-1.64-11.77,4.38-6.63,10.32-11.77,16.74-16.33,2.87-2,5.68-1.33,7.63,1.73a15.22,15.22,0,0,1,2.2,5q2.6,13.16,4.83,26.39C537.93,139.94,537.62,142.17,537.62,145.15Z" class="cls-3"/><path fill="#578c85" d="M669.36,150.28c-.58-1.79-1.34-2.91-1.18-3.86a88.08,88.08,0,0,1,12.35-32.24,6.25,6.25,0,0,1,8.83-2.29c7,3.9,12.88,8.87,15.42,16.63a15.46,15.46,0,0,1-8.11,9.37c-7.68,3.86-15.45,7.53-23.2,11.23A30,30,0,0,1,669.36,150.28Z" class="cls-3"/><path fill="#578c85" d="M696,155.4c4.25-6.37,7.81-12,14.21-14.88,4.36-2,8.32.3,9,5.12.19,1.35,0,3.5-.87,4.12a39.22,39.22,0,0,1-9.53,5.48C705.16,156.53,701.28,158.89,696,155.4Z" class="cls-3"/><path fill="#578c85" d="M496.6,136.54c8.27,7.7,8.27,7.7,8.59,16.12-7.44,1.77-12.46-2.08-17.45-6.77C489.23,141.12,492.85,139.15,496.6,136.54Z" class="cls-3"/></g><path d="M1200,136q-61.73,9-123.71,16Q974.51,173,871.72,188.17q-69.34-3.6-138.49-9.75-62.42,7.45-125,12.83-97.64-6.39-194.78-18-73.12,7-146.43,11-32.75-2.57-65.44-5.65-35.84-10.22-71.47-21.12Q78.5,144.12,27.34,129.26q-13.67.47-27.34.8v17.19q59.77,8.56,119.78,15.22,47,12.67,94.3,24.13,48.73,4.16,97.54,7.11,119.23,9.89,238.84,12c31.55-4.42,67.23-14.26,94.45-14.43,19.69-.12,45.53,6.9,68.34,10.08q115.76-4.16,231-15.63,15.12-4.29,30.19-8.74,44.5-4.34,88.89-9.68,38.93-2.2,77.8-5.14,27.73-2.9,55.41-6.16l3.48-.35Z" class="cls-4" opacity=".3"/><path d="M1200,147.92q-61.73,9-123.71,16-101.77,21.05-204.57,36.22-69.34-3.6-138.49-9.75-62.42,7.45-125,12.83-97.64-6.39-194.78-18-73.12,7-146.43,11-32.75-2.57-65.44-5.65-35.84-10.22-71.47-21.12Q78.5,156.07,27.34,141.21q-13.67.47-27.34.8V159.2c39.85,5.7,24.24,8.85,64.25,13.29,31.33,8.44,118.89,30.86,118.89,30.86s95.93.35,128.48,2.32q119.23,9.89,238.84,12c31.55-4.42,67.23-14.26,94.45-14.43,19.69-.12,45.53,6.9,68.34,10.08,77.17-2.77,130.16-2.8,207-10.45,10.08-2.86,33.46.94,43.51-2,29.67-2.9,15.43-4,45-7.59,26-1.46,106.43-17.16,132.34-19.12q27.73-2.9,55.41-6.16l3.48-.35Z" class="cls-4" opacity=".3"/><path fill="#010303" d="M1200,144.1c-32.37,5.33-102,16.65-141.94,22q-52.09,4.47-104.28,7.55c-7.16,2.8-10.75,4.19-17.94,7Q824.27,190.71,712.31,194q-33.21-1.64-66.38-3.8-40.33,3.37-80.71,5.94-67.94-1.13-135.79-4.68-74.85-4-149.46-11L269,179.41q-31.41-3.15-62.77-6.77-36.37-8.45-72.57-17.57-67-4.25-133.7-10.88v11.32c9.73.8,22.17,1.77,22.17,1.77l101.78,25.83,131,13.15L347,214.42H549.58l90.89-8.73,77.69,3.41L836.39,199,945,202l42.48-12.26,69.81-7.08,117.88-19.22,24.79-13Z" class="cls-5"/><path fill="#010303" d="M40.47,191.71" class="cls-5"/></g></g></svg>