<svg xmlns="http://www.w3.org/2000/svg" width="24.697" height="1150" preserveAspectRatio="none" viewBox="0 0 24.697 1150"><g><g><path d="M5.80985,296.81131c-.22007.1373-.81835.34565-.78776.51653.3836,2.14268-.85017,4.30528.72873,6.46873.74782,1.02469.469,2.31389.8886,3.50137a23.17223,23.17223,0,0,1,1.03717,7.2271c.13488,5.3316-.05681,10.666.08337,15.99751.07057,2.68368.6981,5.36128.84875,8.04585.15446,2.75234-.19811,5.5188.11981,8.26179.19636,1.69424-.62391,3.25731-1.11364,4.83782-.90571,2.923-1.14022,3.66536.07791,7.03779a4.63093,4.63093,0,0,1,.02571,1.59673c0,2.04422-.34843,4.112.0612,6.12851,1.64431,8.09446.51079,16.21117.86325,24.31386,1.63758,3.26248.70624,6.60511.9113,9.91153a9.06326,9.06326,0,0,1-1.67657,6.52982c-1.12992,1.48186-1.629,6.97416-1.02463,8.263a24.67138,24.67138,0,0,0,2.4161,3.50241,14.86907,14.86907,0,0,0-.599,2.82252c-.05856,4.71036.05293,9.42176-.06966,14.1313-.04441,1.70622-.6606,3.40535-.83124,5.11388-.05389.53964.49206,1.0992.79788,1.7194-1.83574,1.89723.42162,4.28022-1.099,6.03286-1.91351,2.20543,1.21932,4.01988.08409,6.006-.40406.21942-.82672.44893-1.26455.6867C4.856,453.83614,4.92206,452.125,4.933,450.406c.03345-5.24378.10466-10.48848-.03215-15.73112-.05691-2.18079,1.29514-4.23787,1.067-6.4488-.2317-2.24583-1.46609-4.41048-1.09866-6.71233a33.30565,33.30565,0,0,0,.034-6.66129c-.01951-.46367-.91186-.9458-.8131-1.37418.21358-.92646-.871-1.63829-.92023-2.45229-.04348-.71919.6407-1.44313.82039-2.17982a7.8034,7.8034,0,0,0,.03043-1.864c0-16.26484-.06876-32.52988.04718-48.79446.02988-4.1924,1.03878-8.36516,1.00209-12.5781-.01986-2.28053-1.30573-4.43616-1.094-6.71272.206-2.21559.68465-4.52261-.11346-6.64472-1.05291-2.79963-.58658-5.55821-.73417-8.33184-.14648-2.75266.04183-5.51078-.05346-8.26491-.08992-2.5986-1.45394-5.15176-.90305-7.77849-1.65775-1.80817-.794-3.75952-.88658-5.64574-.11916-2.42707-1.36276-4.777-1.03451-7.24748.32873-2.4741-.522-5.03595.23268-7.44593.81989-2.61823.65408-5.19641.74361-7.79515.09182-2.66533.59841-5.38391-.09746-7.98841C-.41936,265.95691-.12706,260.12148.54007,254.375c.94239-8.11746.48834-16.21446.668-24.31837.17927-8.08667-.0003-16.1758.08064-24.26353a21.0898,21.0898,0,0,1,.87174-3.77957c.2403-1.17765-.20611-2.34472.80966-3.54671.66756-.79.323-1.936.08646-2.89428-.54443-2.20531,1.00955-4.28154.97218-6.44832-.03678-2.13288-.67062-4.35742.16464-6.37547.97911-2.36563.56923-4.67322.71785-7.00279.15288-2.39648.64366-4.86319-.09385-7.185-1.50429-4.73573-.33426-9.46852-.79666-14.191,1.57948-3.08431.7941-6.248.90116-9.37831.10635-3.10955.598-6.26623-.12018-9.3208-.92647-3.94046-.67643-7.85905-.76179-11.78912-.08685-3.99893-.01316-7.999-.02575-11.99851a4.58105,4.58105,0,0,0-.68362-1.68879c-.78313-1.741-2.08467-3.43761-.3751-5.42138,1.403-1.62808,1.91734-8.80466.92325-10.6453-.85109-1.57588-.31271-2.89722.03371-4.39156A11.40872,11.40872,0,0,0,3.92627,83.888C2.5319,79.25251,3.44543,74.60338,3.05243,69.969c-.09935-1.17158-1.271-2.27553-.88948-3.51417.36452-1.18357-.60531-2.42931.61573-3.5891,1.09938-1.04423-.238-2.30446,1.083-3.49285.82668-.74371.57791-2.16585-.0395-3.09542A2.8814,2.8814,0,0,1,3.801,52.62268a2.29011,2.29011,0,0,0,.12954-2.59215c-2.01624-2.67164-.61361-5.24178.54138-7.7511.45118-.98023.87482-2.08652.32243-2.76685-1.19473-1.47147-.59068-2.90966-.746-4.35366-.13333-1.23954.06782-2.49079-.05553-3.731a3.5054,3.5054,0,0,1,1.42837-3.11823c.39437.44147.78756.88322,1.37287,1.54083,0,2.67458-.05231,5.60284.03344,8.52975.02419.82579-.63507,1.74471.82137,2.48676.30273.15424-.09747.80465-.26139,1.21473-.12678.31716-.5643.61583-.56574.92319A17.57405,17.57405,0,0,1,4.97108,49.766a1.2825,1.2825,0,0,0,.01774,1.31719c1.5498,1.83544.78806,3.772.84365,5.65775.12051,4.08725.08957,8.17679.02135,12.26484-.05979,3.58357,1.59223,7.11332.94023,10.7113,1.38705,1.15079.49092,2.61157,1.71643,3.86741.72447.7424.13247,1.91232.13247,2.89,0,1.6887.50665,3.44088-.10052,5.05351-1.47816,3.926.07554,7.91525-.97777,11.77639-1.05353,3.862-.57283,7.68676-.73427,11.52559-.16436,3.90838-.649,7.86133.11744,11.72136.97661,4.91828-.12779,9.86483.94372,14.70818,1.26705,5.72726.4452,11.4204.69551,17.12406.25338,5.77343.753,11.59053-.16263,17.319-.74486,4.66027-.35559,9.28554-.691,13.92156-.163,2.25281,1.303,4.41861.98038,6.7146-.32261,2.29576-.66653,4.68222.05249,6.916,1.52377,4.734.52216,9.46528.75008,14.19153a123.473,123.473,0,0,1-.05866,14.39507c-.12813,1.86856-1.49549,3.708-2.28579,5.56254A21.59042,21.59042,0,0,1,4.96,242.20837a.615.615,0,0,0-.00818.529c.38935,1.39376,1.44357,2.68037.58509,4.22691a6.67828,6.67828,0,0,0-.53257,4.12847c.31308,2.50379,1.24338,4.98207.86532,7.514,1.7891,2.07764.71526,4.295.88547,6.44605.17545,2.21735.66725,4.52242-.13868,6.64243-.79734,2.09744-.05434,4.1979-.84258,6.18823-1.59057,4.0162-.37355,8.04621-.84394,12.05643-.07792.66434.502,1.39306-.66853,1.987-.32958.16725-.33652.67424-.21177.98851C4.52815,294.121,5.1204,295.31152,5.80985,296.81131Z" style="fill:#fff;opacity:.30000000000000004"/><path d="M12.80985,802.81131c-.22007.1373-.81835.34565-.78776.51653.3836,2.14268-.85017,4.30528.72873,6.46873.74782,1.02469.469,2.31389.8886,3.50137a23.17223,23.17223,0,0,1,1.03717,7.2271c.13488,5.3316-.05681,10.666.08337,15.99751.07057,2.68368.6981,5.36128.84875,8.04585.15446,2.75234-.19811,5.5188.11981,8.26179.19636,1.69424-.62391,3.25731-1.11364,4.83782-.90571,2.923-1.14022,3.66536.07791,7.03779a4.63093,4.63093,0,0,1,.02571,1.59673c0,2.04422-.34843,4.112.0612,6.12851,1.64431,8.09446.51079,16.21117.86325,24.31386,1.63758,3.26248.70624,6.60511.9113,9.91153a9.06326,9.06326,0,0,1-1.67657,6.52982c-1.12992,1.48186-1.629,6.97416-1.02463,8.263a24.67138,24.67138,0,0,0,2.4161,3.50241,14.86907,14.86907,0,0,0-.599,2.82252c-.05856,4.71036.05293,9.42176-.06966,14.1313-.04441,1.70622-.6606,3.40535-.83124,5.11388-.05389.53964.49206,1.0992.79788,1.7194-1.83574,1.89723.42162,4.28022-1.099,6.03286-1.91351,2.20543,1.21932,4.01988.08409,6.006-.40406.21942-.82672.44893-1.26455.6867-1.43176-1.6281-1.36565-3.33927-1.35469-5.05825.03345-5.24378.10466-10.48848-.03215-15.73112-.05691-2.18079,1.29514-4.23787,1.067-6.4488-.2317-2.24583-1.46609-4.41048-1.09866-6.71233a33.30565,33.30565,0,0,0,.034-6.66129c-.01951-.46367-.91186-.9458-.8131-1.37418.21358-.92646-.871-1.63829-.92023-2.45229-.04348-.71919.6407-1.44313.82039-2.17982a7.8034,7.8034,0,0,0,.03043-1.864c0-16.26484-.06876-32.52988.04718-48.79446.02988-4.1924,1.03878-8.36516,1.00209-12.5781-.01986-2.28053-1.30573-4.43616-1.094-6.71272.206-2.21559.68465-4.52261-.11346-6.64472-1.05291-2.79963-.58658-5.55821-.73417-8.33184-.14648-2.75266.04183-5.51078-.05346-8.26491-.08992-2.5986-1.45394-5.15176-.90305-7.77849-1.65775-1.80817-.794-3.75952-.88658-5.64574-.11916-2.42707-1.36276-4.777-1.03451-7.24748.32873-2.4741-.522-5.03595.23268-7.44593.81989-2.61823.65408-5.19641.74361-7.79515.09182-2.66533.59841-5.38391-.09746-7.98841-1.54892-5.79731-1.25662-11.63274-.58949-17.37923.94239-8.11746.48834-16.21446.668-24.31837.17927-8.08667-.0003-16.1758.08064-24.26353a21.0898,21.0898,0,0,1,.87174-3.77957c.2403-1.17765-.20611-2.34472.80966-3.54671.66756-.78995.323-1.936.08646-2.89428-.54443-2.20531,1.00955-4.28154.97218-6.44832-.03678-2.13288-.67062-4.35742.16464-6.37547.97911-2.36563.56923-4.67322.71785-7.00279.15288-2.39648.64366-4.86319-.09385-7.185-1.50429-4.73573-.33426-9.46852-.79666-14.191,1.57948-3.08431.7941-6.248.90116-9.37831.10635-3.10955.598-6.26623-.12018-9.3208-.92647-3.94046-.67643-7.85905-.76179-11.78912-.08685-3.99893-.01316-7.999-.02575-11.99851a4.58105,4.58105,0,0,0-.68362-1.68879c-.78313-1.741-2.08467-3.43761-.3751-5.42138,1.403-1.62808,1.91734-8.80466.92325-10.6453-.85109-1.57588-.31271-2.89722.03371-4.39156a11.40872,11.40872,0,0,0,.01387-5.84819c-1.39437-4.63552-.48084-9.28465-.87384-13.91908-.09935-1.17158-1.271-2.27553-.88948-3.51417.36452-1.18357-.60531-2.42931.61573-3.5891,1.09938-1.04423-.238-2.30446,1.083-3.49285.82668-.74371.57791-2.16585-.0395-3.09542a2.8814,2.8814,0,0,1-.02118-3.65473,2.29011,2.29011,0,0,0,.12954-2.59215c-2.01624-2.67164-.61361-5.24178.54138-7.7511.45118-.98023.87482-2.08652.32243-2.76685-1.19473-1.47147-.59068-2.90966-.746-4.35366-.13333-1.23954.06782-2.49079-.05553-3.731a3.5054,3.5054,0,0,1,1.42837-3.11823c.39437.44147.78756.88322,1.37287,1.54083,0,2.67458-.05231,5.60284.03344,8.52975.02419.82579-.63507,1.74471.82137,2.48676.30273.15424-.09747.80465-.26139,1.21473-.12678.31716-.5643.61583-.56574.92319a17.57405,17.57405,0,0,1-1.85065,6.76108,1.2825,1.2825,0,0,0,.01774,1.31719c1.5498,1.83544.78806,3.772.84365,5.65775.12051,4.08725.08957,8.17679.02135,12.26484-.05979,3.58357,1.59223,7.11332.94023,10.7113,1.38705,1.15079.49092,2.61157,1.71643,3.86741.72447.7424.13247,1.91232.13247,2.89,0,1.6887.50665,3.44088-.10052,5.05351-1.47816,3.926.07554,7.91525-.97777,11.77639-1.05353,3.862-.57283,7.68676-.73427,11.52559-.16436,3.90838-.649,7.86133.11744,11.72136.97661,4.91828-.12779,9.86483.94372,14.70818,1.267,5.72726.4452,11.4204.69551,17.12406.25338,5.77343.753,11.59053-.16263,17.319-.74486,4.66027-.35559,9.28554-.691,13.92156-.163,2.25281,1.303,4.41861.98038,6.7146-.32261,2.29576-.66653,4.68222.05249,6.916,1.52377,4.734.52216,9.46528.75008,14.19153a123.473,123.473,0,0,1-.05866,14.39507c-.12813,1.86856-1.49549,3.708-2.28579,5.56254a21.59042,21.59042,0,0,1-2.21193,4.80448.615.615,0,0,0-.00818.529c.38935,1.39376,1.44357,2.68037.58509,4.22691a6.67828,6.67828,0,0,0-.53257,4.12847c.31308,2.50379,1.24338,4.98207.86532,7.514,1.7891,2.07764.71526,4.295.88547,6.44605.17545,2.21735.66725,4.52242-.13868,6.64243-.79734,2.09744-.05434,4.1979-.84258,6.18823-1.59057,4.0162-.37355,8.04621-.84394,12.05643-.07792.66434.502,1.39306-.66853,1.987-.32958.16725-.33652.67424-.21177.98851C11.52815,800.121,12.1204,801.31152,12.80985,802.81131Z" style="fill:#fff;opacity:.2"/><path d="M9.714,454.68892c.45388-.33986,1.68778-.85561,1.62469-1.27862-.79115-5.304,1.75342-10.65724-1.50294-16.01261-1.54233-2.53652-.96733-5.72778-1.83267-8.66725-1.715-5.82568-2.013-11.90669-2.13907-17.88989-.2782-13.19779.11716-26.40251-.172-39.60007-.14553-6.64317-1.43976-13.27127-1.75047-19.91662-.31856-6.8131.40857-13.66117-.2471-20.45114-.405-4.19392,1.28675-8.06312,2.29679-11.9755,1.868-7.23547,2.35162-9.07318-.16068-17.42128-.38073-1.26508-.053-2.63248-.053-3.95251,0-5.06023.71861-10.1788-.12622-15.17047C2.26008,262.316,4.59786,242.224,3.871,222.16671c-3.37738-8.07592-1.45656-16.35022-1.8795-24.53491-.285-5.51531.10827-10.89147,3.4578-16.16385,2.33038-3.66817,3.35964-17.26376,2.11322-20.454-1.21616-3.11278-3.42976-6.03871-4.983-8.66983.462-2.49921,1.212-4.74124,1.23529-6.98681.12078-11.66-.10916-23.32253.14367-34.98049.09159-4.22356,1.36244-8.42956,1.71436-12.65884.11116-1.33582-1.01483-2.721-1.64556-4.25619,3.78608-4.69637-.86955-10.59521,2.26662-14.93366C10.24029,73.06876,3.77908,68.5773,6.1204,63.661q1.25-.81471,2.608-1.69985c2.95289,4.03018,2.81655,8.266,2.79394,12.52114-.069,12.98041-.21586,25.96307.0663,38.94066.11738,5.39831-2.67112,10.49037-2.20068,15.9633.47786,5.5593,3.02371,10.91766,2.2659,16.61562-.72536,5.454-.2628,10.99227-.07008,16.48929.04024,1.14776,1.88065,2.34121,1.677,3.40163-.4405,2.29336,1.79638,4.05541,1.89789,6.07038.08969,1.78026-1.32138,3.57229-1.692,5.3959a23.15666,23.15666,0,0,0-.06275,4.6141c0,40.26182.1418,80.52411-.09731,120.78528-.06164,10.37782-2.14241,20.707-2.06674,31.13571.041,5.64519,2.693,10.98122,2.25635,16.61659-.42493,5.48445-1.412,11.19523.234,16.44827,2.17157,6.93017,1.20979,13.75874,1.51419,20.62454.30209,6.8139-.08628,13.64135.11026,20.45888.18543,6.43255,2.99862,12.75263,1.86245,19.25479,3.419,4.47592,1.63753,9.30628,1.82852,13.97541.24575,6.00793,2.81058,11.82483,2.13358,17.94033-.678,6.12436,1.07659,12.46594-.47988,18.43158-1.691,6.48113-1.349,12.86313-1.53364,19.296-.18938,6.59773-1.23417,13.32728.201,19.77442,3.19454,14.35059,2.5917,28.79557,1.21579,43.02035-1.94361,20.09389-1.00717,40.13713-1.37768,60.19746-.36973,20.01766.00062,40.0414-.16631,60.06168-.026,3.12032-1.26641,6.22951-1.7979,9.35591-.49559,2.91513.42509,5.80408-1.66987,8.77949-1.37679,1.95543-.66621,4.79244-.17831,7.16448,1.12285,5.459-2.08211,10.59846-2.005,15.96209.07586,5.27972,1.38309,10.78632-.33956,15.78177-2.01934,5.85586-1.174,11.568-1.4805,17.33462-.31531,5.93224-1.32751,12.03831.19354,17.78559,3.1025,11.72278.68939,23.43827,1.64307,35.12826-3.25756,7.63486-1.63777,15.46615-1.85858,23.215-.21933,7.69735-1.23332,15.51135.24787,23.07261,1.91076,9.75418,1.39507,19.4542,1.57112,29.18265.17913,9.89891.02715,19.80058.05311,29.701.00386,1.47006.90346,2.829,1.40991,4.18042,1.61513,4.30969,4.29946,8.50942.77362,13.42-2.89364,4.03013-3.95437,21.795-1.90414,26.35125,1.75532,3.90091.64495,7.17175-.06952,10.87082a33.72264,33.72264,0,0,0-.0286,14.47655c2.87578,11.47471.99169,22.98314,1.80222,34.45515.20491,2.90012,2.62127,5.63282,1.83449,8.69893-.7518,2.9298,1.24839,6.0135-1.26991,8.88443-2.26738,2.58487.49084,5.70444-2.23359,8.64616-1.705,1.841-1.1919,5.36133.08146,7.66238,1.77791,3.2128,1.86059,5.8718.04367,9.04687-1.08761,1.90061-1.40211,4.61153-.26715,6.41657,4.15833,6.61337,1.26552,12.97545-1.11655,19.187-.93052,2.42646-1.80425,5.165-.665,6.84905,2.464,3.64245,1.21823,7.20254,1.53859,10.777.275,3.06833-.13988,6.16566.11452,9.23569a9.48587,9.48587,0,0,1-2.94589,7.71883c-.81335-1.0928-1.62427-2.18632-2.83144-3.81416,0-6.62063.10789-13.8692-.069-21.11444-.04989-2.04416,1.30978-4.31884-1.694-6.1557-.62437-.3818.201-1.99182.5391-3.00693.26148-.7851,1.16381-1.52442,1.16678-2.28524.02231-5.72346,1.8319-11.2314,3.81683-16.73633a3.72715,3.72715,0,0,0-.03658-3.26055c-3.19635-4.54342-1.62532-9.3372-1.74-14.00513-.24853-10.11753-.18472-20.24074-.044-30.36026.12333-8.87072-3.28384-17.60823-1.93915-26.51464-2.86067-2.84866-1.01248-6.46466-3.54-9.57335-1.49416-1.83773-.2732-4.73373-.2732-7.15385,0-4.18019-1.04493-8.51752.20731-12.50939,3.04859-9.71831-.15579-19.59335,2.01656-29.15117,2.17284-9.56,1.18144-19.02772,1.51439-28.53033.339-9.67476,1.33856-19.45986-.24222-29.01492-2.01417-12.17466.26356-24.41929-1.94634-36.40849-2.6132-14.1772-.9182-28.26991-1.43444-42.3887-.52256-14.29149-1.5529-28.69107.33542-42.87117C5.85785,742.9443,5.055,731.495,5.74687,720.019c.3362-5.57659-2.68739-10.9378-2.022-16.62126.66535-5.68291,1.37466-11.59032-.10825-17.11989C.474,674.55933,2.53974,662.84759,2.06966,651.1483c-.477-11.87136-.55674-23.77145.121-35.63342.26427-4.62542,3.08434-9.17881,4.71427-13.76946,1.41426-3.98317,2.227-8.075,4.56192-11.89295a1.7997,1.7997,0,0,0,.01688-1.30955c-.803-3.4501-2.97725-6.635-1.20669-10.46327,1.46763-3.17333,1.45171-6.82788,1.09837-10.21957-.64569-6.19784-2.56436-12.33256-1.78465-18.60014-3.68987-5.143-1.47518-10.6317-1.82621-15.95649-.36185-5.4888-1.37614-11.19475.286-16.4426,1.64445-5.192.11207-10.39143,1.73777-15.31827,3.28042-9.94168.7704-19.91751,1.74054-29.84436.16072-1.6445-1.03532-3.44837,1.37879-4.91866.67974-.414.69406-1.669.43677-2.44693C12.3574,461.34853,11.13592,458.40148,9.714,454.68892Z" style="fill:#010d0b"/><path d="M7.6476,13.1086c.28415,5.21421-.2386,10.55282,4.4622,15.36191,1.0257,1.04938.91246,2.98982.91246,4.51982v15.105c0,.5989-2.5493,1.20924-3.47957,1.83876-.34965-.22955-1.38369-.45016-1.43325-.7233-.40954-2.25686.8561-4.76405-1.69681-6.37108C6.93882,40.57186,8.2498,38.364,7.499,36.59509c-.66727-1.57214-1.74046-3.027-1.69658-4.75631.15457-6.09189.17858-12.18507.35441-18.27647C6.16152,13.4006,7.14377,13.25282,7.6476,13.1086Z" style="fill:#010d0b"/><path d="M12.805,1124.04854c0,8.61418.03474,16.35791-.08578,24.10048-.00728.46766-1.25082.92609-2.58661,1.851-1.02078-4.5308-.55267-8.71372-.47492-12.84794C9.73606,1132.98653,8.2114,1128.609,12.805,1124.04854Z" style="fill:#010d0b"/><path d="M8.11179,13.545C7.10445,9.35349,6.21385,5.64777,5.37473,2.1563,6.66652,1.26419,7.55768.64886,8.49729,0c.87317.98066,2.17907,1.8846,2.52717,2.94C12.247,6.64656,11.86041,10.19894,8.11179,13.545Z" style="fill:#010d0b"/><path d="M16.68,612.10287c-.45388.13729-1.68778.34564-1.62468.51653.79114,2.14268-1.75343,4.30528,1.50293,6.46873,1.54233,1.02469.96733,2.31389,1.83267,3.50136a12.55426,12.55426,0,0,1,2.13907,7.2271c.2782,5.33161-.11715,10.666.172,15.99751.14554,2.68369,1.43976,5.36129,1.75047,8.04586.31856,2.75233-.40857,5.51879.2471,8.26179.405,1.69424-1.28675,3.25731-2.29679,4.83782-1.868,2.923-2.35162,3.66535.16068,7.03779.38073.51106.053,1.06346.053,1.59673,0,2.04421-.71861,4.112.12622,6.12851,3.39125,8.09445,1.05347,16.21117,1.78038,24.31385,3.37738,3.26249,1.45656,6.60511,1.8795,9.91154.285,2.22806-.10827,4.3999-3.4578,6.52982-2.33038,1.48186-3.35964,6.97416-2.11321,8.263a35.07885,35.07885,0,0,0,4.983,3.50241c-.462,1.00963-1.212,1.91535-1.23529,2.82251-.12078,4.71036.10916,9.42176-.14367,14.13131-.09159,1.70622-1.36244,3.40535-1.71436,5.11388-.11116.53964,1.01483,1.0992,1.64556,1.7194-3.78608,1.89722.86955,4.28022-2.26662,6.03285-3.94646,2.20544,2.51475,4.01989.17343,6.006-.83336.21942-1.705.44893-2.608.6867-2.95289-1.6281-2.81655-3.33927-2.79394-5.05825.069-5.24378.21586-10.48848-.0663-15.73112-.11738-2.1808,2.67112-4.23787,2.20068-6.44881-.47786-2.24583-3.02371-4.41048-2.2659-6.71232.72536-2.20329.2628-4.44063.07008-6.66129-.04024-.46367-1.88064-.9458-1.677-1.37419.4405-.92646-1.79638-1.63829-1.89789-2.45229-.08969-.71918,1.32138-1.44312,1.692-2.17982.30689-.61007.06274-1.24183.06274-1.864,0-16.26484-.1418-32.52987.09731-48.79445.06164-4.1924,2.14241-8.36517,2.06674-12.5781-.041-2.28053-2.693-4.43616-2.25635-6.71272.42494-2.21559,1.412-4.52261-.234-6.64472-2.17157-2.79963-1.20979-5.55822-1.51419-8.33184-.30209-2.75266.08628-5.51079-.11026-8.26491-.18543-2.5986-2.99862-5.15177-1.86245-7.77849-3.419-1.80817-1.63753-3.75952-1.82852-5.64574-.24575-2.42707-2.81058-4.777-2.13358-7.24748.678-2.4741-1.07659-5.03595.47988-7.44593,1.691-2.61823,1.349-5.19641,1.53364-7.79516.18938-2.66533,1.23417-5.38391-.201-7.9884-3.19454-5.79731-2.59169-11.63275-1.21579-17.37923,1.94361-8.11746,1.00717-16.21447,1.37768-24.31837.36973-8.08668-.00062-16.17581.16632-24.26353.026-1.26054,1.2664-2.51658,1.79789-3.77957.49559-1.17765-.42509-2.34472,1.66987-3.54671,1.37679-.78995.66621-1.936.17831-2.89429-1.12285-2.2053,2.08211-4.28153,2.005-6.44831-.07586-2.13289-1.38309-4.35743.33956-6.37547,2.01934-2.36563,1.174-4.67323,1.4805-7.00279.31531-2.39648,1.32751-4.8632-.19354-7.185-3.1025-4.73574-.68939-9.46852-1.64307-14.191,3.25756-3.08431,1.63777-6.248,1.85858-9.3783.21934-3.10955,1.23332-6.26623-.24787-9.3208-1.91076-3.94047-1.39507-7.85905-1.57112-11.78912-.17913-3.99893-.02715-7.999-.05311-11.99851-.00386-.59387-.90346-1.14286-1.40991-1.68879-1.61513-1.741-4.29946-3.43762-.77362-5.42139,2.89364-1.62807,3.95437-8.80466,1.90414-10.64529-1.75532-1.57588-.64495-2.89722.06952-4.39156a5.83242,5.83242,0,0,0,.0286-5.84819c-2.87578-4.63552-.99169-9.28466-1.80222-13.91908-.20491-1.17159-2.62126-2.27553-1.83449-3.51417.7518-1.18357-1.24839-2.42932,1.26991-3.58911,2.26738-1.04422-.49084-2.30445,2.23359-3.49284,1.705-.74371,1.1919-2.16585-.08146-3.09543-1.7779-1.2979-1.86059-2.37207-.04367-3.65472,1.08761-.7678,1.40211-1.863.26715-2.59215-4.15833-2.67165-1.26552-5.24178,1.11655-7.7511.93052-.98023,1.80425-2.08652.665-2.76685-2.464-1.47147-1.21823-2.90966-1.53859-4.35367-.275-1.23953.13988-2.49078-.11452-3.731-.23583-1.14968.67682-2.17346,2.94589-3.11823.81335.44146,1.62427.88322,2.83144,1.54083,0,2.67458-.10789,5.60284.069,8.52975.04989.82579-1.30978,1.74471,1.694,2.48676.62437.15424-.201.80465-.5391,1.21473-.26148.31716-1.16381.61583-1.16678.92318-.02231,2.31215-1.8319,4.53722-3.81683,6.76109-.37337.41833-.5889.958.03658,1.31719,3.19635,1.83543,1.62532,3.772,1.74,5.65774.24853,4.08725.18472,8.17679.044,12.26484-.12333,3.58357,3.28384,7.11332,1.93915,10.71131,2.86067,1.15079,1.01248,2.61157,3.54,3.86741,1.49416.7424.2732,1.91232.2732,2.89,0,1.6887,1.04493,3.44088-.2073,5.0535-3.0486,3.926.15578,7.91526-2.01657,11.7764-2.17284,3.862-1.18144,7.68676-1.51439,11.52559-.339,3.90838-1.33856,7.86133.24222,11.72136,2.01417,4.91828-.26356,9.86482,1.94634,14.70818,2.6132,5.72726.9182,11.42039,1.43444,17.12406.52256,5.77343,1.5529,11.59052-.33542,17.319-1.53622,4.66026-.73337,9.28554-1.42524,13.92155-.3362,2.25282,2.68739,4.41862,2.022,6.71461-.66535,2.29576-1.37466,4.68222.10825,6.916,3.14267,4.734,1.07692,9.46528,1.547,14.19152a60.039,60.039,0,0,1-.121,14.39508c-.26427,1.86856-3.08434,3.708-4.71427,5.56254-1.41426,1.60911-2.227,3.26213-4.56192,4.80448-.22817.15073-.1167.35578-.01688.529.803,1.39376,2.97725,2.68036,1.20669,4.22691a3.7346,3.7346,0,0,0-1.09837,4.12847c.64569,2.50379,2.56436,4.98207,1.78465,7.514,3.68987,2.07764,1.47518,4.295,1.82621,6.44605.36185,2.21735,1.37615,4.52242-.286,6.64243-1.64445,2.09743-.11207,4.1979-1.73777,6.18823-3.28042,4.0162-.7704,8.04621-1.74054,12.05643-.16072.66433,1.03532,1.39306-1.37879,1.987-.67974.16724-.69406.67424-.43677.9885C14.03659,609.41254,15.25807,610.60308,16.68,612.10287Z" style="fill:#0b1e24"/><path d="M15.74639,801.99109c-.28415-2.10642-.95988-4.2631-5.66069-6.20586-1.02569-.42392-2.11093-1.20782-2.11093-1.8259v-6.10209c0-.24194,3.74778-.4885,4.67805-.74281.34964.09273,1.98293.18185,2.03249.29219.40954.91172-.55648,1.92457,1.99643,2.57377-.52619.91618-1.68736,1.8081-.93658,2.5227.66727.63511,1.81536,1.22286,1.77148,1.92144-.15457,2.461-.14112,4.92248-.31695,7.38327A9.65154,9.65154,0,0,1,15.74639,801.99109Z" style="fill:#010d0b"/><path d="M10.589,353.19709c0-3.47993-.03474-6.60822.08578-9.736.00728-.18892,1.25083-.37412,2.58661-.74775,1.02078,1.83034.55267,3.52014.47492,5.19027C13.65793,349.58635,15.18259,351.35478,10.589,353.19709Z" style="fill:#010d0b"/><path d="M15.2822,801.8148l2.73706,4.60076c-1.29179.36039-2.18295.609-3.12256.8711a10.25685,10.25685,0,0,1-2.52717-1.18771C11.147,804.6016,11.53358,803.16652,15.2822,801.8148Z" style="fill:#010d0b"/></g></g></svg>