<svg xmlns="http://www.w3.org/2000/svg" viewBox="0 0 328.59 200.03" width="100%" height="100%" preserveAspectRatio="none"><defs><style>.a{fill:#102624}</style></defs><title>dt_footer_lockup</title><path class="a" d="M310.7 98.72c0-.24 8-1.13 9-1.28 1.38-.22 3.93-.36 5.07-1 1.29-.78.92-1.86.91-3.12-.06-5.76-2.09-11.52-3-17.25-.25-1.49-2.22-4.86-1.51-5.92.49-.73 2.28-1.07 2.92-1.91.84-1.1.8-2.64.89-3.91a64.81 64.81 0 0 1 .62-7.52c.54-2.91-.5-3-3.79-4 2.56-2.06 5.26-3.86 5.86-7 .33-1.66-.34-3.35-.23-5s.32-3.12.32-4.72a112 112 0 0 0-.61-11.8c-.37-3.51-1-7-.2-10.46a19 19 0 0 0 .33-5.37c-.06-1.68.66-3 1.1-4.62 1-3.54-.54-3-4.09-2.66a60.21 60.21 0 0 1-7.94 0c-1.86-.07-4.67-.72-6.46-.4-3.19.57-4 5.53-5.86 7.42-1-1.36-1.5-3.06-2.66-4.32-1.54-1.66-3.47-1.49-5.83-1.47-6.16 0-12.17.86-18.29 1-11.73.25-23.38.74-35.14.52-11.46-.22-23.18.18-34.58-.81a80.6 80.6 0 0 1-8.46-.9c-2.35-.46-3.59-1.62-4.53.49-.69 1.56-.7 3.64-2.39 4.74-1.1.71-4.56 2-5.65.94s-.35-4.82-2.49-5.48c-.89-.27-2.83.47-3.81.56a45.31 45.31 0 0 1-5.16.05c-3.23-.08-5.15-.85-6.25 1.84-.79 2-1.3 4.17-3.09 5.69q-1.25-2.74-2.39-5.5c-.83-2-.91-2.17-3.58-2.22a114.64 114.64 0 0 0-15.77.37c-11.48 1.4-22.52.24-34-.32-5-.25-10-.58-15.08-.75-5.38-.18-11.28-1-16.35.45a33.57 33.57 0 0 1-6.39.82 23 23 0 0 1-3.79.1c-.79-.07-2.1-.68-2.84-.56-1.94.31-3.42 3.49-5.23 3.49-1.63 0-3.77-3-5-3.82-3.43-2.43-10.55-1.7-14.9-1.89C34.67 1 29 .82 23.26.55 18.4.33 13.75.54 8.9.43 7.1.38 2.77-.39 1.21.25-.57 1 .14 3.73.13 5.44c0 4.23.88 8.46 1 12.69C1.35 23 .75 28 .51 32.88c-.44 9 .59 18.2.85 27.23.07 2.25-.25 4 1.39 5.76S4 69.1 4 71.23c0 1.81 0 3.63.15 5.44a9.73 9.73 0 0 1 .27 2.73c-.42 1.5-.34.6-1.68 1.23-.71.32-.82-.23-1.37.4s-.07 2.25-.07 2.84a55 55 0 0 0 .2 5.66c.2 1.82 0 3.39 1.78 4.55 2 1.34 5.18 2.27 7.44 3.42 2 1 3 1.36.49 2.21a33.94 33.94 0 0 1-6.8 1.17c-2.23.25-2.37 0-3 1.57-.83 2.18-.12 5.45-.21 7.74-.33 8.53-.15 17.06-1 25.59-.2 2.16-.1 4.35-.11 6.52 0 2.77 0 3 3.18 4.17 1.11.42 4.2 1.28 4.3 2.59.09 1.11-3.64 2.39-4.48 3.46-2 2.5-1.27 6.69-1.53 9.59-.44 4.89 0 9.89-.38 14.89-.31 4-.82 8-.84 12 0 2.21-.18 4.42-.27 6.63-.1 2.55.82 2.18 3.75 2.14 5.5-.06 10.88-1.06 16.37-1.33q9-.43 18-.71 4.83-.15 9.66-.14c2.11 0 4.82.57 6.84.37 2.43-.24 3.95-2.77 6.29-3.47 2.77-.82 3.81.61 5.62 2.14 2.16 1.83 2.71 2.49 5.7 2.34a86.71 86.71 0 0 1 8.95.48c6.2.34 12.44.13 18.65.13 12.89 0 25.7.8 38.59.74h18.47c1 0 3.36.33 4.24 0 1.59-.59 1.41-1.3 1.73-2.69.26-1.17.49-5.6 1.93-6.16 1.88 1 1.6 4.34 3.07 5.68s2.25 1 4.54.33c2.63-.73 2.64-1.75 5.2-.52a24.68 24.68 0 0 0 3.67 1.62c1.41.42 3.54.13 4.76.68 2.35 1.07 1.29 1.83 4.27 1.83s5.64.72 8.49.86c5.94.3 11.74-.37 17.65-.63 5.09-.22 10.19-.39 15.25-.84 5.65-.5 11.21-.14 16.84-.38a10.72 10.72 0 0 0 6.16-2 15.06 15.06 0 0 1 6.47-1.75 35.65 35.65 0 0 1 8.57.08 36.26 36.26 0 0 0 4.17.46c1.08 0 3-.54 3.88 0 1.73 1 .91 2.76 3.18 3.35s5.52-.22 8-.2c6 0 11.67 2.12 17.79 1.81a121.07 121.07 0 0 1 15.47-.19c2.23.17 4.34.94 5.05-1 .78-2.08-.64-5.44-.74-7.63-.21-4.44 1.2-8.68 1.73-13.07a65.63 65.63 0 0 0-.33-14.56c-.93-9-1.44-18.3-1.62-27.36-.05-2.55-.13-5.09-.29-7.64-.1-1.56.51-4.42-1-5.58-1.69-1.34-5.63-.4-5.16-2.94.34-1.84 3.27-3.71 4.73-5 2-1.76 1.61-3.41 1.45-5.71-.14-2.06.56-5.36-.29-7.29s-4.43-1.61-6.68-2q-4.22-.65-8.44-1.26s1.51.32 0 .1z"/></svg>