<svg xmlns="http://www.w3.org/2000/svg" viewBox="0 0 1200 143.87"><defs><style>.a{opacity:.6}</style></defs><title>dt_header_sublayer</title><path class="a" d="M1200 0H0v143.87c1.68-.19 3.19-.43 4.12-.46 6-.19 11.86.16 17.85-.21 7-.43 14.08-.69 21.12-1.09 5.37-.31 14.15.87 18.39-3.11 1.51-1.42 4.14-6.24 6.16-6.24 2.24 0 4.05 5.19 6.45 5.7.92.2 2.53-.79 3.51-.91a21.47 21.47 0 0 1 4.58.21 32 32 0 0 1 7.88 1.34c6.26 2.31 13.53 1 20.17.73 6.21-.28 12.4-.82 18.6-1.23 14.15-.92 27.76-2.8 41.93-.52 6.32 1 13.06.76 19.45.6 3.3-.08 3.4-.35 4.42-3.63q1.41-4.52 3-9c2.21 2.48 2.83 6.09 3.81 9.28 1.35 4.38 3.71 3.13 7.7 3a42.27 42.27 0 0 1 6.36.08c1.21.14 3.6 1.36 4.7.91 2.65-1.07 1.66-7.07 3.07-8.94s5.62.37 7 1.53c2.09 1.79 2.1 5.19 3 7.73 1.16 3.44 2.69 1.56 5.58.8a76.19 76.19 0 0 1 10.34-1.44c14.06-1.62 28.52-1 42.66-1.32 14.5-.36 28.88.45 43.35.85 7.55.21 15 1.54 22.56 1.62 2.92 0 5.29.3 7.19-2.41 1.44-2 2-4.83 3.27-7 2.34 3.07 3.26 11.17 7.2 12.1 2.21.52 5.56-.54 7.86-.65s4.72-.24 6.72-.16v-.36c1-.1 1.16-.21 1.82-.27 6.48-.6 12.46-.12 18.92.29 7.54.47 14.5-2.72 21.91-2.76 3 0 6.86 1.26 9.81.31 2.8-.9 1.79-3.63 3.92-5.11 1.14-.79 3.45.06 4.78 0a36.39 36.39 0 0 0 5.13-.71 35.48 35.48 0 0 1 10.55-.12c2.92.37 5.55.88 8 2.66 2.69 2 4.07 2.86 7.59 3 6.94.36 13.78-.18 20.73.58 6.24.69 12.51.95 18.77 1.29 7.27.4 14.41 1.41 21.73 1 3.51-.22 6.94-1.32 10.45-1.32 3.68 0 2.37-1.15 5.26-2.79 1.49-.85 4.12-.4 5.85-1a27.81 27.81 0 0 0 4.52-2.47c3.15-1.87 3.16-.32 6.4.79 2.82 1 3.83 1.48 5.58-.5s1.47-7.1 3.78-8.66c1.77.86 2.05 7.62 2.38 9.4.39 2.12.17 3.21 2.12 4.11 1.09.5 4 0 5.22 0h22.73c15.87.09 31.64-1.12 47.5-1.13 7.64 0 15.33.32 23-.2 3.66-.25 7.35-1 11-.73s4.37-.78 7-3.57c2.23-2.34 3.51-4.51 6.92-3.26 2.88 1.06 4.75 4.92 7.74 5.29 2.48.31 5.83-.56 8.43-.56q6 0 11.91.22c7.38.29 14.69.64 22.06 1.08 5.49.34 10.49 1.47 16.49 1.85v.18c3-.11 6.36.84 9.59.83 6.28 0 12.3-.66 18.56-1 7.7-.48 15.47.08 23.15-.47 4.5-.32 11 .55 14.91-1.91 1.66-1.06 3.66-5.73 5.39-5.62 2 .13 3.38 4 4 5.39 1.83 3.95 2.17 4 6.48 4 3.37 0 6.77.11 10.13-.16 13.25-1.08 26.5-.85 39.76-1.27 3.56-.11 8.65.78 12-.26 2.43-.75 2.05-.93 2.44-3.73a35.19 35.19 0 0 1 1.81-8.53c1.32-3.17 1.86-1.88 3.43.62 1.79 2.84 3.24 6.81 5.32 9.33 1.8 2.18 4.23 2 7.07 2.23s5.87.23 8.8.25c.92 0 3.62.47 4.42-.09 1-.68.12-.83.62-1.71.95-1.68-.42-1.62 1.91-2.15 1.17-.27 3 .28 4.25.34 2.81.15 5.64.14 8.45.19 3.32 0 5.69-.33 8.33 1.61s5.47 1.66 9 1.74c14 .33 28.32 1.62 42.34 1.07 7.62-.3 15.37-1 23-.82 6.23.19 12.83 1.23 18.83 1.29h1v-.12a8.78 8.78 0 0 1 1-.17c4.26-.76 8.39-.17 12.67.2 4.77.41 9.58.6 14.38.6 1.94 0 3.83-.22 5.75-.32s4.1.55 6.13.23c3.76-.6 6-3.25 8.47-5.76 1.24 3.23 1.33 4.26 4.87 3.73 3.13-.47 6-.43 9.16-.61 1.55-.09 3.42-.05 4.76-.88 1-.63 1.44-2.39 2.33-2.87 1.29-.7 5.39 1.24 7.21 1.48 7 .94 14 2.93 21 3 1.53 0 2.85.38 3.79-.89.84-1.12 1-3.63 1.28-5 .18-.92 1.27-8.85 1.56-8.81q.76 4.15 1.54 8.29c.42 2.21.2 5.79 2.38 6.56 2.35.84 6.37.15 8.88.29 2.8.15 4.82.58 7-1.43.26-.24.54-.53.83-.83z"/></svg>