<svg xmlns="http://www.w3.org/2000/svg" viewBox="0 0 1199 92.81"><defs><style>.a{opacity:0.5;}</style></defs><title>dt_header_top-layer</title><path class="a" d="M837 0H0v88.35c4.69 0 9.08 1.15 13.71 1.6a91.58 91.58 0 0 0 16.44-.32c10.23-.85 20.7-1.31 31-1.48 2.89 0 5.75-.12 8.64-.27 1.77-.09 5 .46 6.31-.88 1.52-1.54.46-5.15 3.32-4.72 2.08.31 4.19 3 5.61 4.32 2 1.87 3.86 1.47 6.47 1.33 2.33-.12 6.07.51 8.25-.27 2-.72 1.82-4 2.21-6.1q.73-3.85 1.43-7.71c.27 0 1.28 7.33 1.45 8.19.25 1.26.41 3.59 1.19 4.63s2.11.84 3.53.83c6.52-.06 13-1.91 19.52-2.78 1.69-.23 5.51-2 6.7-1.38.82.45 1.21 2.08 2.16 2.67 1.25.77 3 .73 4.43.82 2.9.17 5.6.13 8.51.56 3.3.49 3.38-.46 4.53-3.46 2.33 2.34 4.37 4.8 7.87 5.36 1.88.3 3.79-.31 5.7-.21s3.53.29 5.34.3c4.45 0 8.92-.18 13.36-.55 4-.34 8.12-.89 12.08-.18a4.78 4.78 0 0 0 1.28.16v.11h1c5-.06 11.37-1 17.16-1.2 7.09-.21 14.11.48 21.19.76 13 .52 26.22-.69 39.27-1 3.25-.08 5.71.29 8.29-1.62s4.64-1.45 7.72-1.5c2.61 0 5.23 0 7.84-.17 1.12-.06 2.86-.56 3.94-.31 2.16.49.89.44 1.77 2 .46.82-.33 1 .57 1.59.74.52 3.25.08 4.11.08 2.72 0 5.46 0 8.18-.23s4.9 0 6.57-2.07c1.93-2.34 3.28-6 4.94-8.67 1.46-2.32 2-3.52 3.19-.58a32.7 32.7 0 0 1 1.68 7.93c.36 2.6 0 2.77 2.26 3.46 3.14 1 7.87.14 11.18.24 12.32.39 24.64.17 37 1.18 3.12.25 6.28.15 9.41.15 4 0 4.32 0 6-3.7.6-1.3 1.85-4.89 3.74-5 1.61-.1 3.45 4.24 5 5.22 3.61 2.29 9.66 1.48 13.85 1.78 7.14.51 14.33 0 21.49.44 5.82.36 11.18 1 17 1 3 0 6.63-.87 8.63-.77v-.17c6-.4 10.46-1.4 15.63-1.71 6.85-.41 13.84-.74 20.7-1 3.69-.14 7.43-.21 11.11-.2 2.41 0 5.55.81 7.85.52 2.78-.34 4.53-3.93 7.21-4.91 3.17-1.16 4.37.86 6.44 3 2.47 2.59 3.1 3.53 6.53 3.32s6.84.45 10.24.68c7.09.48 14.23.18 21.34.18 14.75 0 29.4 1.13 44.15 1h21.13c1.14 0 3.84.47 4.85 0 1.82-.84 1.61-1.85 2-3.82.3-1.66.56-7.94 2.21-8.74 2.15 1.45 1.83 6.15 3.52 8s2.57 1.37 5.19.47c3-1 3-2.48 6-.74a25.85 25.85 0 0 0 4.2 2.29c1.61.59 4.05.18 5.44 1 2.69 1.52 1.47 2.59 4.89 2.59 3.26 0 6.45 1 9.71 1.23 6.79.42 13.43-.52 20.19-.89 5.82-.32 11.65-.56 17.45-1.2 6.46-.71 12.82-.2 19.27-.54 3.27-.17 4.55-1 7.05-2.83 2.24-1.66 4.68-2.13 7.4-2.48a33 33 0 0 1 9.81.11 33.81 33.81 0 0 0 4.77.66c1.24 0 3.38-.77 4.44 0 2 1.37 1 3.91 3.64 4.75s6.31-.31 9.11-.29c6.89 0 13.35 3 20.35 2.57 6-.38 11.57-.83 17.59-.27.61.06.68.16 1.68.25v.34c2-.07 4.14.05 6.26.15s5.28 1.09 7.34.6c3.66-.87 4.51-8.39 6.68-11.24 1.15 2.06 1.7 4.64 3 6.54 1.76 2.51 4 2.26 6.68 2.24 7.07-.07 13.95-1.31 21-1.5 13.45-.37 26.81-1.12 40.29-.79 13.14.33 26.58-.28 39.65 1.23a70.81 70.81 0 0 1 9.7 1.37c2.69.7 4.11 2.45 5.19-.75.79-2.36.8-5.52 2.75-7.18 1.26-1.08 5.22-3.08 6.48-1.42s.4 7.31 2.86 8.31c1 .42 3.24-.71 4.37-.85a39.3 39.3 0 0 1 5.91-.08c3.71.12 5.91 1.29 7.16-2.79.91-3 1.49-6.32 3.54-8.63q1.44 4.15 2.75 8.34c1 3 1 3.29 4.11 3.37 5.94.15 12.21.39 18.08-.56 13.16-2.12 25.81-.37 39 .49 5.76.37 11.52.88 17.29 1.14 6.17.27 12.93 1.47 18.75-.68a29.7 29.7 0 0 1 7.32-1.24 20 20 0 0 1 4.26-.2c.91.11 2.41 1 3.26.85 2.23-.47 3.92-5.3 6-5.3 1.87 0 4.32 4.48 5.72 5.8 3.94 3.7 12.09 2.61 17.09 2.89 6.54.37 13.09.61 19.63 1 5.57.34 10.79 0 16.35.19a32.93 32.93 0 0 1 3.59.43V0z"/></svg>