<svg xmlns="http://www.w3.org/2000/svg" width="312.945" height="12.291" viewBox="0 0 312.945 12.291"><g><g><path d="M232.17505,2.8914c-.03736-.10952-.09405-.40727-.14056-.392-.58308.1909-1.17158-.42311-1.76031.36266-.27884.37218-.62967.23343-.95281.44223a3.73965,3.73965,0,0,1-1.96668.51617c-1.45087.06714-2.9025-.02827-4.35335.0415-.7303.03512-1.45894.34742-2.18949.4224a20.734,20.734,0,0,0-2.24825.05962c-.461.09773-.8864-.3105-1.31649-.55422-.79542-.45075-.99744-.56746-1.91517.03877-.13908.09187-.2894.01279-.43451.01279a4.5852,4.5852,0,0,0-1.66773.03046c-2.20272.81833-4.41149.25421-6.61644.42962-.88781.815-1.79742.35147-2.69719.45353a1.723,1.723,0,0,1-1.77694-.83438,2.27888,2.27888,0,0,0-2.24856-.50993,8.54175,8.54175,0,0,0-.9531,1.20242,2.56155,2.56155,0,0,0-.76808-.29808c-1.28181-.02915-2.56391.02634-3.8455-.03467a11.71221,11.71221,0,0,1-1.39162-.41368c-.14685-.02683-.29912.24488-.4679.39708-.51628-.9136-1.16476.20983-1.6417-.547-.60015-.9523-1.09391.60683-1.63438.04185l-.18687-.62933a1.29725,1.29725,0,0,1,1.37649-.67419c1.427.01665,2.85419.05209,4.28085-.016.59345-.02832,1.15323.64455,1.75489.531.61115-.11531,1.20021-.72964,1.8266-.54678a4.98525,4.98525,0,0,0,1.81271.01691c.12618-.00971.25738-.45381.37395-.40466.25212.1063.44582-.43347.66733-.458.19571-.02164.39272.31886.59319.40829a1.1721,1.1721,0,0,0,.50724.01514c4.42609,0,8.85223-.03422,13.27825.02348,1.14087.01487,2.27639.517,3.42284.49872.62059-.00989,1.20719-.64983,1.8267-.54447.60292.10253,1.23073.34073,1.80821-.05647.76185-.524,1.51253-.29193,2.26731-.36538.74907-.07289,1.49963.02082,2.2491-.0266.70715-.04475,1.40193-.72359,2.11673-.44942.492-.825,1.02306-.39515,1.53635-.44123.66047-.0593,1.29994-.67821,1.97223-.51485.67327.1636,1.37042-.25978,2.02624.1158a4.3919,4.3919,0,0,0,2.12126.37007,4.091,4.091,0,0,0,2.17386-.0485,7.00958,7.00958,0,0,1,4.72934-.29337,38.69221,38.69221,0,0,0,6.61767.33244c2.2006.08921,4.40186-.00015,6.60274.04013.343.00628.68483.30559,1.02852.43384.32047.11959.63806-.10257.96516.40295.215.33223.52684.16076.78761.043.60012-.27095,1.16512.50242,1.75475.48382.58042-.0183,1.18577-.33374,1.73494.08194.64375.48728,1.2717.28329,1.90564.35725a2.9581,2.9581,0,0,0,1.95522-.0467c1.28871-.74865,2.57663-.16635,3.86174-.39648.83932.78606,1.70024.3952,2.55209.44848a5.30285,5.30285,0,0,0,2.53643-.05981,8.45129,8.45129,0,0,1,3.20813-.37912c1.08821-.04322,2.17673-.00655,3.26511-.01281.16161-.00093.311-.218.45956-.34022.47378-.38974.93547-1.03748,1.4753-.18668a2.63566,2.63566,0,0,0,2.89687.45948c.42884-.42357.78841-.15563,1.19506.01677a1.76407,1.76407,0,0,0,1.59144.0069c1.26145-.69393,2.5266-.23929,3.78775-.43488.31882-.04944.61923-.63252.9563-.44267.32208.18141.66108-.30125.97669.30643.28416.54713.6271-.11844.95049.539.20239.41142.58939.28761.84235-.01966.35319-.429.6455-.449.99455-.01053.20894.26244.507.33833.70539.06446.727-1.00343,1.42642-.30538,2.10928.26943.26674.22454.56779.43537.75293.16047.40042-.59459.79179-.294,1.18475-.37127.33731-.06636.6778.03375,1.0153-.02764.31286-.0569.59146.16332.84855.71086-.12013.19627-.24035.392-.4193.68324-.72782,0-1.52468-.026-2.32117.01664-.22472.012-.47478-.31605-.67671.40878-.042.15066-.219-.04851-.33056-.13009-.08631-.0631-.16758-.28084-.25122-.28155a3.31612,3.31612,0,0,1-1.83987-.921c-.11384-.0901-.2607-.14211-.35844.00883-.49947.77129-1.02647.39219-1.53962.41986-1.11225.06-2.22512.04458-3.33759.01063-.97518-.02976-1.93572.7924-2.91483.46792-.31316.6903-.71067.24432-1.05242.85422-.202.36055-.52039.06593-.78644.06593-.45954,0-.93636.25214-1.37519-.05-1.06836-.73564-2.154.03759-3.20467-.48661-1.051-.52431-2.09177-.28508-3.13642-.36542a7.40743,7.40743,0,0,0-3.18969.05845c-1.33839.486-2.68447-.0636-4.00248.46966-1.55854.63057-3.10779.22156-4.6599.34613a12.837,12.837,0,0,1-4.71295-.08093,23.87828,23.87828,0,0,0-3.78842-.34392c-.613-.08113-1.20242.64848-1.82722.48791a2.3744,2.3744,0,0,0-1.882.02612c-1.28824.75834-2.57575.25986-3.86188.3733a18.41039,18.41039,0,0,1-3.91728-.0292c-.50849-.06377-1.00905-.74426-1.51372-1.13757A5.37757,5.37757,0,0,1,247.034,2.46843c-.041-.05506-.09682-.02816-.144-.00407-.37928.19377-.7294.71843-1.15026.29118a1.10429,1.10429,0,0,0-1.12346-.265c-.68135.15581-1.35575.61879-2.04477.43064-.56538.89039-1.16877.356-1.75414.44068-.6034.08731-1.23067.33207-1.80758-.069-.57076-.39681-1.14235-.027-1.684-.41933-1.09291-.79158-2.18958-.1859-3.28087-.42-.18078-.03878-.37908.24983-.54072-.33271a.165.165,0,0,0-.269-.1054C232.90716,2.25353,232.58319,2.54828,232.17505,2.8914Z" style="fill:#fff;opacity:.30000000000000004"/><path d="M94.47916,6.37511c-.03736-.10952-.09406-.40727-.14056-.39205-.58308.19091-1.17158-.42311-1.76031.36267-.27885.37217-.62967.23342-.95281.44223a3.73978,3.73978,0,0,1-1.96669.51617c-1.45087.06713-2.9025-.02827-4.35334.0415-.7303.03511-1.45895.34742-2.18949.42239a20.73141,20.73141,0,0,0-2.24825.05963c-.46105.09772-.8864-.3105-1.3165-.55423-.79541-.45075-.99744-.56745-1.91516.03877-.13908.09188-.2894.0128-.43452.0128a4.58521,4.58521,0,0,0-1.66773.03046c-2.20271.81832-4.41148.25421-6.61643.42961-.88781.815-1.79743.35148-2.69719.45354a1.723,1.723,0,0,1-1.77694-.83439,2.27891,2.27891,0,0,0-2.24857-.50993,8.5431,8.5431,0,0,0-.95309,1.20243,2.56155,2.56155,0,0,0-.76808-.29808c-1.28182-.02915-2.56391.02634-3.8455-.03467a11.71042,11.71042,0,0,1-1.39162-.41369c-.14686-.02682-.29913.24489-.4679.39709-.51628-.9136-1.16476.20982-1.6417-.54695-.60015-.9523-1.09391.60682-1.63438.04185l-.18687-.62933A1.29724,1.29724,0,0,1,52.682,5.93874c1.427.01664,2.8542.05208,4.28086-.016.59345-.02833,1.15323.64455,1.75489.531.61115-.11531,1.2002-.72963,1.8266-.54677a4.98548,4.98548,0,0,0,1.81271.01691c.12618-.00971.25737-.45381.374-.40466.25211.1063.44582-.43348.66733-.458.19571-.02164.39271.31886.59319.40828a1.17194,1.17194,0,0,0,.50724.01515c4.42609,0,8.85223-.03422,13.27825.02348,1.14086.01487,2.27638.517,3.42283.49871.6206-.00988,1.2072-.64983,1.82671-.54447.60292.10254,1.23072.34073,1.8082-.05646.76186-.524,1.51254-.29193,2.26732-.36538.74907-.0729,1.49963.02082,2.2491-.02661.70714-.04474,1.40193-.72358,2.11673-.44942.492-.825,1.02306-.39514,1.53635-.44123.66047-.0593,1.29994-.6782,1.97223-.51484.67327.1636,1.37042-.25979,2.02623.1158a4.39216,4.39216,0,0,0,2.12127.37007,4.09106,4.09106,0,0,0,2.17386-.0485,7.00964,7.00964,0,0,1,4.72934-.29338,38.69116,38.69116,0,0,0,6.61767.33245c2.20059.08921,4.40186-.00016,6.60274.04013.343.00628.68483.30559,1.02852.43384.32047.11959.63806-.10258.96516.40295.215.33222.52684.16076.78761.043.60012-.271,1.16511.50243,1.75475.48383.58042-.01831,1.18577-.33375,1.73494.08194.64374.48727,1.2717.28329,1.90564.35725a2.95813,2.95813,0,0,0,1.95521-.0467c1.28872-.74865,2.57664-.16636,3.86175-.39648.83932.78606,1.70023.3952,2.55208.44848a5.30289,5.30289,0,0,0,2.53644-.05981,8.45129,8.45129,0,0,1,3.20813-.37912c1.08821-.04323,2.17673-.00655,3.26511-.01282.1616-.00093.311-.218.45956-.34022.47378-.38974.93547-1.03748,1.4753-.18667a2.63566,2.63566,0,0,0,2.89687.45948c.42883-.42357.78841-.15563,1.19505.01677a1.76409,1.76409,0,0,0,1.59145.0069c1.26145-.69394,2.5266-.2393,3.78775-.43488.31882-.04945.61923-.63253.9563-.44267.32208.18141.66108-.30125.97669.30643.28416.54713.6271-.11844.95049.539.20238.41141.58939.28761.84235-.01966.35319-.429.6455-.449.99454-.01054.20894.26245.507.33834.7054.06447.727-1.00343,1.42642-.30538,2.10927.26943.26675.22454.5678.43537.75294.16046.40042-.59458.79179-.294,1.18474-.37126.33731-.06636.67781.03375,1.01531-.02764.31285-.05691.59145.16332.84855.71086-.12013.19626-.24035.39194-.4193.68324-.72782,0-1.52468-.026-2.32117.01664-.22472.012-.47478-.31606-.67671.40877-.042.15067-.219-.0485-.33056-.13008-.08631-.0631-.16759-.28084-.25122-.28155a3.31618,3.31618,0,0,1-1.83987-.921c-.11384-.0901-.26071-.14211-.35845.00882-.49947.7713-1.02646.3922-1.53962.41987-1.11225.06-2.22512.04457-3.33758.01062-.97519-.02976-1.93572.79241-2.91483.46793-.31316.69029-.71068.24432-1.05242.85422-.202.36055-.5204.06592-.78645.06592-.45954,0-.93635.25215-1.37519-.05-1.06836-.73564-2.154.03759-3.20466-.48661-1.051-.52431-2.09177-.28508-3.13642-.36543a7.40759,7.40759,0,0,0-3.18969.05845c-1.33839.486-2.68448-.0636-4.00248.46966-1.55854.63058-3.10779.22157-4.65991.34614a12.83692,12.83692,0,0,1-4.71294-.08094,23.87944,23.87944,0,0,0-3.78842-.34391c-.61305-.08113-1.20242.64847-1.82722.4879a2.37444,2.37444,0,0,0-1.882.02613c-1.28825.75834-2.57575.25986-3.86189.37329a18.40963,18.40963,0,0,1-3.91727-.02919c-.50849-.06377-1.00905-.74427-1.51372-1.13758a5.37751,5.37751,0,0,1-1.30742-1.10081c-.041-.05506-.09682-.02816-.144-.00407-.37927.19377-.72939.71842-1.15025.29118a1.10427,1.10427,0,0,0-1.12346-.265c-.68135.1558-1.35576.61879-2.04477.43064-.56538.89038-1.16877.356-1.75414.44067-.6034.08732-1.23067.33207-1.80758-.069-.57077-.39682-1.14236-.02705-1.684-.41933-1.09291-.79159-2.18958-.18591-3.28087-.42-.18078-.03878-.37909.24983-.54072-.33271a.165.165,0,0,0-.269-.10539C95.21127,5.73724,94.88729,6.032,94.47916,6.37511Z" style="fill:#fff;opacity:.2"/><path d="M189.21241,4.83438c.09249.22589.23283.84.34795.80857,1.44334-.39374,2.90011.87263,4.35745-.748.69025-.76758,1.55868-.48142,2.35859-.91207a10.73287,10.73287,0,0,1,4.8683-1.06456c3.59147-.13845,7.18482.05831,10.77622-.08558,1.80778-.07243,3.61147-.71653,5.41984-.87116,1.854-.15854,3.71756.20333,5.56529-.123,1.14128-.20155,2.19419.64038,3.25885,1.143,1.969.92964,2.46905,1.17034,4.74079-.08.34426-.18948.71636-.02639,1.07558-.02639,1.377,0,2.76992.35763,4.12828-.06282,5.45257-1.68773,10.92014-.52428,16.37826-.886,2.19767-1.68084,4.44933-.72489,6.6766-.93538a4.639,4.639,0,0,1,4.3986,1.72085c.99821,1.15977,4.69793,1.672,5.56609,1.05169a18.58283,18.58283,0,0,0,2.35929-2.47991,7.15292,7.15292,0,0,0,1.90129.61477c3.173.06011,6.34667-.05433,9.51911.0715a33.50625,33.50625,0,0,1,3.4448.85319c.36352.05532.74045-.505,1.15823-.81895,1.278,1.88423,2.88323-.43275,4.06384,1.128,1.48562,1.96405,2.70787-1.25152,4.04573-.0863L296.084,4.3439a3.47058,3.47058,0,0,1-3.40733,1.39047c-3.53231-.03434-7.06523-.10742-10.59677.033-1.469.05841-2.85471-1.32935-4.344-1.09522-1.51283.23782-2.971,1.50481-4.52155,1.12768a14.773,14.773,0,0,0-4.48716-.03488c-.31234.02-.63711.93594-.92568.83457-.62408-.21922-1.10358.894-1.65191.94453-.48445.04464-.97211-.65761-1.46836-.84205a3.468,3.468,0,0,0-1.25562-.03123c-10.9563,0-21.91273.07057-32.86885-.04843-2.82408-.03067-5.63493-1.06622-8.47284-1.02856-1.53621.02039-2.98828,1.34022-4.52181,1.12293-1.49247-.21148-3.04652-.70273-4.476.11645-1.88588,1.08073-3.74412.60208-5.61248.75357-1.85424.15034-3.71217-.04294-5.5674.05487-1.75047.09229-3.47032,1.49233-5.23973.92689-1.218,1.70153-2.53249.81495-3.80308.91-1.63492.12231-3.21785,1.39875-4.882,1.06183-1.6666-.33741-3.39231.53579-5.01572-.23882-1.76369-.84155-3.5004-.67136-5.251-.76325-1.79542-.09425-3.6267-.61422-5.38114.1-3.90517,1.58983-7.836,1.28981-11.707.60506-5.46807-.96728-10.92236-.50124-16.38131-.68563-5.44733-.184-10.89631.00031-16.34436-.08277a10.2915,10.2915,0,0,1-2.546-.89476c-.79328-.24665-1.57944.21155-2.38913-.83105-.53212-.68519-1.30415-.33156-1.94964-.08874-1.48553.55881-2.88412-1.03621-4.3437-.99786-1.43675.03776-2.93525.68833-4.29464-.169-1.59353-1.005-3.148-.58427-4.7172-.73681-1.61432-.15692-3.27594-.66066-4.83993.09632-3.19008,1.544-6.37817.34309-9.55932.81771-2.07765-1.6212-4.20875-.81507-6.3174-.925-2.09465-.10916-4.22105-.61379-6.27867.12335-2.65437.95094-5.294.69429-7.94136.78191-2.69376.08915-5.38826.01351-8.08242.02643-.40005.00192-.76986.44963-1.13761.70168-1.17278.8038-2.31563,2.13971-3.65194.385-1.0967-1.44008-5.931-1.968-7.17087-.94764-1.06154.87358-1.95162.321-2.95823-.03459a5.155,5.155,0,0,0-3.93945-.01424c-3.12257,1.4312-6.25432.49354-9.37615.89692-.7892.102-1.53284,1.30453-2.36721.913-.79728-.37415-1.63643.62129-2.41769-.632C30.91889,6.81719,30.07,8.18988,29.26945,6.834c-.501-.84852-1.45895-.59318-2.08513.04054-.87429.88481-1.59787.926-2.46189.02173a1.1336,1.1336,0,0,0-1.74612-.133c-1.79967,2.06949-3.531.62981-5.22128-.55568-.6603-.46309-1.40552-.89792-1.86381-.331-.9912,1.22628-1.96.60628-2.93271.76571-.835.13686-1.67783-.06961-2.51327.057-.77444.11736-1.46408-.33684-2.1005-1.46609.29738-.40478.595-.80836,1.03794-1.40913,1.80164,0,3.77417.05369,5.74579-.03432.55627-.02483,1.17527.65184,1.67513-.84306.1039-.31073.542.1.81826.26829.21365.13013.41484.5792.62188.58068a8.93419,8.93419,0,0,1,4.55439,1.89953c.28179.18582.64534.29308.88728-.01821,1.23639-1.59073,2.5409-.80887,3.81117-.86594,2.75324-.12368,5.508-.09193,8.26182-.02191,2.414.06138,4.79166-1.63427,7.21533-.96506.7752-1.42368,1.75921-.50388,2.60516-1.76176.5001-.7436,1.28817-.136,1.94675-.136,1.13754,0,2.31784-.52,3.40414.10317,2.6446,1.5172,5.33186-.07753,7.9328,1.00359,2.60151,1.08136,5.17794.588,7.76385.75366,2.63275.16871,5.29554.66617,7.89572-.12054,3.313-1.0024,6.64513.13116,9.9077-.96864,3.858-1.30052,7.693-.457,11.53508-.71388,3.88909-.26007,7.8076-.77284,11.66638.16693,3.13924.76453,6.25491.365,9.37782.7093,1.51753.16732,2.97646-1.33744,4.52308-1.00628,1.54646.33113,3.154.68414,4.65877-.05387,3.18892-1.564,6.376-.53595,9.55967-.7699a54.64953,54.64953,0,0,1,9.69679.06021c1.2587.13152,2.4978,1.535,3.747,2.34616a13.04567,13.04567,0,0,1,3.23639,2.27035c.10154.11355.23966.05807.35636.0084.93886-.39964,1.80555-1.4817,2.84733-.60054a3.13922,3.13922,0,0,0,2.781.54663c1.6866-.32135,3.356-1.27621,5.06159-.88817,1.39954-1.83635,2.89317-.73416,4.34218-.90886,1.49365-.18008,3.04639-.68487,4.47446.14234,1.41288.8184,2.82779.05578,4.16851.86484,2.70539,1.63257,5.42008.38341,8.12143.86622.44751.08.93839-.51525,1.3385.68619a.43329.43329,0,0,0,.66587.21737C187.40016,6.14994,188.20212,5.542,189.21241,4.83438Z" style="fill:#010d0b"/><path d="M309.378,3.806c-1.41893.14141-2.8717-.11875-4.18038,2.22072-.28557.51045-.81361.4541-1.23.4541H299.8572c-.163,0-.32907-1.26872-.50038-1.73169.06247-.174.1225-.68862.19683-.71329.61415-.20381,1.29642.42606,1.73374-.84445.61715.26187,1.218.91431,1.69933.54066.42783-.33208.82374-.86617,1.29432-.84433,1.65776.07692,3.31588.08887,4.97351.17637A3.91,3.91,0,0,1,309.378,3.806Z" style="fill:#010d0b"/><path d="M7.06207,6.37271C4.71793,6.37271,2.61066,6.39.5037,6.33.37644,6.3264.25169,5.70752,0,5.04273a7.69943,7.69943,0,0,1,3.49626-.23635C4.62981,4.84537,5.82106,4.08659,7.06207,6.37271Z" style="fill:#010d0b"/><path d="M309.25926,4.037l3.09917-1.36216c.24276.64288.41021,1.08639.58678,1.554-.26686.43455-.51285,1.08446-.80006,1.2577C311.13651,6.095,310.16981,5.9026,309.25926,4.037Z" style="fill:#010d0b"/><path d="M146.37594,8.30118a4.0173,4.0173,0,0,0-.14056-.80857c-.58308.39374-1.17158-.87263-1.76031.748-.27885.76758-.62967.48142-.95282.91207a2.47,2.47,0,0,1-1.96668,1.06456c-1.45087.13845-2.9025-.05831-4.35334.08558-.7303.07243-1.45895.71653-2.18949.87116-.749.15854-1.50181-.20333-2.24825.123-.46105.20155-.8864-.64038-1.3165-1.143-.79541-.92964-.99744-1.17034-1.91517.08-.13907.18948-.28939.02639-.43451.02639-.55628,0-1.119-.35763-1.66773.06282-2.20271,1.68773-4.41148.52428-6.61644.886-.8878,1.68084-1.79742.72489-2.69719.93538-.60631.14184-1.19732-.05388-1.77693-1.72085-.40325-1.15977-1.89785-1.672-2.24857-1.05169a21.45356,21.45356,0,0,0-.9531,2.47991c-.27474-.22993-.52122-.60319-.76808-.61477-1.28181-.06011-2.56391.05433-3.8455-.0715-.4643-.04559-.92668-.67805-1.39162-.85319-.14685-.05532-.29912.50505-.46789.819-.51629-1.88423-1.16476.43275-1.6417-1.128-.60016-1.96405-1.09392,1.25152-1.63438.08631l-.18687-1.298c.443-1.46957.9087-1.40172,1.37648-1.39047a34.98739,34.98739,0,0,0,4.28085-.033c.59346-.05841,1.15324,1.32935,1.75489,1.09522.61115-.23782,1.20021-1.50481,1.8266-1.12768a2.48375,2.48375,0,0,0,1.81272.03488c.12617-.02.25737-.93594.37395-.83457.25211.21922.44582-.894.66733-.94453.19571-.04464.39271.65761.59319.842.166.15274.33793.03123.50724.03123,4.42609,0,8.85223-.07057,13.27825.04843,1.14086.03067,2.27638,1.06622,3.42283,1.02856.62059-.02039,1.2072-1.34022,1.82671-1.12293.60292.21148,1.23072.70273,1.8082-.11645.76185-1.08072,1.51254-.60208,2.26731-.75357.74907-.15034,1.49963.04294,2.2491-.05487.70715-.09229,1.40193-1.49233,2.11673-.92689.49205-1.70153,1.02307-.815,1.53636-.91.66047-.12231,1.29993-1.39875,1.97223-1.06183.67326.33741,1.37041-.53579,2.02623.23883.71249.84154,1.41408.67135,2.12127.76324.7253.09425,1.4651.61422,2.17385-.1,1.5776-1.58983,3.16558-1.28981,4.72935-.60506,2.209.96728,4.41238.50124,6.61767.68563,2.20059.184,4.40186-.00031,6.60274.08277.343.01295.68483.63026,1.02852.89477.32047.24664.63806-.21156.96515.831.215.68519.52685.33156.78761.08874.60012-.55881,1.16512,1.03621,1.75476.99786.58041-.03776,1.18577-.68833,1.73493.169.64375,1.005,1.27171.58427,1.90564.73681.65215.15692,1.32341.66066,1.95522-.09632,1.28872-1.544,2.57663-.34309,3.86175-.81771.83932,1.6212,1.70023.81507,2.55208.925.84619.10916,1.7052.61379,2.53643-.12335,1.07231-.95094,2.13866-.69429,3.20813-.78191,1.08822-.08914,2.17673-.01351,3.26511-.02643.16161-.00192.311-.44963.45957-.70167.47377-.80381.93546-2.13972,1.4753-.385.443,1.44008,2.396,1.968,2.89686.94764.42884-.87358.78841-.321,1.19506.03459.52275.45709,1.07491.60029,1.59145.01424,1.26144-1.4312,2.5266-.49354,3.78775-.89692.31881-.102.61923-1.30453.95629-.913.32208.37415.66108-.62129.97669.632.28416,1.12841.62711-.24428.9505,1.11159.20238.84852.58938.59318.84234-.04054.3532-.88481.64551-.926.99455-.02173.20894.54127.507.69779.70539.133.727-2.06949,1.42643-.62981,2.10928.55568.26675.46309.5678.89792.75293.331.40043-1.22628.7918-.60628,1.18475-.76571.33731-.13686.67781.06961,1.01531-.057.31285-.11736.59145.33684.84855,1.46609-.12014.40478-.24035.80836-.4193,1.40913a20.65681,20.65681,0,0,0-2.32117.03432c-.22472.02483-.47478-.65184-.67671.84306-.042.31073-.219-.1-.33056-.26829-.08631-.13013-.16759-.5792-.25123-.58068-.62919-.0111-1.23469-.91168-1.83987-1.89953-.11383-.18582-.2607-.29308-.35844.01821-.49947,1.59073-1.02646.80887-1.53962.86594a19.2071,19.2071,0,0,1-3.33759.02191c-.97518-.06138-1.93572,1.63427-2.91482.96506-.31316,1.42368-.71068.50388-1.05243,1.76176-.202.7436-.52039.136-.78644.136-.45954,0-.93635.52-1.37519-.10316-1.06836-1.5172-2.154.07752-3.20467-1.0036-1.05095-1.08136-2.09177-.588-3.13641-.75366-1.06358-.16871-2.13928-.66617-3.18969.12054-1.33839,1.0024-2.68448-.13116-4.00249.96864-1.55853,1.30052-3.10778.457-4.6599.71388-1.5711.26007-3.15409.77284-4.71294-.16693-1.26819-.76453-2.52684-.365-3.78843-.7093-.613-.16731-1.20242,1.33744-1.82722,1.00628s-1.27415-.68414-1.882.05387c-1.28825,1.564-2.57575.536-3.86189.7699a9.01144,9.01144,0,0,1-3.91728-.06021c-.50848-.13152-1.00905-1.535-1.51371-2.34616a9.2935,9.2935,0,0,1-1.30743-2.27035c-.041-.11355-.09681-.05807-.144-.0084-.37928.39964-.7294,1.4817-1.15025.60054-.34886-.7304-.75061-.72247-1.12347-.54663-.68134.32135-1.35575,1.27621-2.04476.88817-.56538,1.83635-1.16877.73416-1.75414.90886-.6034.18008-1.23067.68487-1.80758-.14234-.57077-.8184-1.14236-.05578-1.684-.86484-1.09292-1.63257-2.18959-.38341-3.28087-.86622-.18079-.08-.37909.51525-.54072-.68619-.04551-.33828-.18348-.34541-.269-.21737C147.10805,6.98562,146.78407,7.59352,146.37594,8.30118Z" style="fill:#0b1e24"/><path d="M94.70237,7.83654c.57321-.14141,1.1601-.4777,1.68877-2.81716.11536-.51046.32868-1.05056.49688-1.05056h1.66054c.06584,0,.13293,1.86517.20214,2.32814-.02524.174-.04949.98685-.07952,1.01151-.2481.20382-.52372-.27694-.70039.99357-.24931-.26187-.492-.83975-.68649-.46611-.17283.33208-.33277.90346-.52287.88162-.6697-.07693-1.33954-.07023-2.00919-.15774C94.73447,8.55749,94.71822,8.08729,94.70237,7.83654Z" style="fill:#010d0b"/><path d="M216.831,5.26983c.947,0,1.79827-.01729,2.64943.04269a9.05043,9.05043,0,0,1,.20349,1.28729c-.49809.508-.95793.27505-1.41241.23635C217.81358,6.79718,217.33234,7.556,216.831,5.26983Z" style="fill:#010d0b"/><path d="M94.75034,7.60553l-1.252,1.36216-.237-1.554A7.55237,7.55237,0,0,1,93.58451,6.156C93.992,5.54757,94.3825,5.73994,94.75034,7.60553Z" style="fill:#010d0b"/></g></g></svg>