<svg xmlns="http://www.w3.org/2000/svg" aria-hidden="true" role="presentation" viewBox="0 0 18.59 19.03"><path d="M18.25 8.64c0 1.53-.19 3.07-.23 4.6a.89.89 0 0 1-.15.4c-.41.67-.87 1.33-1.29 2a2.13 2.13 0 0 1-1.21 1c-.4.11-.78.28-1.18.39a57.65 57.65 0 0 1-6.42 1.67c-.3 0-.59.35-.89.35h-.23C6 18.54 5.3 18.43 4.73 18c-.29-.24-.67-.44-.94-.7-.65-.67-1.27-1.3-1.86-2a3.09 3.09 0 0 1-.76-1.15A31.3 31.3 0 0 1 0 7.76a1.57 1.57 0 0 1 .14-.86 17.36 17.36 0 0 1 2.49-3.39A6.18 6.18 0 0 1 5 1.7c.2-.06 1.7.72 1.9.65s-.51-1.14-.33-1.2C7.7.78 8.78.4 9.87 0a1.08 1.08 0 0 1 .64 0 6 6 0 0 1 1.39.65c1.63 1.09 3.23 2.22 4.84 3.35a2.78 2.78 0 0 1 1.47 2.07c0 .05.38.1.38.15v1.31c0 .37-.33.74-.34 1.11zm-2-2.88a.39.39 0 0 0-.12-.28c-.34-.21-.71-.38-1.06-.6-1.3-.88-2.63-1.66-3.92-2.53A1.25 1.25 0 0 0 10 2.14a22.19 22.19 0 0 0-5 1.94 3.43 3.43 0 0 0-.84.77 10.83 10.83 0 0 0-.69 1c-.32.56-.71 1.15-1.1 1.71a.74.74 0 0 0-.13.44c0 1 .06 2 .1 3 0 .43.05.85.1 1.27a2.67 2.67 0 0 0 .12.45c0 .16.05.36.15.47.29.3.61.55.92.82a18.65 18.65 0 0 0 3 2.3 1.84 1.84 0 0 0 .58.23c.1 0 .1 1.36.2 1.34s1.22-1.69 1.31-1.71c1.07-.27 1.6-.47 2.68-.73.56-.13 1.13-.24 1.7-.35s.84-.14 1.26-.24a.5.5 0 0 0 .33-.21 15.56 15.56 0 0 0 .92-2.64c.31-1.74.47-3.5.7-5.25-.03-.35-.02-.67-.04-.99zM13.7 9.42c-.24.16-.48.32-.48.48v.24c-.49 0-.58.24-.74.24-.08.16-.29.08-.37.24-.16 0-.39.24-.55.24-.08.16-.19.08-.27.24-.16 0-.34.24-.5.24-.08.16-.17.08-.25.24-.32.08-.41.16-.73.24-.08.16-.41.32-.49.48-.32.08-.41.16-.73.24-.08.16-.41.32-.49.48l-1.22.24c-.08-.24.08-.48 0-.72-.08 0 0-.72 0-.72v-1.19A7.82 7.82 0 0 1 6.15 7c.41-.26.4-.48.61-.94.93.08 1 .76 1.58.76h.24s.49.13.49.21c.32.08.65.3 1 .38 0 .08.49-.11.49.38h.73a.48.48 0 0 1 .49.49h1s.24.12.24.2c.24.08.24.14.49.22 0 .09.37.25.37.41s-.18.24-.18.31z"/></svg>