<svg xmlns="http://www.w3.org/2000/svg" viewBox="0 0 23.59 24.67" aria-hidden="true" role="presentation">
    <path d="M23.58 0a.82.82 0 0 1 0 .08v14.66c0 .29 0 .2-.16.4l-6.06 6.06-.05.05c-.18.18-.1.15-.37.15h-4.4c-.25 0-.18 0-.37.15l-2.9 2.9-.11.11a.17.17 0 0 1-.14.06H5.93a.35.35 0 0 1 0-.21v-2.99a.44.44 0 0 0-.22 0H0V4.5a1.19 1.19 0 0 1 .08-.43L1.52.23 1.6 0h21.95zM3.75 2.16V17.6a.6.6 0 0 0 0 .09h4.82v3.07a.41.41 0 0 0 0 .09l.17-.16 2.89-2.89a.33.33 0 0 1 .3-.13h5.51c.25 0 .18 0 .37-.15l3.45-3.45c.18-.18.15-.11.16-.37V2.17c-.17-.04-17.48-.04-17.67-.01z"></path>
    <path d="M9.66 6.46h2.12a.75.75 0 0 1 0 .09v6.3H9.66a.44.44 0 0 1 0-.21V6.67a.63.63 0 0 1 0-.21zm8.02 6.39h-2.11V6.53h2.1v6.28a.71.71 0 0 1 .01.04z"></path>
</svg>