<svg xmlns="http://www.w3.org/2000/svg" aria-hidden="true" role="presentation" viewBox="0 0 22.21 18.06"><path d="M19.94 4.5v.59a12.88 12.88 0 0 1-13 13 12.86 12.86 0 0 1-7-2 9 9 0 0 0 1.09.06 9.13 9.13 0 0 0 5.66-2A4.57 4.57 0 0 1 2.49 11a4.75 4.75 0 0 0 .86.08 1.87 1.87 0 0 0 .76-.16C2 10.46 0 8.62 0 6.41v-.06c0 .34 1.76.55 2.51.57a4.37 4.37 0 0 1-1.8-3.79 4.63 4.63 0 0 1 .72-2.3 13.08 13.08 0 0 0 9.45 4.77 4.49 4.49 0 0 1-.09-1 4.57 4.57 0 0 1 7.91-3.16 9.17 9.17 0 0 0 2.89-1.1 4.58 4.58 0 0 1-2 2.52 9.16 9.16 0 0 0 2.62-.72 9.24 9.24 0 0 1-2.27 2.36z"/></svg>