<svg xmlns="http://www.w3.org/2000/svg" viewBox="0 0 54.03 22.55" aria-hidden="true" role="presentation">
    <path d="M20.17 18.25h-2v-1.19A3 3 0 0 1 16 18.4a1.29 1.29 0 0 1-1.29-.83 4.34 4.34 0 0 1-.26-1.57V7.35h2v8.85c0 .3.18.41.44.41s.75-.34 1.18-1V7.35h2zm-7.23-3.45a4.07 4.07 0 0 1-.6 2.5A2.89 2.89 0 0 1 10 18.43a2.85 2.85 0 0 1-2.26-1.13 4 4 0 0 1-.62-2.5v-3.88a4.33 4.33 0 0 1 .65-2.6 2.58 2.58 0 0 1 2.26-1 2.72 2.72 0 0 1 2.26 1 4.34 4.34 0 0 1 .65 2.59zm-2-4.1c.06-1.08-.27-1.59-.94-1.59s-1 .51-.86 1.58V15c-.11 1.08.23 1.61.86 1.61s1-.54.86-1.61zm-3.34-7H5.28l-1.5 5.67-1.52-5.68H0C.46 5 2.7 12.31 2.7 12.31v5.93h2.15v-5.93zm33.69 5.4a1.52 1.52 0 0 0-1 .49v6.54a1.5 1.5 0 0 0 1 .49c.56 0 .82-.41.82-1.49v-4.65c-.05-1.08-.31-1.39-.87-1.39zm8 1.3c0-1-.26-1.3-.9-1.3s-.93.27-.93 1.28v1.19h1.83zm4.71-.35v2.43a48.32 48.32 0 0 1-.32 5.19 6.92 6.92 0 0 1-1.28 3.18 4.62 4.62 0 0 1-3.23 1.36c-4.51.32-11.27.33-11.27.33s-8.37-.08-10.95-.32a5.47 5.47 0 0 1-3.55-1.37 6.91 6.91 0 0 1-1.28-3.18 48.26 48.26 0 0 1-.32-5.19v-2.43a48.26 48.26 0 0 1 .32-5.19 6.91 6.91 0 0 1 1.28-3.18A4.62 4.62 0 0 1 26.66.32C31.16 0 37.92 0 37.92 0s6.77 0 11.28.32a4.62 4.62 0 0 1 3.23 1.36 6.92 6.92 0 0 1 1.28 3.18 48.32 48.32 0 0 1 .29 5.19zM28.9 5.84h2.37v-2h-6.79v2h2.26v12.4h2.16zm7.76 1.62h-2v8.2c-.43.61-.79 1-1.18 1S33 16.5 33 16.2V7.46h-2V16a4.34 4.34 0 0 0 .23 1.58 1.29 1.29 0 0 0 1.29.83 3 3 0 0 0 2.15-1.34v1.19h2zm7.44 3.24a7.56 7.56 0 0 0-.26-2.15 1.58 1.58 0 0 0-1.56-1.26 2.79 2.79 0 0 0-2.06 1.22V3.8h-1.94v14.45h1.94v-1.09a2.77 2.77 0 0 0 2.06 1.22 1.6 1.6 0 0 0 1.61-1.22 8.29 8.29 0 0 0 .22-2.16zm3.34 4.42v-1.94h3.89V11a4.23 4.23 0 0 0-.64-2.54 2.73 2.73 0 0 0-2.3-1.13 2.8 2.8 0 0 0-2.34 1.13A4.34 4.34 0 0 0 45.4 11v3.77a4 4 0 0 0 .68 2.49 2.79 2.79 0 0 0 2.36 1.1 2.7 2.7 0 0 0 2.36-1.17 2.78 2.78 0 0 0 .46-1.19 12.28 12.28 0 0 0 .07-1.27v-.31h-2v1.36a.84.84 0 0 1-.87.78c-.74.05-1.02-.45-1.01-1.45z"></path>
</svg>