<svg xmlns="http://www.w3.org/2000/svg" viewBox="0 0 58.4 28.66" aria-hidden="true" role="presentation">
    <path d="M23 11.05l-.43.86c.11.13.18.28.26.28h2.23A13.67 13.67 0 0 0 27.2 14v2c0 .27 1 .49 1 .73v2a7.46 7.46 0 0 0-2.46.79 9.47 9.47 0 0 0-1.62 1.74c.32.65.46 1.2.83 2-.34.18-.53.4-1 .66-.09-.12.27-.52-.73-1.22v1.66c-1 .52-.94-.46-1.4-.64-.42.37-1 .75-1.36 1.06-.64-.64-.92-1.31-1.61-2 .31 0 1.38-.09 1.38-.15v-1.42h-3.32c-.52 2-.53.89-1.38 1.09a7.44 7.44 0 0 0-.95-1.11c-.38-.37-1.24.11-1.41-.83a1.09 1.09 0 0 1 .09-.51 1.79 1.79 0 0 0 0-2.08 2.53 2.53 0 0 1-.1-2.77c.36-.62.49-1.35.82-2 .14-.26.52-.4 1-.71l.13-.83c.91-.53 1.81-1.11 2.76-1.6a2.86 2.86 0 0 1 2.84-.25A6.8 6.8 0 0 1 23 11.05zm-6.26 5c.15-.28.37-.35.42-.66s-.22-.28-.47-.68c-.32.87-.55 1.54-.73 2-.64.35-1.17.68-1.62.93-.28 1.68 1.29 2.09 1.86 3.12.05.09.31-.36.49-.32a3.05 3.05 0 0 0 .29-1.22h2.32c.19-1.01-1.8-1.76-2.59-3.22zm7.29.32c-.66.8-2.09.83-1.71 2.32l1.68.45 1.51-1.33a2 2 0 0 1 .32-1.53c.08-.16 0-.05-.05-.05h-1.7c-.19 0-.35 0-.51.19.19.19.3-.21.43-.07zM20.85 21c.4-.16 1.35-.33 1.35-.48v-1a5.52 5.52 0 0 1-1.52-1.33l-.38 1.73zm-3-8.3v.12h.36v-.12zm6.79-3.46c0-.09-.22-.81-.22-.9.33-.88-.28-1.49-.26-2.49 0-1.19.82-1.73 1-2.91a.93.93 0 0 1 .41-.6A5.45 5.45 0 0 1 26.62 2c.43.94.84 1.9 1.31 2.83.22.44.28.77-.22 1a1.22 1.22 0 0 0-.31.29c-.51.58-.51.58 0 1.18.35.42.7.85 1.07 1.26a.4.4 0 0 0 .63 0c.49-.45 1-.89 1.52-1.29a.46.46 0 0 0 .17-.68c-.19-.36-.4-.72-.57-1.09-.43-.91-.75-1-1.58-.42h-.15l-1.28-3.43a1.59 1.59 0 0 1 .24-.12C29.3 1 31.16.58 33 .09a2.5 2.5 0 0 1 2.41.66 18.3 18.3 0 0 0 2.34 2A16.76 16.76 0 0 1 39.68 4c.76.57.76.56.48 1.47a1.23 1.23 0 0 0 0 .17C40 6.69 40 8.2 39.82 9.27a3.22 3.22 0 0 0 0 1.47.82.82 0 0 1-.57 1.16c-.67.28-1.34.54-2 .84s-.79.26-1.25-.24c-.19-.21-.36-.44-.56-.64a.37.37 0 0 0-.59 0 .79.79 0 0 0 0 .56 1.09 1.09 0 0 0 .3.4.54.54 0 0 1 .09.71c-.56 1.11-.88 2.64-1.43 2.64h-.26c-.64 0 0 .27-.61.16a10.84 10.84 0 0 0 0-1.22c0-.16-.22-.24-.33-.39-.13.12-.35.26-.39.41-.13.43-.19.9-.28 1.37-.43 0-2.37.16-2.81.16-.28 0-.36-.12-.4-.37-.17-1-.34-2.26-.55-3.24a1.81 1.81 0 0 1 .38-1.65c.08-.1 0-.3 0-.45a1.1 1.1 0 0 0-.43 0 5.77 5.77 0 0 0-.84.5.91.91 0 0 1-1.17.05c-.32-.23-.69-.4-1-.64-.48-.36-.34-.95-.45-1.63zm12.72-.9a.89.89 0 0 1-.13-.18c-.2-.57-.41-1.13-.59-1.71-.09-.27-.27-.41-.51-.27a17.64 17.64 0 0 0-1.66 1.07c-.41.3-.39.41-.06.8a1.35 1.35 0 0 1 .13.26 10.33 10.33 0 0 0 .5.93c.08.12.29.26.4.23A6.11 6.11 0 0 0 36.53 9a6 6 0 0 0 .72-.51.89.89 0 0 0 .14-.16zm-5.91 3c.32.06.63.15.95.24s.43 0 .43-.25a7.91 7.91 0 0 0-.12-1.08 1.33 1.33 0 0 0-.1-.32c-.06-.13-.1-.34-.19-.36a.51.51 0 0 0-.41.15c-.3.33-.57.7-.8 1s-.07.53.27.59zM42 23.37h-.11l-.74-.29v-.15l.21-.34a.42.42 0 0 0-.31-.38.16.16 0 0 0-.19.08c0 .14-.1.28-.14.42s-.11.26-.34.23a10.44 10.44 0 0 0-1.07-.08.19.19 0 0 1-.18-.09v-.42a.58.58 0 0 0-.06-.17.13.13 0 0 0-.07-.08.26.26 0 0 0-.24.24v.44c0 .04 0 0-.07 0l-.59.08a.17.17 0 0 1-.18-.15 6.8 6.8 0 0 1 0-1.19 1.21 1.21 0 0 1 .13-.38 1.7 1.7 0 0 1 .29-.51.22.22 0 0 0 0-.21.21.21 0 0 0-.24-.05l-.16.09-.63.39a.46.46 0 0 1-.46 0 4.42 4.42 0 0 1-1.37-.85 1.78 1.78 0 0 1-.12-.14.71.71 0 0 1-.1-.73c0-.09.07-.18.1-.28a4.14 4.14 0 0 1 .26-.73.67.67 0 0 0 .06-.43 1.22 1.22 0 0 1 0-.33c0-.21 0-.42.06-.63 0-.42.07-.84.06-1.26v-.48a.3.3 0 0 1 .18-.27c.15-.08.29-.18.45-.26a2.76 2.76 0 0 1 .46-.15.35.35 0 0 1 .12 0c.21.33.33.72.56 1a.28.28 0 0 0 0-.17V14.1a.22.22 0 0 1 .18-.21 2 2 0 0 0 .5-.12c.47-.14.95-.29 1.43-.42s1-.24 1.56-.34a2.34 2.34 0 0 1 .52 0 .84.84 0 0 1 .44.17l.35.27.85.72s.09.06.1.1a1 1 0 0 0 .5.42 5.5 5.5 0 0 1 1.07.73 5.89 5.89 0 0 0 .72.59h.06a.47.47 0 0 1 .19.59 4.6 4.6 0 0 0-.17.8 4.42 4.42 0 0 0-.1.77 4.53 4.53 0 0 1-.07.55c0 .2-.07.39-.11.59a1.26 1.26 0 0 0 0 .63c0 .08 0 .17.07.25a.47.47 0 0 1-.16.53.6.6 0 0 1-.18.13c-.27.12-.53.26-.82.36a3.84 3.84 0 0 0-.74.34.33.33 0 0 1-.35 0 1.08 1.08 0 0 1-.29-.23l-.12-.26a1.22 1.22 0 0 0-.19-.17.26.26 0 0 0-.34 0 .3.3 0 0 0-.06.34 1.88 1.88 0 0 0 .13.18 1.92 1.92 0 0 1 .25.36 8.88 8.88 0 0 1-.62 1.43.58.58 0 0 1-.09.11zm1.82-6.19c-.58.18-1.09.42-1.62.62a.5.5 0 0 0-.2.2.23.23 0 0 0 0 .14 4.87 4.87 0 0 0 .3 1 1.31 1.31 0 0 0 .29.42.26.26 0 0 0 .31.06l.36-.19a8.53 8.53 0 0 1 1-.59.25.25 0 0 0 .14-.28c0-.19-.09-.39-.13-.58a2.7 2.7 0 0 0-.43-.81zm-5.14.07c-.41.25-.77.51-1.13.77v.08c.14.18.27.37.42.55a1.41 1.41 0 0 0 .26.21.24.24 0 0 0 .21 0c.78-.59.83-.64 1-.93l-.35-.33c-.09-.08-.22-.25-.39-.35zm2.07 3.55c.17-.07.21-.12.21-.26a1 1 0 0 0 0-.18c-.06-.24-.11-.48-.18-.72a.46.46 0 0 0-.1-.15.16.16 0 0 0-.26 0 2.3 2.3 0 0 1-.28.34 2 2 0 0 0-.22.3 1 1 0 0 0-.1.24c0 .16 0 .26.2.26a.4.4 0 0 1 .25.06h.1c.03 0 .27.08.4.1zM39 23.52a1 1 0 0 1-.4-.06 1.33 1.33 0 0 0-.58-.08h-.89l-.55.08a.28.28 0 0 0-.2.28 3.08 3.08 0 0 0 .17.68.48.48 0 0 0 .35.3 2.31 2.31 0 0 0 .55.06h.56l.29.16h.11a4.84 4.84 0 0 1 .92.08 4.21 4.21 0 0 0 .74.08 3.12 3.12 0 0 1 .37 0l.26.06a.62.62 0 0 0 .17-.07.72.72 0 0 1 .34-.14.57.57 0 0 0 .42-.34c.07-.14.13-.29.22-.43a.25.25 0 0 0-.1-.32l-.14-.06a3.91 3.91 0 0 0-.43-.11l-1-.14a.15.15 0 0 0-.14 0c-.05.07 0 .17 0 .25s0 .17-.06.25a.27.27 0 0 1-.28.15.23.23 0 0 1-.2-.19v-.56a.78.78 0 0 0-.5.07zm-10.65 2.36c.25-.16-.15-.26.85-.37v-.31c-1-.05-.47-.21-.62-.28a2.22 2.22 0 0 1-.86.29h-.5c-.31 0-.55-.49-.92-.7-.19-.11-.3-.33-.47-.56a1.37 1.37 0 0 0 .48-1.24 5.15 5.15 0 0 1 .13-.77 3.85 3.85 0 0 1 .12-.71 4 4 0 0 0 0-1.11l1.1-.22a1.49 1.49 0 0 1 .69-.24 10.89 10.89 0 0 0 2.31-.49 5.47 5.47 0 0 1 1.22-.24c.84.63 1.75 1.07 2.59 1.61a2.07 2.07 0 0 1 .78.85 1.55 1.55 0 0 0 .27.32c-.09.44-.2.89-.31 1.33a4.23 4.23 0 0 1-.37 1.31c.28.45 0 .94.15 1.38-.46.55-1.15.54-1.72.82l-.87-.94-.38.28a6.58 6.58 0 0 0 .46.87.37.37 0 0 1 .07.44c-.12.39-.28 1-.42 1h.07v-.28h-.41c-.12.23 0 .45-.1.73-.26-.06-.48-.11-.48-.17v-1.27h-1.34c-.06 1-.14.59-.24.75a2.86 2.86 0 0 1-1.18-.06c-.07-.4 0-.68-.06-1s.02-.65-.04-1.02zm-1.08-3c.32.63.85.72 1.32.89a5.82 5.82 0 0 0 .49-.35c.17-.15.32-.6.48-.76a2.61 2.61 0 0 1-.92-1.42h-.31c-.31 1-.54.89-.92 1.07-.09.02-.11.48-.14.53zm5.25 1.82l1.06-.74c0-.51-.43-.78-.64-1.2l-1.33.38v.23c.29.39.58.81.91 1.29zm-1.87 1.77c.07-.1.43-.19.43-.28V25c0-.07-.35-.12-.4-.16s-.34.11-.45.16c-.09.34-.12.69-.22 1.06.17.13.41.24.64.37zM7.93 20.73l-1.07-.35a.21.21 0 0 0-.25.07 8 8 0 0 0-.49.93c-.11.24-.25.47-.37.71a.18.18 0 0 1-.17.08 3.37 3.37 0 0 1-1-.28.41.41 0 0 0-.29 0 4.41 4.41 0 0 0-.66.23 8.29 8.29 0 0 0-1.18.65.32.32 0 0 1-.18.07s-.07 0-.07-.05a.47.47 0 0 1 0-.1c0-.15.05-.3.08-.44.08-.42.17-.85.25-1.27s.13-.79.2-1.18a.65.65 0 0 0 0-.15.43.43 0 0 0 0-.14.57.57 0 0 0-.08-.12 3.1 3.1 0 0 0-.92-.75.31.31 0 0 0-.24 0 .29.29 0 0 1-.31-.11A2.18 2.18 0 0 1 .77 18l-.66-1.29a2.54 2.54 0 0 1-.1-.28.16.16 0 0 1 0-.14l.16-.12.61-.34.93-.48a7.54 7.54 0 0 0 1.73-1.15l.56-.47a.42.42 0 0 1 .31-.22l.14-.05h.1l.69.06h.25c.53.12 1.07.24 1.59.42l.38.12a5.18 5.18 0 0 1 1.78 1 1.12 1.12 0 0 1 .29.34l.08.13a1.63 1.63 0 0 1 .19.47 1.77 1.77 0 0 1 0 .45 10.88 10.88 0 0 0 .08 1.89 3 3 0 0 0 .24.86 5.08 5.08 0 0 1 .26.75.53.53 0 0 1 0 .15.15.15 0 0 1-.07.13l-.3.17-.38.24a.24.24 0 0 0-.1.22v.2s-.06.09-.1.09a1.28 1.28 0 0 1-.29 0h-.29c-.1 0-.11-.05-.21-.08l-.69-.22zm-3-3.3a2.6 2.6 0 0 0-.28-.53 1.27 1.27 0 0 0-.26-.36 2.87 2.87 0 0 0-.39-.28L3.59 16h-.1a.15.15 0 0 0-.13 0c-.06.1-.13.19-.19.29s-.14.26-.21.4-.31.55-.46.83a1.12 1.12 0 0 0-.05.14.15.15 0 0 0 0 .13l.09.05a3.63 3.63 0 0 1 1.18.9l.07.07a.12.12 0 0 0 .13 0 .48.48 0 0 0 .12-.16 4.44 4.44 0 0 1 .84-1.17zm3.4.7l.06-.27a.18.18 0 0 0-.06-.13 2 2 0 0 0-.61-.22.59.59 0 0 0-.3 0l-.57.18a.48.48 0 0 1-.25 0h-.1a.74.74 0 0 0-.53.06.09.09 0 0 0 0 .08 2.87 2.87 0 0 0 .22.5 8.73 8.73 0 0 0 .51 1 2.86 2.86 0 0 0 .32.44.71.71 0 0 0 .16.12.2.2 0 0 0 .23 0 1.31 1.31 0 0 0 .13-.15 6.45 6.45 0 0 0 .82-1.61zm-3.52 1.54l-.11.28v.09a.43.43 0 0 0 .28.08.19.19 0 0 0 .12-.08.74.74 0 0 0 0-.14c0-.25.05-.49.08-.74L5.17 19a2.12 2.12 0 0 0-.36.67zm51.76 1.58a1.93 1.93 0 0 0 0 .29 1.2 1.2 0 0 1-.18 1c-.11.16-.18.34-.27.52l-.21.36a2.72 2.72 0 0 0-1-.26c-.12 0-.12-.1-.13-.18s0-.37-.07-.55a1.1 1.1 0 0 0-.09-.25h-.07a.07.07 0 0 0 0 .05v.73c0 .04-.05.17-.19.17a3.88 3.88 0 0 0-.85.08c-.1 0-.14 0-.16-.1l-.15-.69a.21.21 0 0 0-.06-.11A1.42 1.42 0 0 0 53 23a.41.41 0 0 1 0 .12s0 .08-.06.09l-.54.1c-.08 0-.12 0-.15-.1s-.14-.31-.2-.46-.19-.47-.29-.7a.2.2 0 0 1 .08-.27l.27-.19a2.25 2.25 0 0 0 .23-.2l.31-.34c-.11 0-.19 0-.28.06a4.48 4.48 0 0 0-1 .61 1 1 0 0 1-.54.17h-.48a.16.16 0 0 1-.11 0c-.07-.07-.13-.16-.19-.23a4.15 4.15 0 0 1-.5-.7 2.83 2.83 0 0 0-.34-.44l-.09-.09c-.16-.2-.15-.17 0-.35a8.46 8.46 0 0 1 .85-1c.11-.1.11-.24.18-.36s0-.08 0-.12a1.63 1.63 0 0 0-.39-.75.42.42 0 0 1-.08-.51c.17-.38.33-.75.49-1.13a.6.6 0 0 1 .36-.33l2.93-1.15a2 2 0 0 1 .51-.12 6.79 6.79 0 0 1 .88 0 5 5 0 0 1 .67.11c-.12.25-.23.49-.36.72s-.27.5-.42.75a.44.44 0 0 0 0 .29 1.52 1.52 0 0 0 .16-.14l1-1.19.08-.1a.12.12 0 0 1 .16 0c.22.08.44.16.66.26a.37.37 0 0 1 .15.16 5.49 5.49 0 0 0 .71 1 5.87 5.87 0 0 1 .81 1.12.14.14 0 0 1 0 .2l-.46.5a.34.34 0 0 0-.1.39 3.74 3.74 0 0 0 .26.7 2.3 2.3 0 0 1 .16.5c.06.18.11.37.17.55a.13.13 0 0 1 0 .14L58 21a.49.49 0 0 1-.39.2h-.41zm-5.29-3.18a7 7 0 0 0 1 .9.64.64 0 0 0 .62.07c.38-.13.73-.33 1.12-.43.15 0 .17-.18.08-.31a1.47 1.47 0 0 1-.14-.17 4 4 0 0 0-.74-.89c-.18-.18-.26-.21-.49-.09s-.55.32-.83.49zm5.53-.29a5.63 5.63 0 0 0-.66.76v.11c0 .03.17.29.24.44a.55.55 0 0 0 .33.29l.24.07a.23.23 0 0 0 .3-.26 1.27 1.27 0 0 0-.06-.22l-.3-.85c-.02-.12-.05-.21-.09-.35zm-1.5 2.66l-.31-.96a.13.13 0 0 0-.15-.1c-.08 0-.08.08-.09.13a3.45 3.45 0 0 1-.29.82c0 .07-.07.15-.11.23a.12.12 0 0 0 0 .18.14.14 0 0 0 .18 0 .94.94 0 0 0 .1-.11.21.21 0 0 1 .31-.06l.11.06h.14a.18.18 0 0 0 .11-.2z"></path>
</svg>