<svg viewBox="0 0 1436 6" preserveAspectRatio="none" fill="none" xmlns="http://www.w3.org/2000/svg"><path d="M735.03 2.99999C735.2 3.19999 735.38 3.33999 735.57 3.40999C737.8 3.20999 770.05 3.83999 772.29 3.02999C773.36 2.63999 774.7 2.78999 775.93 2.56999C778.38 2.10999 830.93 2.10999 833.45 2.03999C839 1.96999 874.56 2.03999 880.08 2.03999C882.87 2.03999 915.63 1.68999 918.45 1.60999C921.26 1.52999 954.18 1.70999 957.03 1.53999C958.79 1.43999 990.42 1.85999 992.08 2.10999C994.51 2.64999 1046.96 2.64999 1049.4 2.10999C1049.94 2.01999 1050.51 2.10999 1051.06 2.10999C1053.19 2.10999 1055.34 2.28999 1057.43 2.10999C1065.85 1.26999 1124.28 1.85999 1132.71 1.66999C1136.1 0.829994 1139.58 1.30999 1143.02 1.20999C1145.29 1.02999 1167.56 1.31999 1169.81 2.06999C1172.63 2.66999 1235.52 2.84999 1238.39 2.59999C1239.7 2.28999 1270.91 1.73999 1272.03 1.34999C1273.08 1.45999 1274.05 1.64999 1274.96 1.65999H1319.65C1321.43 1.65999 1353.19 1.99999 1354.97 2.08999C1355.58 1.98999 1356.18 1.81999 1356.75 1.57999C1358.72 2.51999 1391.2 1.35999 1393.03 2.13999C1395.32 3.11999 1407.21 1.50999 1409.27 2.13999L1409.98 2.78999C1408.29 3.38999 1396.5 3.61999 1394.72 3.47999C1389.27 3.47999 1323.82 3.41999 1318.37 3.47999C1316.1 3.47999 1283.96 2.81999 1281.67 2.93999C1279.37 3.05999 1277.09 3.68999 1274.69 3.49999C1272.4 3.31999 1210.07 3.42999 1207.76 3.49999C1207.26 3.49999 1206.75 3.96999 1206.33 3.91999C1205.36 3.80999 1204.63 4.36999 1203.8 4.38999C1203.05 4.38999 1172.28 4.05999 1171.53 3.96999C1170.9 3.88999 1170.24 3.96999 1169.59 3.96999H1048.86C1044.5 3.96999 960.16 3.43999 955.78 3.45999C953.41 3.45999 921.17 4.11999 918.8 4.01999C916.5 3.77999 884.19 3.79999 881.89 4.07999C878.98 4.61999 876.11 4.37999 873.23 4.44999C870.35 4.51999 837.5 4.44999 834.65 4.44999C831.95 4.44999 779.3 5.18999 776.57 4.90999C774.69 5.75999 772.66 5.31999 770.7 5.35999C768.18 5.41999 735.73 6.04999 733.17 5.88999C730.61 5.72999 677.93 6.14999 675.43 5.76999C672.71 5.34999 650.03 5.43999 647.35 5.38999C644.68 5.34999 641.76 5.07999 639.05 5.38999C633.02 6.17999 546.96 6.03999 540.98 5.69999C532.48 5.18999 434.06 5.37999 425.66 5.37999H400.42C399.11 5.37999 397.8 5.05999 396.49 4.92999C395.25 4.98999 394 4.84999 392.8 4.50999C391.8 4.27999 390.77 4.27999 389.77 4.50999C387.48 4.79999 365.32 3.98999 363.07 4.01999C360.82 4.04999 358.53 4.35999 356.44 3.92999C353.98 3.42999 331.58 3.63999 329.16 3.56999C326.74 3.48999 314.11 3.23999 311.69 3.56999C306.76 4.33999 281.84 3.74999 276.93 3.97999C273.72 3.17999 250.44 3.56999 247.18 3.51999C243.92 3.45999 240.67 3.21999 237.49 3.58999C233.39 4.05999 209.32 3.93999 205.23 3.98999C201.15 4.02999 196.91 3.98999 192.76 3.98999C192.16 4.03999 191.58 4.15999 191.01 4.33999C189.2 4.73999 167.44 5.43999 165.37 4.52999C163.68 3.80999 156.22 3.54999 154.3 4.05999C152.79 4.36999 131.27 4.36999 129.76 4.05999C127.75 3.79999 125.71 3.79999 123.7 4.05999C118.88 4.77999 94.05 4.29999 89.23 4.50999C88.01 4.50999 66.87 5.15999 65.58 4.95999C64.29 4.75999 63.05 5.26999 61.85 4.63999C60.76 4.07999 59.45 4.75999 58.21 4.08999C57.17 3.71999 44.03 3.71999 42.99 4.08999C41.76 4.52999 39.42 4.52999 38.19 4.08999C37.32 3.78999 36.38 3.76999 35.5 4.01999C32.72 5.04999 30.05 4.32999 27.42 3.72999C26.49 3.42999 25.5 3.37999 24.54 3.56999C23.03 4.18999 21.51 3.87999 20 3.95999C18.71 4.02999 17.41 3.95999 16.12 3.95999C15.03 4.03999 13.94 3.77999 12.88 3.19999L14.48 2.49999H23.35C24.21 2.49999 25.16 2.81999 25.94 2.06999C26.37 2.00999 26.8 2.05999 27.2 2.20999C27.53 2.27999 27.84 2.49999 28.16 2.49999C30.56 2.49999 32.88 2.94999 35.19 3.44999C35.64 3.57999 36.11 3.57999 36.56 3.44999C38.47 2.65999 41.48 3.04999 43.45 3.01999C47.7 2.94999 83.95 3.01999 88.2 3.01999C91.93 3.01999 95.6 2.20999 99.34 2.53999C100.54 1.82999 122.06 2.28999 123.38 1.65999C124.15 1.29999 125.37 1.58999 126.38 1.58999C128.14 1.58999 129.96 1.33999 131.64 1.63999C135.72 2.39999 159.87 1.63999 163.88 2.13999C167.89 2.63999 191.87 2.43999 195.86 2.52999C199.93 2.60999 224.04 2.85999 228.05 2.45999C233.16 1.95999 238.31 2.52999 243.34 1.96999C249.27 1.27999 275.19 1.68999 281.12 1.56999C287.05 1.44999 323.17 1.17999 329.11 1.64999C333.96 2.03999 358.76 1.83999 363.59 1.99999C365.93 2.08999 388.18 1.33999 390.57 1.49999C392.96 1.77999 395.37 1.77999 397.76 1.49999C402.69 0.679994 407.61 1.19999 412.53 1.07999C417.45 0.959994 462.52 0.949994 467.5 1.07999C469.44 1.14999 471.36 1.84999 473.29 2.25999C474.96 2.60999 496.68 2.80999 498.28 3.35999C498.46 3.40999 498.65 3.40999 498.83 3.35999C500.28 3.15999 501.62 2.61999 503.22 3.05999C504.65 3.37999 536.08 3.46999 537.52 3.32999C540.12 3.16999 562.7 2.68999 565.33 2.87999C567.47 2.08999 579.78 2.57999 582.01 2.48999C584.31 2.25999 636.62 2.28999 638.92 2.56999C641.1 2.97999 643.29 2.56999 645.35 2.99999C649.53 3.80999 673.72 3.18999 677.89 3.42999C678.58 3.42999 729.34 3.17999 729.96 3.76999C730.27 3.92999 730.63 3.96999 730.97 3.87999C732.24 3.65999 733.47 3.35999 735.03 2.99999ZM1430.5 2.48999C1428.31 2.56999 1426.07 2.21999 1424.05 3.38999C1423.42 3.51999 1422.78 3.51999 1422.15 3.38999H1415.8C1415.53 3.26999 1415.26 3.04999 1415.03 2.73999C1415.11 2.62999 1415.22 2.53999 1415.34 2.48999C1416.28 2.38999 1417.36 2.74999 1418.02 2.12999C1418.87 2.36999 1419.76 2.46999 1420.64 2.42999C1421.29 2.19999 1421.97 2.06999 1422.66 2.01999C1425.22 2.01999 1427.77 2.01999 1430.33 2.10999C1430.38 2.10999 1430.44 2.36999 1430.5 2.48999ZM10.9 3.77999H0.8C0.49 3.60999 0.22 3.38999 0 3.11999C1.9 2.86999 3.66 2.97999 5.4 2.99999C7.14 3.01999 8.98 2.62999 10.9 3.77999ZM1430.31 2.60999L1435.09 1.92999L1435.99 2.70999C1435.61 2.96999 1435.2 3.18999 1434.76 3.33999C1433.27 3.71999 1431.76 3.46999 1430.31 2.60999Z" fill="#86816E"/></svg>
