<svg xmlns="http://www.w3.org/2000/svg" fill="#D3C8AC" preserveAspectRatio="none" viewBox="0 0 1200 18.05"><path d="M0,0V15.74l1.34-.08c10.7.19,21.37.51,32.1.48q10.69,0,21.38,0a29.54,29.54,0,0,0,4.91,0c1.84-.49,1.63-1.07,2-2.22.11-.36.22-1.09.4-1.88h4.22a3.43,3.43,0,0,0,1.18,1.48c1.65,1.07,2.6.8,5.25.27,3-.6,3.06-1.44,6-.43A35.36,35.36,0,0,0,83,14.67c1.63.34,4.1.11,5.51.56,2.72.89,1.49,1.51,4.95,1.51,3.3,0,6.52.59,9.83.71,6.88.25,13.59-.3,20.43-.52,5.89-.19,11.79-.32,17.65-.7,6.54-.41,13-.12,19.49-.31A16,16,0,0,0,168,14.28a23.1,23.1,0,0,1,7.49-1.44,57.83,57.83,0,0,1,9.92.06c1.6.15,3.19.36,4.82.38,1.25,0,3.42-.45,4.49,0,2,.8,1,2.27,3.68,2.76s6.39-.18,9.22-.17c7,0,13.51,1.75,20.59,1.49,6.07-.22,11.7-.48,17.79-.16.62,0,1.16.09,1.69.15v.2c2.11,0,4.2,0,6.34.09s5.35.63,7.43.35c3.34-.45,4.37-4,6.14-6h1.1a18.36,18.36,0,0,0,2.59,3.23c1.78,1.46,4,1.32,6.76,1.3,7.15,0,14.11-.76,21.22-.87,13.61-.22,27.13-.65,40.76-.46,13.29.19,26.89-.16,40.12.71,3.24.21,6.65.32,9.82.8,2.72.41,4.16,1.43,5.25-.44.8-1.37.81-3.21,2.78-4.18l.2-.09h6.88c.58,1.36.32,3.62,2.36,4.1,1,.24,3.28-.42,4.42-.49,2-.13,4-.08,6,0,3.75.07,6,.75,7.24-1.62.34-.63.63-1.29,1-1.94h4.38c.33.59.69,1.18,1,1.77,1,1.77,1.05,1.92,4.16,2a174.76,174.76,0,0,0,18.29-.32c13.32-1.23,26.12-.21,39.43.28,5.83.22,11.66.51,17.49.66,6.24.16,13.08.85,19-.39a50.68,50.68,0,0,1,7.41-.72,35,35,0,0,1,4.31-.12,23.17,23.17,0,0,0,3.3.49c2.26-.28,4-3.08,6.07-3.08a17.19,17.19,0,0,1,5.79,1.18C560.7,15.41,569,14.91,574,15l8.52.19V16c4.74,0,9.19.67,13.88.93A161,161,0,0,0,613,16.7l1.49-.06c9.88-.45,19.95-.7,29.84-.8,2.92,0,5.82-.07,8.74-.15,1.79-.05,5.06.27,6.39-.51,1.53-.9.46-3,3.36-2.74,2.1.18,4.24,1.74,5.68,2.51,2,1.09,3.91.85,6.54.77,2.36-.07,6.14.3,8.35-.15,2-.42,1.84-2.35,2.24-3.55h2.84l.08.28c.26.73.41,2.09,1.2,2.69s2.13.49,3.57.48c6.6,0,13.2-1.11,19.76-1.62,1.71-.13,5.57-1.18,6.78-.8.83.26,1.22,1.21,2.19,1.55a16.32,16.32,0,0,0,4.48.47c2.94.1,5.67.07,8.61.33,3.33.29,3.42-.27,4.58-2,2.36,1.36,4.42,2.79,8,3.12,1.91.17,3.84-.18,5.77-.12s3.58.17,5.4.17c4.51,0,9-.1,13.52-.32a78.89,78.89,0,0,1,12-.11l1,.09v.06h1.05c5.87,0,11.73-.6,17.59-.7,7.17-.12,14.39.28,21.56.44,13.19.3,26.59-.4,39.79-.58,3.29,0,5.8.17,8.42-.94s4.71-.85,7.83-.87c2.64,0,5.3,0,7.94-.1a30.23,30.23,0,0,1,4-.18c2.18.29.9.25,1.79,1.16.47.48-.33.56.58.93.75.3,3.29,0,4.15,0,2.76,0,5.53,0,8.28-.13s5,0,6.65-1.2a13.9,13.9,0,0,0,2.3-2.12h7.3c.12.46.22.92.33,1.35.36,1.51,0,1.61,2.29,2,3.18.56,8,.08,11.31.14,12.47.23,24.93.1,37.39.68,3.16.15,6.36.09,9.52.09,4.05,0,4.37,0,6.09-2.15A12,12,0,0,1,993.45,12h3.81a17.94,17.94,0,0,0,3.16,2.26c3.65,1.33,9.78.86,14,1,7.23.3,14.5,0,21.75.26,5.89.21,11.55.55,17.46.57,3,0,6.34-.51,9-.45v-.1c5.2-.23,10.34-.82,15.57-1q10.4-.36,20.82-.58,5.59-.12,11.19-.12c2.44,0,5.58.47,7.92.3,2.1-.15,3.6-1.34,5.35-2.18h6.68c.56.32,1.11.7,1.75,1.08,2.5,1.51,3.13,2.05,6.6,1.93s6.92.26,10.36.4c7.17.28,14.4.1,21.59.11,8.59,0,17.15.22,25.71.39l3.84-.06L1199.94,0Z"/></svg>