<svg xmlns="http://www.w3.org/2000/svg" aria-hidden="true" role="presentation" viewBox="0 0 22 18.96"><path d="M6.71 7.29l-.28.57c.07.08.12.18.17.18h1.54c.43.43 1.51.76 1.51 1.21v1.27c0 .18 1 .32 1 .48v1.34a4.34 4.34 0 0 0-1.87.52A6.83 6.83 0 0 0 7.59 14c.21.43.24.79.49 1.29l-.81.44c-.06-.08 1.38-.34-.62-.8V16c-1 .34-.51-.3-.82-.42-.28.24-.61.49-.84.7-.42-.42-.7-.86-1.15-1.31a7.65 7.65 0 0 0 .82-.1V14H2.72c-.34 1-.35.6-.91.73a4.87 4.87 0 0 0-.63-.73c-.25-.25-.81.07-.93-.55a.71.71 0 0 1 .06-.33 1.18 1.18 0 0 0 0-1.37 1.67 1.67 0 0 1 0-1.8c.17-.44.26-.95.47-1.34.09-.17.34-.26.63-.47l.09-.55c.6-.35 1.19-.73 1.82-1.05a1.88 1.88 0 0 1 1.87-.16 4.49 4.49 0 0 1 1.52.91zm-4.13 3.43c.1-.19.24-.3.28-.51s-.14-.22-.31-.49L2.07 11 1 11.64c-.19 1.11.85 1.37 1.23 2.05 0 .06.2-.09.32-.06.06-.16.11-.66.19-.66h1.55c.13-.97-1.19-1.31-1.71-2.25zm4.81.06c-.44.53-1.38.54-1.13 1.53l1.11.29 1-.87c-.06-.49 0-.45.21-.87.06-.11 0 .1 0 .1H7.44c-.13 0-.23-.16-.33 0 .12.13.2-.27.28-.18zm-2.33 3.06c.26-.11.65-.22.65-.31v-.64A5 5 0 0 1 5 12l-.3 1.15zM3.35 8.36v.08h.24v-.08z"/><path d="M7.83 6.08c0-.06-.14-.54-.14-.59.22-.58-.18-1-.17-1.64s.54-1.14.63-1.92a.61.61 0 0 1 .27-.4 3.59 3.59 0 0 1 .7-.24c.28.62.56 1.25.86 1.87.14.29.18.51-.14.68a.8.8 0 0 0-.2.19c-.34.38-.34.38 0 .78s.46.56.71.83a.26.26 0 0 0 .42 0c.33-.29.65-.59 1-.85a.3.3 0 0 0 .11-.45c-.13-.24-.26-.48-.38-.72-.28-.6-.5-.69-1-.28h-.1l-.89-2.25.15-.09 3.67-.94a1.65 1.65 0 0 1 1.59.44 12.07 12.07 0 0 0 1.54 1.33 11 11 0 0 1 1.26.79c.5.38.5.37.32 1a.81.81 0 0 0 0 .11c-.11.71-.08 1.7-.2 2.41a2.12 2.12 0 0 0 0 1 .54.54 0 0 1-.38.76c-.44.19-.89.36-1.32.55s-.51.17-.8-.15c-.12-.14-.24-.29-.37-.42a.24.24 0 0 0-.39 0 .52.52 0 0 0 0 .37.72.72 0 0 0 .2.27.56.56 0 0 1 .06.61c-.37.73-.58 1.88-.94 1.88h-.57a8.4 8.4 0 0 0 0-.87c0-.11-.14-.19-.22-.29-.09.08-.23.15-.26.25-.08.28-.12.58-.18.89-.28 0-1.56.1-1.85.1s-.23-.08-.26-.25c-.11-.65-.22-1.49-.36-2.14a1.19 1.19 0 0 1 .25-1.09c.05-.06 0-.2 0-.3a.73.73 0 0 0-.28 0 3.8 3.8 0 0 0-.56.33.6.6 0 0 1-.77 0c-.21-.15-.46-.26-.66-.42s-.28-.69-.35-1.14zm8.38-.59a.59.59 0 0 1-.09-.12c-.13-.37-.27-.75-.39-1.13-.06-.18-.18-.27-.34-.18a11.63 11.63 0 0 0-1.1.7C14 5 14 5 14.26 5.3a.89.89 0 0 1 .08.17 6.81 6.81 0 0 0 .33.62c.05.08.19.17.26.15a4 4 0 0 0 .71-.3 4 4 0 0 0 .48-.34.59.59 0 0 0 .09-.11zm-3.9 2c.21 0 .42.1.62.16s.28 0 .28-.17a5.22 5.22 0 0 0-.08-.71.88.88 0 0 0-.07-.21c0-.09-.07-.23-.13-.24a.33.33 0 0 0-.27.1c-.2.22-.38.46-.53.64s-.04.36.19.4z"/><path d="M19.27 15.41h-.07l-.49-.19v-.1l.14-.23a.28.28 0 0 0-.21-.25.11.11 0 0 0-.12.05c0 .09-.06.19-.09.28s-.07.17-.22.15a6.88 6.88 0 0 0-.71-.05.12.12 0 0 1-.12-.06v-.27a.38.38 0 0 0 0-.11.09.09 0 0 0-.08 0 .17.17 0 0 0-.16.16v.29h-.39a.11.11 0 0 1-.12-.1 4.48 4.48 0 0 1 0-.78.8.8 0 0 1 .08-.25 1.12 1.12 0 0 1 .19-.34.14.14 0 0 0 0-.14.14.14 0 0 0-.16 0l-.11.06-.42.25a.3.3 0 0 1-.3 0 2.91 2.91 0 0 1-.84-.59l-.08-.1a.47.47 0 0 1-.06-.48c0-.06 0-.12.06-.18a2.73 2.73 0 0 1 .17-.48.44.44 0 0 0 0-.28.81.81 0 0 1 0-.22V9.89a.2.2 0 0 1 .12-.18l.3-.17a1.82 1.82 0 0 1 .3-.1H16c.14.22.22.47.37.68a.19.19 0 0 0 0-.12v-.68a.15.15 0 0 1 .12-.14 1.33 1.33 0 0 0 .33-.08c.31-.09.62-.19.94-.27s.68-.16 1-.22a1.54 1.54 0 0 1 .34 0 .56.56 0 0 1 .29.12l.23.18.56.47s.06 0 .07.07a.64.64 0 0 0 .33.28 3.62 3.62 0 0 1 .71.48 3.88 3.88 0 0 0 .48.39.31.31 0 0 1 .23.4 3 3 0 0 0-.11.52 2.91 2.91 0 0 0-.07.51 3 3 0 0 1 0 .36c0 .13 0 .26-.07.39a.83.83 0 0 0 0 .41v.17a.31.31 0 0 1-.1.35.39.39 0 0 1-.12.08c-.18.08-.35.17-.54.24a2.53 2.53 0 0 0-.49.23.22.22 0 0 1-.23 0 .71.71 0 0 1-.19-.15l-.16-.19-.13-.11a.17.17 0 0 0-.22 0 .2.2 0 0 0 0 .23l.09.12a1.27 1.27 0 0 1 .17.24 5.85 5.85 0 0 1-.41.94.38.38 0 0 1-.06.07zm1.2-4.08c-.38.12-.72.28-1.07.41a.33.33 0 0 0-.17.17.15.15 0 0 0 0 .09 3.21 3.21 0 0 0 .2.63.86.86 0 0 0 .19.28.17.17 0 0 0 .2 0l.24-.13a5.62 5.62 0 0 1 .68-.39.17.17 0 0 0 .1-.18c0-.13-.06-.25-.08-.38a1.78 1.78 0 0 0-.29-.51zm-3.39 0c-.27.16-.51.33-.74.51v.05c0 .05.18.24.28.36a.93.93 0 0 0 .17.14.16.16 0 0 0 .14 0c.51-.39.55-.42.66-.61l-.23-.21c-.11-.02-.17-.13-.28-.2zm1.37 2.34c.11 0 .14-.08.14-.17a.64.64 0 0 0 0-.12c0-.16-.07-.32-.12-.48a.3.3 0 0 0-.07-.1.11.11 0 0 0-.17 0 1.51 1.51 0 0 1-.18.23 1.35 1.35 0 0 0-.14.2.63.63 0 0 0-.06.16c0 .11 0 .17.13.17a.26.26 0 0 1 .16 0h.07c.07 0 .15.14.24.15zm-.92 1.88v.37a.15.15 0 0 0 .14.12.18.18 0 0 0 .18-.1v-.33a.1.1 0 0 1 .09 0l.66.09.28.07h.09a.16.16 0 0 1 .06.21c-.05.09-.1.19-.14.28a.38.38 0 0 1-.28.22.47.47 0 0 0-.22.09.41.41 0 0 1-.11 0h-.41a2.78 2.78 0 0 1-.49-.06 3.19 3.19 0 0 0-.61-.05h.03l-.19-.11h-.37a1.52 1.52 0 0 1-.36 0 .32.32 0 0 1-.23-.2 2 2 0 0 1-.11-.45.19.19 0 0 1 .13-.18l.36-.05h.59a.88.88 0 0 1 .39.05.67.67 0 0 0 .26 0 .51.51 0 0 1 .26.03zm-7.36 1.51c.17-.1.48-.17.48-.24v-.2h-.32c-.09 0-.33.38-.49.38h-.33c-.2 0-.36-.49-.61-.63s-.19-.3-.31-.45a1 1 0 0 0 .32-.92 3.67 3.67 0 0 1 .09-.51 2.65 2.65 0 0 1 .07-.49 2.64 2.64 0 0 0 0-.74l.72-.14a1 1 0 0 1 .45-.16 7.18 7.18 0 0 0 1.52-.32 3.61 3.61 0 0 1 .8-.16c.56.42 1.15.7 1.71 1.06a1.36 1.36 0 0 1 .51.56 1 1 0 0 0 .18.21c-.06.29-.13.58-.2.88a2.79 2.79 0 0 1-.25.86c.18.29 0 .62.1.91-.3.36-.76.36-1.13.54l-.57-.62-.25.18a4.34 4.34 0 0 0 .3.57.59.59 0 0 1 0 .47c-.08.26-.19.85-.28.85h-.1v-.54h-.2l-.28.48c-.17 0 .47-.08-.53-.12V19h-.39s-.09-.12-.16 0c-.28 0-.52-.22-.78-.3 0-.26 0-.57-.08-.82s.05-.58.01-.82zm-.63-2c.21.42.56.47.87.59a3.84 3.84 0 0 0 .33-.23c.11-.1.21-.25.32-.36-.22-.27-.41-.3-.6-.79h-.2c-.2.49-.35.45-.61.56-.07.03-.09.17-.1.23zm3.46 1.2l.7-.49c0-.33-.29-.52-.42-.79l-.88.25v.15c.2.28.39.56.6.88zm-1.23 1.17c0-.07.28-.13.28-.19v-.73s-.23-.08-.26-.11l-.3.11c-.06.23-.08.46-.14.7z"/></svg>