<svg xmlns="http://www.w3.org/2000/svg" viewBox="0 0 18.33 22" aria-hidden="true" role="presentation">
    <path d="M13.26 22a5.55 5.55 0 0 1-.8-.25c-.29-.12-.59-.21-.89-.29s-.51-.15-.77-.24c-.57-.2-1.14-.4-1.72-.56a12.13 12.13 0 0 1-1.94-.74C6.12 19.4 5.08 19 4 18.49l-.61-.28A11.06 11.06 0 0 1 1.37 17c-.05 0-.06-.14 0-.17l.12-.06c.85-.34 1.73-.61 2.6-.89a.27.27 0 0 1 .25 0l.36.3a1.75 1.75 0 0 0 .6.3 3.15 3.15 0 0 0 .86.15h1.15a1.79 1.79 0 0 0 .59-.11 2.45 2.45 0 0 0 1.23-.88.56.56 0 0 0 .07-.51 1.4 1.4 0 0 0-.11-.24l-.37-.71a.38.38 0 0 1 0-.26.47.47 0 0 0-.1-.38l-.2-.27A6.49 6.49 0 0 1 7.65 12c-.34-.68-.67-1.37-1-2.06l-.25-.55a.2.2 0 0 0-.28-.1l-.25.09c-.77.29-1.54.6-2.29.94s-1.56.67-2.36 1a.14.14 0 0 1-.16-.08v-.26a2.91 2.91 0 0 0-.32-1.09C.6 9.6.44 9.33.29 9.06L0 8.6a.11.11 0 0 1 0-.16c.5-.12 1-.24 1.49-.39a13.31 13.31 0 0 0 2.83-1.18l.41-.23a.22.22 0 0 0 .13-.15c0-.08-.07-.09-.12-.12l-.12-.06A16.49 16.49 0 0 1 2.21 5c-.15-.09-.29-.21-.43-.32a.14.14 0 0 1 0-.18l.12-.16.64-.78A12 12 0 0 0 4.13 1c.1-.22.21-.45.32-.67a2.07 2.07 0 0 1 .14-.26.18.18 0 0 1 .18-.07 2.09 2.09 0 0 1 .59.32c.51.4 1.06.74 1.6 1.1.34.22.66.45 1 .68a9.84 9.84 0 0 0 1 .63 3 3 0 0 0 .9.27.09.09 0 0 1 .05.15 12.11 12.11 0 0 0-.67 1.08c-.05.1-.1.2-.14.3a.08.08 0 0 0 0 .06.08.08 0 0 0 .11 0l.24-.11 1.95-.96c.47-.26.94-.52 1.42-.75l.24-.11a.17.17 0 0 1 .22.08v.13a2.55 2.55 0 0 0 1.2 1.63 5.8 5.8 0 0 0 .59.31.59.59 0 0 1 .28.27 1.91 1.91 0 0 1 .21.41.06.06 0 0 1 0 .05.39.39 0 0 1-.11.07c-.25.08-.51.17-.77.24a8.31 8.31 0 0 0-1.32.47q-1.68.76-3.4 1.42l-.18.09a.2.2 0 0 0-.06.17 1 1 0 0 0 0 .2 29.19 29.19 0 0 1 .92 2.8 5.62 5.62 0 0 0 .27.76 3.54 3.54 0 0 0 .24.48 2.16 2.16 0 0 1 .26.61c.07.24.12.48.19.71a2.06 2.06 0 0 0 .12.31.3.3 0 0 0 .28.13.47.47 0 0 0 .26 0 3.23 3.23 0 0 0 .34-.21 5.73 5.73 0 0 0 1.49-1.61 2.69 2.69 0 0 0 .45-1.18 1.94 1.94 0 0 1 0-.26.31.31 0 0 1 .07-.11h.06l2.58-1.42a5.2 5.2 0 0 1 .9-.44.13.13 0 0 1 .14.11.71.71 0 0 1 0 .13 2.49 2.49 0 0 1-.06.26c-.06.21-.14.42-.2.64a10.18 10.18 0 0 0-.28 1.45 4 4 0 0 1-.3 1.16c-.22.51-.4 1-.57 1.57s-.3.89-.49 1.32c-.29.68-.54 1.37-.78 2.07s-.41 1.13-.66 1.68l-.65 1.47a9.85 9.85 0 0 1-.59 1.13 1.3 1.3 0 0 1-.16.22c-.02.02-.1.02-.29.02zm-6-18.21v-.05a4.89 4.89 0 0 0-.57-.33L6 3l-.17-.1a.38.38 0 0 0-.26 0 .31.31 0 0 0-.11.1.16.16 0 0 0 0 .06l-.5 1a.18.18 0 0 0 0 .18l.79.49.12.06a.21.21 0 0 0 .19 0 13.51 13.51 0 0 1 1.09-.87z"></path>
</svg>