<svg xmlns="http://www.w3.org/2000/svg" aria-hidden="true" role="presentation" viewBox="0 0 22.17 29.68"><path d="M11.5 3.49a.31.31 0 0 1 0-.36l.18-.25.23-.37a.55.55 0 0 1 .09-.13.63.63 0 0 0 .18-.54v-1a1.11 1.11 0 0 1 .12-.6.34.34 0 0 0 0-.12.12.12 0 0 1 .14-.12.13.13 0 0 1 .14.09.6.6 0 0 1 .05.14 4 4 0 0 1 .11.81.27.27 0 0 0 0 .1 5.93 5.93 0 0 1 .19 1l.15.73V3c0 .08-.07.18-.13.28s-.15.23-.22.35a2.73 2.73 0 0 0-.15.29.35.35 0 0 1-.47.25.62.62 0 0 0-.2 0c-.11 0-.15 0-.19-.13s-.13-.39-.22-.55zm4.35 1.2h.06c.18.11.3.08.39-.11l.42-.85a1.13 1.13 0 0 0 .06-.17c0-.19 0-.22-.17-.16l-.11.06-.73.57a.48.48 0 0 0-.13.4c0 .17.11.22.2.27zm.71 7.18a1.35 1.35 0 0 0-.2.16c-.18.18-.19.41.09.52a7.27 7.27 0 0 1 1 .48 1 1 0 0 0 .29.1c.12 0 .2 0 .19-.22a.42.42 0 0 0-.09-.13 1.72 1.72 0 0 0-.3-.2.63.63 0 0 1-.25-.22c-.1-.15-.21-.29-.32-.43s-.23-.17-.41-.05zm-9.3-7.7c.11.19.21.39.32.58a.22.22 0 0 0 .28.11.57.57 0 0 0 .38-.56.46.46 0 0 0-.05-.13.56.56 0 0 0-.3-.23.83.83 0 0 1-.31-.17c-.15-.11-.31-.22-.46-.32S7 3.46 7 3.51a1.64 1.64 0 0 0 .08.32 3.13 3.13 0 0 0 .18.34zm13.4 18.27a.38.38 0 0 1-.07.43 1 1 0 0 0-.2.35c-.18.46-.37.92-.53 1.39s-.3 1-.44 1.44-.34 1.22-.52 1.82v.07c-.07.22-.14.43-.4.5a1.07 1.07 0 0 1 .05.16.46.46 0 0 1-.47.56h-1c-.64 0-1.27 0-1.91.06s-1 .06-1.56.11-1.19.14-1.79.15a2.93 2.93 0 0 0-.51.06 6.22 6.22 0 0 1-1 0 .5.5 0 0 0-.2 0 .69.69 0 0 1-.47 0l-.76-.11-.7-.13a3.58 3.58 0 0 0-.51-.07 9.69 9.69 0 0 1-1-.13h-.28l-1.08-.05-.54-.05h-.06c-.17-.15-.38-.27-.41-.54a1.69 1.69 0 0 1 0-.18 10.52 10.52 0 0 0-.11-1.67 13.53 13.53 0 0 1-.16-2 6.91 6.91 0 0 0-.08-1.29 1.8 1.8 0 0 1 0-.34c0-.09 0-.13-.13-.15s-.46-.12-.69-.17a4 4 0 0 1-.71-.28 11.73 11.73 0 0 1-1.19-.64 2.13 2.13 0 0 1-.68-.68 3.19 3.19 0 0 1-.44-1A3.33 3.33 0 0 1 0 18.72a4.74 4.74 0 0 1 .18-.8 3.44 3.44 0 0 1 .62-1c.18-.23.39-.44.59-.65a3.54 3.54 0 0 1 .83-.64 5.7 5.7 0 0 0 .59-.42A6.62 6.62 0 0 1 4 14.55a.83.83 0 0 0 .16-.08.86.86 0 0 1 .81-.09 5.16 5.16 0 0 0 .91.16 15.53 15.53 0 0 1 1.75.26c.17 0 .34 0 .51.06l1.23.14a5.08 5.08 0 0 0 .56 0 2.33 2.33 0 0 1 .81.09.79.79 0 0 0 .18 0c.23 0 .22 0 .33-.16a6.23 6.23 0 0 1 .44-.63.32.32 0 0 1 .51 0 .29.29 0 0 0 .23.13.4.4 0 0 1 .34.46v.2a1.06 1.06 0 0 0 0 .14h.07l1.29.06 1.62.11 1.15.1.82.06h.69a.12.12 0 0 1 .09.07 2.48 2.48 0 0 1 .05.4v1.14c0 .88 0 1.77-.06 2.65a3.56 3.56 0 0 0 0 .61.64.64 0 0 1-.15.49 3.65 3.65 0 0 0 .91.53l.28.12.82.37a.65.65 0 0 1 .31.49zM2.54 16.55a4.62 4.62 0 0 0-1 .95c-.11.15-.23.3-.33.46a2.26 2.26 0 0 0-.29 1 3.4 3.4 0 0 0 0 .77 1.7 1.7 0 0 0 .66 1.07 6.48 6.48 0 0 0 .82.51c0-.23.09-.42.1-.61s0-.56 0-.85c.11-1.11.1-2.2.04-3.3zM4 20.25c0-.27-.07-.54-.09-.81 0-.56 0-1.11-.06-1.67 0-.38 0-.75-.05-1.13 0-.21 0-.42-.07-.66l-.42.18s-.08.09-.07.12a2.39 2.39 0 0 1 0 .59c0 .44.08.88.09 1.32s0 .84 0 1.26v1.1a3.27 3.27 0 0 1 0 .36 1.94 1.94 0 0 0 0 .71l.58.15c.11 0 .13 0 .13-.11A9.7 9.7 0 0 1 4 20.41a.59.59 0 0 0 0-.16zm2.08 1.48l1.08-.21.84-.14.83-.13 1.11-.17.94-.12 1-.14 1.24-.17a5.1 5.1 0 0 1 .79-.09h.28l1.27-.15.64-.06 1-.1h.35a.11.11 0 0 0 .07-.06.6.6 0 0 0 0-.17c0-.28 0-.56.06-.85s0-.36 0-.53c.07-.76 0-1.53 0-2.29 0-.12 0-.14-.16-.13s-.3 0-.45 0h-.92c-.46 0-.93 0-1.39-.05s-1.08 0-1.62-.05h-.46a2.57 2.57 0 0 1-.1.37 1.2 1.2 0 0 0-.09.48 2.65 2.65 0 0 1-.13.86.59.59 0 0 0 0 .13c0 .19 0 .38-.07.56a.29.29 0 0 0 0 .17 1.69 1.69 0 0 1 .11.65.65.65 0 0 1-.09.32.21.21 0 0 1-.35.07 1 1 0 0 1-.21-.26c-.15-.31-.3-.62-.43-.93a.88.88 0 0 1 0-.67c.11-.29.19-.6.28-.9a.32.32 0 0 0 0-.27q-.15-.24-.29-.49a.16.16 0 0 0-.11-.21H8.39c-.27 0-.75 0-1.12-.06h-.9l-.66-.06h-.59c-.17 0-.2 0-.23.18a1.17 1.17 0 0 0 0 .23v3.89c0 .4 0 .8-.06 1.21v.66zm3.42 3.74h-.18l-.88-.11-.8-.1c-.19 0-.38 0-.57-.05l-1.72-.29v.74c0 .31 0 .62.06.92a3.67 3.67 0 0 0 .06.46 12.62 12.62 0 0 1 .25 1.3c0 .21.07.25.28.26l1 .08h1.28c.24 0 .47.06.71.08s.33-.07.34-.3.08-.7.09-1.05v-1.83zm-.07-1.41c0-.06 0-.09-.1-.09l-.56-.06-.51-.05-1.11-.15c-.3 0-.59-.08-.88-.14s-.71-.17-1.06-.26v.66a.13.13 0 0 0 0 .07s.06.07.09.08l.46.06.69.06c.36 0 .72.12 1.09.13a8 8 0 0 1 1.22.16 4.7 4.7 0 0 0 .51.06c.05 0 .1 0 .1-.08s.06-.3.06-.45zm5.08 1.61a2.56 2.56 0 0 1-.82 0c-.21 0-.3-.09-.33-.31s0-.16 0-.23-.06-.13-.16-.12a1.47 1.47 0 0 1-.23 0 3.55 3.55 0 0 0-.76.11c-.22 0-.44.07-.66.11l-.68.11a.16.16 0 0 0-.15.17 5.32 5.32 0 0 1-.06.59 14 14 0 0 0-.15 1.58v.84a2.31 2.31 0 0 0 .8-.11 3.27 3.27 0 0 1 .63-.09h.47l1.2-.09.61-.06a.11.11 0 0 0 .12-.11c0-.2 0-.39.06-.59a9.41 9.41 0 0 1 .24-1.79c-.04.01-.07-.03-.13-.01zm-3.59-.88l.25-.06.88-.15c.3-.06.58-.19.89-.24.12 0 .31 0 .36-.13a1.13 1.13 0 0 0 0-.41 5.9 5.9 0 0 1-.62.07c-.54 0-1.07.11-1.61.16-.07 0-.12 0-.13.1s-.07.4-.11.6.03.07.09.06zm4.45-.25a.19.19 0 0 0 .16-.17v-.25a1.4 1.4 0 0 0 0-.47h-.86a.54.54 0 0 0-.17 0s-.08 0-.08.08c0 .26 0 .52-.07.83h.4a1.74 1.74 0 0 0 .61-.02zm2.8.39h-.78c-.25 0-.5-.08-.75-.13a.74.74 0 0 1-.66.61l-.55.11c-.19 0-.19 0-.2.23s0 .22 0 .33c0 .39 0 .77-.06 1.16s0 .63-.06 1l.49-.07c.5 0 1-.08 1.51-.1a.32.32 0 0 0 .32-.2 1.63 1.63 0 0 0 .08-.27c0-.09 0-.18.06-.27.09-.29.23-.57.29-.87s.1-.46.16-.7.07-.54.15-.82zm.45-1.34h-1.89v.29c0 .09-.08.18 0 .25a8.57 8.57 0 0 0 1.69-.06.13.13 0 0 0 .08-.08c.02-.11.06-.24.11-.39zm.6-1.12l-.13-.08-.69-.39c-.17-.1-.32-.23-.48-.34a5 5 0 0 0-.46-.28.51.51 0 0 0-.24-.06l-1 .06h-.59l-.94.09-1.13.06a4 4 0 0 0-.54.05c-.5.1-1 .09-1.5.14-.32 0-.63 0-.95.07l-.57.11-1.29.1-.71.14-1.59.28-.61.11c.21.05.39.1.57.14.34.06.67.12 1 .16s.77.07 1.15.12a9.5 9.5 0 0 0 1.53.15h.15a3 3 0 0 0 .9 0c.45 0 .9-.1 1.35-.14l.72-.06c.42 0 .85-.07 1.28-.09.89 0 1.78 0 2.67-.05.5 0 1 0 1.52-.06h.49c.07 0 .11 0 .12-.09s.04-.09-.04-.13zm2.92-17.12c-.05-.09-.14 0-.21 0s-.27.15-.42.19a7.28 7.28 0 0 0-1.24.6 2.77 2.77 0 0 0-.44.27.58.58 0 0 1-.4.13 4.73 4.73 0 0 0-1.43.13.58.58 0 0 0-.4.25c-.11.21-.22.43-.31.65a.31.31 0 0 0 0 .2c.06.18.13.35.19.53a.26.26 0 0 0 .35.16.69.69 0 0 0 .17-.09c.37-.26.75-.51 1.11-.79.15-.11.29-.21.44-.18h.23a.64.64 0 0 0 .54-.28 1.47 1.47 0 0 1 .34-.35c.2-.16.39-.33.61-.47a9.26 9.26 0 0 0 .77-.67.21.21 0 0 0 .1-.28zm-16.63 6.7c-.17.17-.33.35-.51.5a1 1 0 0 0-.42.71 1.23 1.23 0 0 0 .24-.05 2.7 2.7 0 0 0 .34-.21 1.77 1.77 0 0 1 .6-.28.85.85 0 0 0 .24-.09.2.2 0 0 0 .12-.21A.67.67 0 0 0 6 12a.31.31 0 0 0-.49.05zM.92 8.12a.63.63 0 0 0 .17 0 5.3 5.3 0 0 1 .91.24 2.7 2.7 0 0 1 .37.09l1.16.39h.15a.51.51 0 0 0 .33 0c.23-.1.48-.18.71-.28a.24.24 0 0 1 .19 0 .54.54 0 0 1 .23.14.28.28 0 0 0 .45 0 2.87 2.87 0 0 0 .26-.35.46.46 0 0 0-.1-.64l-.23-.17c-.14-.11-.27-.24-.41-.35a.64.64 0 0 0-.27-.14c-.07 0-.15.06-.23.09l-.19.08a3 3 0 0 0-.72.33.7.7 0 0 1-.65.11H3l-.69-.06a3.76 3.76 0 0 1-.46-.06 1.82 1.82 0 0 0-1.15.18.58.58 0 0 1 0 .15.22.22 0 0 0 .22.25zm5.85 2.44c-.17-.2-.15-.17 0-.36a8.62 8.62 0 0 1 .87-1c.11-.1.11-.25.18-.36s0-.08 0-.12a1.66 1.66 0 0 0-.4-.77.43.43 0 0 1-.08-.52c.17-.38.33-.77.5-1.15a.61.61 0 0 1 .36-.34l3-1.17a2.05 2.05 0 0 1 .52-.12 6.92 6.92 0 0 1 .9 0 5.12 5.12 0 0 1 .69.11c-.12.26-.23.5-.37.74s-.28.51-.42.76a.45.45 0 0 0 0 .3 1.55 1.55 0 0 0 .17-.15l1-1.21.08-.1a.12.12 0 0 1 .16 0c.22.09.45.17.67.26a.38.38 0 0 1 .15.17 5.6 5.6 0 0 0 .73 1 6 6 0 0 1 .83 1.14.15.15 0 0 1 0 .2l-.47.51a.35.35 0 0 0-.1.39 3.81 3.81 0 0 0 .26.72 2.34 2.34 0 0 1 .16.51c.06.19.11.38.18.56a.13.13 0 0 1 0 .14l-.4.59a.5.5 0 0 1-.4.21h-1.18a2 2 0 0 0 0 .29 1.23 1.23 0 0 1-.18 1c-.11.16-.18.35-.27.52l-.21.37a2.77 2.77 0 0 0-1-.26c-.12 0-.13-.1-.14-.18s0-.38-.07-.56a1.12 1.12 0 0 0-.1-.26h-.07a.07.07 0 0 0 0 .05v.74c0 .04-.05.18-.2.17a4 4 0 0 0-.87.08c-.1 0-.15 0-.17-.1l-.16-.7a.22.22 0 0 0-.06-.11 1.44 1.44 0 0 0-.07.71.42.42 0 0 1 0 .13s0 .08-.06.09l-.55.1c-.08 0-.12 0-.15-.1s-.14-.31-.2-.47-.19-.48-.29-.71a.21.21 0 0 1 .08-.27l.27-.2a2.3 2.3 0 0 0 .23-.2l.31-.35c-.11 0-.2 0-.28.06a4.56 4.56 0 0 0-1.15.55 1 1 0 0 1-.55.17h-.49a.16.16 0 0 1-.11 0c-.07-.07-.13-.16-.2-.24a4.22 4.22 0 0 1-.51-.71 2.89 2.89 0 0 0-.34-.45zM14 8.77c.08.15.17.3.24.45a.56.56 0 0 0 .33.3l.25.07a.23.23 0 0 0 .3-.26 1.29 1.29 0 0 0-.12-.22l-.3-.87c0-.1-.06-.21-.11-.35a5.73 5.73 0 0 0-.67.77s.08.07.08.11zm-1.85 2.13a.14.14 0 0 0 .19 0 1 1 0 0 0 .11-.11.21.21 0 0 1 .31-.06l.11.06s.09.05.14 0a.18.18 0 0 0 .09-.19l-.33-.94a.14.14 0 0 0-.16-.1c-.08 0-.08.08-.09.14a3.51 3.51 0 0 1-.3.84c0 .07-.07.16-.11.23a.13.13 0 0 0 .04.13zM9 8.18a7.18 7.18 0 0 0 1 .92.65.65 0 0 0 .63.07c.39-.13.75-.33 1.15-.44.15 0 .17-.18.08-.31a1.5 1.5 0 0 1-.15-.17 4 4 0 0 0-.71-.91c-.18-.18-.27-.21-.5-.09s-.56.32-.84.49z"/></svg>