<svg xmlns="http://www.w3.org/2000/svg" viewBox="0 0 20.96 14.19" aria-hidden="true" role="presentation">
    <path d="M10.72 3.35l-4.78-.71C3.61 2.3 2.65 1.71 0 1.31 0 1.3 8.29 0 8.36 0c4 .56 7.57.63 10.41 1l.54.07.5.07-.35 1c-.18 0-8.53 1.24-8.74 1.21zm8.05 8.48l.54.07.5.07-.35 1c-.19 0-8.54 1.21-8.75 1.18l-4.78-.71c-2.33-.34-3.28-.93-5.94-1.33 0 0 8.29-1.32 8.36-1.31 4.05.59 7.58.67 10.42 1.03zM.54 6.38L1 6.31l.54-.07c2.87-.36 6.43-.43 10.51-1 .06 0 8.9 1.3 8.86 1.3-2.68.4-4.06 1-6.42 1.33l-4.83.71c-.21 0-8.64-1.2-8.83-1.17z"></path>
</svg>