<svg xmlns="http://www.w3.org/2000/svg" xmlns:xlink="http://www.w3.org/1999/xlink" id="Layer_1" width="100%" height="100%" data-name="Layer 1" preserveAspectRatio="none" viewBox="0 0 595.59 198.63"><defs><style>.cls-1{fill:url(#radial-gradient)}</style><radialGradient id="radial-gradient" cx="-92.86" cy="198.4" r="50.39" gradientTransform="matrix(5.95, 0, 0, -3.23, 846.35, 856.44)" gradientUnits="userSpaceOnUse"><stop offset="0" stop-color="#57ff8e"/><stop offset=".07" stop-color="#57ff8e"/><stop offset=".31" stop-color="#45c67c" stop-opacity=".7"/><stop offset=".56" stop-color="#348e6a" stop-opacity=".4"/><stop offset=".76" stop-color="#28655c" stop-opacity=".18"/><stop offset=".92" stop-color="#204c54" stop-opacity=".05"/><stop offset="1" stop-color="#1d4251" stop-opacity="0"/></radialGradient></defs><title>item2-hover</title><path d="M595,6.54a93.05,93.05,0,0,1-2.55,14.17c-.74,5.27,1.36,9.75,0,13.66a9.18,9.18,0,0,0,1.64,3.46,218.87,218.87,0,0,0-1.25,27.37l.79,5.67V81.75A43.18,43.18,0,0,1,595,92.17,49.42,49.42,0,0,0,594,104.24a19.49,19.49,0,0,1,.79,5.67c-.51,4.59-.68,10.48-1.36,15.75l-1.47,6A10.71,10.71,0,0,0,593,138l-.79,8.56,2.15,14.62v9.75l1.25,9.29v6.06l-1.08,2.1c-.74,3.06,1.25,7.31,0,9.29a278.37,278.37,0,0,1-30.43.68l-4.19-2.78c-7.2-2.38-14.28,3-24,1.87A180.73,180.73,0,0,0,497,195.54a108.36,108.36,0,0,1-24.65.91l-13.37.79a25.9,25.9,0,0,0-4.87-1.87c-10.94-1.47-17.51,2.38-28.85,1.13s-23.07-4.59-37.52-3c-10.43,1.13-19.21,3.29-27.77,4.65L334.34,197l-27.77-.45-25.67-3.46a229.86,229.86,0,0,0-45.34,2.32l-20.46.45a27.94,27.94,0,0,0-8-1.42c-4.31,6.06-32,4.08-43.07,2.78l-48.62-3.68L80.33,195.2,48,194.75a209.12,209.12,0,0,0-25.39-3.23,7.82,7.82,0,0,1-3,1.19h-.23a8.1,8.1,0,0,1-1.25-1.47c-2.21,0-3.17,3-3.63,5.67-1.87,0-7.88.79-9.75.85.28-9.75-8.56-14-2.89-20.91v-8.16c0-1.13,4.59-2.32,4.87-3.46.51-3.57,1.19-4.82.62-6.52-1.25-9.69,1.76-19.33.45-29A167.13,167.13,0,0,0,8.36,94c0-2.49,1.53-3,1-5.1A51.51,51.51,0,0,1,8.7,73.7a53.1,53.1,0,0,1,2.61-6.12A20.4,20.4,0,0,0,9,55.73l1.59-14.85A138.51,138.51,0,0,0,9.15,18.73c2.89-3.12,1.13-13,0-18.7H17c1.64,0,3.29,3.68,4.87,4.31S41.51,3,47,3.71c12.47,1.53,27.26,6.52,42.73,4.82,7.37-.85,44.37-5.67,52.08-3.85l3.46,1.76,31.23.28a49.87,49.87,0,0,1,12.86-1,129.1,129.1,0,0,0,27-1.59A863.17,863.17,0,0,1,307.08,0h23.24a309,309,0,0,1,40.63,5c21.76-.62,43.52.34,65.4-.28,17-1.81,34,3.06,50.72,3.12,12.58,0,31.68-4.36,43.75-.79a2.55,2.55,0,0,0-.68,3.23l1.76,1.47a13.15,13.15,0,0,0,9.86-2.66l2.1.51a9,9,0,0,0-1,5.67l3.12,2.1h2.78c4.25-1.47,4.87-3.8,7.31-6.52,8.27.91,28.85-3.4,30.83-6,2.27,0,2.89,1.76,4.59,2.32l2.32-1.42Z" class="cls-1"/></svg>