<svg xmlns="http://www.w3.org/2000/svg" viewBox="0 0 22.81 20.642" preserveAspectRatio="none" aria-hidden="true"
     role="presentation">
    <g>
        <path d="M18.392 2.914C16.81-.566 10.284.04 10.284.04S5.81.434 4.81 3.434 0 6.59 0 6.59l3.055 4.486a26.18 26.18 0 0 1 3.356-1.664c.644 2.238 2.307 6.795 5.243 7.079 3.9.377 4.101-7.002 4.101-7.002a21.473 21.473 0 0 0-6.278-1.02 8.305 8.305 0 0 1 1.672-.167 10.942 10.942 0 0 1 5.265 1.187h3.87l2.526-4.055s-2.836.96-4.418-2.52zm-8.9 2.896s.954-3.071 2.324-3.071c1.37 0 1.71 3.07 1.71 3.07a10.635 10.635 0 0 0-4.033 0z"></path>
        <path d="M11.15 17.527c-2.491.337-5.053-4.46-5.053-4.46l.355 3.035s3.17 4.483 5.153 4.54c1.982.056 5.998-4.143 5.998-4.143l-1.275-3.952c-1.275 4.47-2.688 4.642-5.179 4.98z"></path>
    </g>
</svg>